%TF.GenerationSoftware,KiCad,Pcbnew,(5.99.0-9544-g366189b864)*%
%TF.CreationDate,2021-04-16T00:10:41-04:00*%
%TF.ProjectId,kipad,6b697061-642e-46b6-9963-61645f706362,A*%
%TF.SameCoordinates,Original*%
%TF.FileFunction,Legend,Bot*%
%TF.FilePolarity,Positive*%
%FSLAX46Y46*%
G04 Gerber Fmt 4.6, Leading zero omitted, Abs format (unit mm)*
G04 Created by KiCad (PCBNEW (5.99.0-9544-g366189b864)) date 2021-04-16 00:10:41*
%MOMM*%
%LPD*%
G01*
G04 APERTURE LIST*
%TA.AperFunction,Profile*%
%ADD10C,0.100000*%
%TD*%
%ADD11C,0.150000*%
%ADD12C,0.010000*%
%ADD13C,0.120000*%
G04 APERTURE END LIST*
D10*
X86800000Y-30600000D02*
X139000000Y-30614214D01*
X86300000Y-30900000D02*
X86800000Y-30600000D01*
X75500000Y-30900000D02*
X86300000Y-30900000D01*
X75000000Y-30600000D02*
X75500000Y-30900000D01*
X65000000Y-30614214D02*
X75000000Y-30600000D01*
X139000000Y-146000000D02*
X65000000Y-146000000D01*
X141000000Y-32614214D02*
X141000000Y-144000000D01*
X63000000Y-144000000D02*
X63000000Y-32614214D01*
X63000000Y-144000000D02*
G75*
G03*
X65000000Y-146000000I2000000J0D01*
G01*
X141000000Y-144000000D02*
G75*
G02*
X139000000Y-146000000I-2000000J0D01*
G01*
X139000000Y-30614214D02*
G75*
G02*
X141000000Y-32614214I0J-2000000D01*
G01*
X63000000Y-32614214D02*
G75*
G02*
X65000000Y-30614214I2000000J0D01*
G01*
D11*
%TO.C,SW_RST1*%
X84304761Y-50228571D02*
X84352380Y-50371428D01*
X84352380Y-50609523D01*
X84304761Y-50704761D01*
X84257142Y-50752380D01*
X84161904Y-50800000D01*
X84066666Y-50800000D01*
X83971428Y-50752380D01*
X83923809Y-50704761D01*
X83876190Y-50609523D01*
X83828571Y-50419047D01*
X83780952Y-50323809D01*
X83733333Y-50276190D01*
X83638095Y-50228571D01*
X83542857Y-50228571D01*
X83447619Y-50276190D01*
X83400000Y-50323809D01*
X83352380Y-50419047D01*
X83352380Y-50657142D01*
X83400000Y-50800000D01*
X83352380Y-51133333D02*
X84352380Y-51371428D01*
X83638095Y-51561904D01*
X84352380Y-51752380D01*
X83352380Y-51990476D01*
X84447619Y-52133333D02*
X84447619Y-52895238D01*
X84352380Y-53704761D02*
X83876190Y-53371428D01*
X84352380Y-53133333D02*
X83352380Y-53133333D01*
X83352380Y-53514285D01*
X83400000Y-53609523D01*
X83447619Y-53657142D01*
X83542857Y-53704761D01*
X83685714Y-53704761D01*
X83780952Y-53657142D01*
X83828571Y-53609523D01*
X83876190Y-53514285D01*
X83876190Y-53133333D01*
X84304761Y-54085714D02*
X84352380Y-54228571D01*
X84352380Y-54466666D01*
X84304761Y-54561904D01*
X84257142Y-54609523D01*
X84161904Y-54657142D01*
X84066666Y-54657142D01*
X83971428Y-54609523D01*
X83923809Y-54561904D01*
X83876190Y-54466666D01*
X83828571Y-54276190D01*
X83780952Y-54180952D01*
X83733333Y-54133333D01*
X83638095Y-54085714D01*
X83542857Y-54085714D01*
X83447619Y-54133333D01*
X83400000Y-54180952D01*
X83352380Y-54276190D01*
X83352380Y-54514285D01*
X83400000Y-54657142D01*
X83352380Y-54942857D02*
X83352380Y-55514285D01*
X84352380Y-55228571D02*
X83352380Y-55228571D01*
X84352380Y-56371428D02*
X84352380Y-55800000D01*
X84352380Y-56085714D02*
X83352380Y-56085714D01*
X83495238Y-55990476D01*
X83590476Y-55895238D01*
X83638095Y-55800000D01*
%TO.C,C1*%
X132916666Y-38857142D02*
X132964285Y-38904761D01*
X133107142Y-38952380D01*
X133202380Y-38952380D01*
X133345238Y-38904761D01*
X133440476Y-38809523D01*
X133488095Y-38714285D01*
X133535714Y-38523809D01*
X133535714Y-38380952D01*
X133488095Y-38190476D01*
X133440476Y-38095238D01*
X133345238Y-38000000D01*
X133202380Y-37952380D01*
X133107142Y-37952380D01*
X132964285Y-38000000D01*
X132916666Y-38047619D01*
X131964285Y-38952380D02*
X132535714Y-38952380D01*
X132250000Y-38952380D02*
X132250000Y-37952380D01*
X132345238Y-38095238D01*
X132440476Y-38190476D01*
X132535714Y-38238095D01*
%TO.C,PF7*%
X121466666Y-35352380D02*
X121466666Y-34352380D01*
X121085714Y-34352380D01*
X120990476Y-34400000D01*
X120942857Y-34447619D01*
X120895238Y-34542857D01*
X120895238Y-34685714D01*
X120942857Y-34780952D01*
X120990476Y-34828571D01*
X121085714Y-34876190D01*
X121466666Y-34876190D01*
X120133333Y-34828571D02*
X120466666Y-34828571D01*
X120466666Y-35352380D02*
X120466666Y-34352380D01*
X119990476Y-34352380D01*
X119704761Y-34352380D02*
X119038095Y-34352380D01*
X119466666Y-35352380D01*
%TO.C,PF6*%
X121466666Y-37552380D02*
X121466666Y-36552380D01*
X121085714Y-36552380D01*
X120990476Y-36600000D01*
X120942857Y-36647619D01*
X120895238Y-36742857D01*
X120895238Y-36885714D01*
X120942857Y-36980952D01*
X120990476Y-37028571D01*
X121085714Y-37076190D01*
X121466666Y-37076190D01*
X120133333Y-37028571D02*
X120466666Y-37028571D01*
X120466666Y-37552380D02*
X120466666Y-36552380D01*
X119990476Y-36552380D01*
X119180952Y-36552380D02*
X119371428Y-36552380D01*
X119466666Y-36600000D01*
X119514285Y-36647619D01*
X119609523Y-36790476D01*
X119657142Y-36980952D01*
X119657142Y-37361904D01*
X119609523Y-37457142D01*
X119561904Y-37504761D01*
X119466666Y-37552380D01*
X119276190Y-37552380D01*
X119180952Y-37504761D01*
X119133333Y-37457142D01*
X119085714Y-37361904D01*
X119085714Y-37123809D01*
X119133333Y-37028571D01*
X119180952Y-36980952D01*
X119276190Y-36933333D01*
X119466666Y-36933333D01*
X119561904Y-36980952D01*
X119609523Y-37028571D01*
X119657142Y-37123809D01*
%TO.C,PF5*%
X121466666Y-39752380D02*
X121466666Y-38752380D01*
X121085714Y-38752380D01*
X120990476Y-38800000D01*
X120942857Y-38847619D01*
X120895238Y-38942857D01*
X120895238Y-39085714D01*
X120942857Y-39180952D01*
X120990476Y-39228571D01*
X121085714Y-39276190D01*
X121466666Y-39276190D01*
X120133333Y-39228571D02*
X120466666Y-39228571D01*
X120466666Y-39752380D02*
X120466666Y-38752380D01*
X119990476Y-38752380D01*
X119133333Y-38752380D02*
X119609523Y-38752380D01*
X119657142Y-39228571D01*
X119609523Y-39180952D01*
X119514285Y-39133333D01*
X119276190Y-39133333D01*
X119180952Y-39180952D01*
X119133333Y-39228571D01*
X119085714Y-39323809D01*
X119085714Y-39561904D01*
X119133333Y-39657142D01*
X119180952Y-39704761D01*
X119276190Y-39752380D01*
X119514285Y-39752380D01*
X119609523Y-39704761D01*
X119657142Y-39657142D01*
%TO.C,PF4*%
X121466666Y-41952380D02*
X121466666Y-40952380D01*
X121085714Y-40952380D01*
X120990476Y-41000000D01*
X120942857Y-41047619D01*
X120895238Y-41142857D01*
X120895238Y-41285714D01*
X120942857Y-41380952D01*
X120990476Y-41428571D01*
X121085714Y-41476190D01*
X121466666Y-41476190D01*
X120133333Y-41428571D02*
X120466666Y-41428571D01*
X120466666Y-41952380D02*
X120466666Y-40952380D01*
X119990476Y-40952380D01*
X119180952Y-41285714D02*
X119180952Y-41952380D01*
X119419047Y-40904761D02*
X119657142Y-41619047D01*
X119038095Y-41619047D01*
%TO.C,PF1*%
X121466666Y-44152380D02*
X121466666Y-43152380D01*
X121085714Y-43152380D01*
X120990476Y-43200000D01*
X120942857Y-43247619D01*
X120895238Y-43342857D01*
X120895238Y-43485714D01*
X120942857Y-43580952D01*
X120990476Y-43628571D01*
X121085714Y-43676190D01*
X121466666Y-43676190D01*
X120133333Y-43628571D02*
X120466666Y-43628571D01*
X120466666Y-44152380D02*
X120466666Y-43152380D01*
X119990476Y-43152380D01*
X119085714Y-44152380D02*
X119657142Y-44152380D01*
X119371428Y-44152380D02*
X119371428Y-43152380D01*
X119466666Y-43295238D01*
X119561904Y-43390476D01*
X119657142Y-43438095D01*
%TO.C,PF0*%
X121466666Y-46352380D02*
X121466666Y-45352380D01*
X121085714Y-45352380D01*
X120990476Y-45400000D01*
X120942857Y-45447619D01*
X120895238Y-45542857D01*
X120895238Y-45685714D01*
X120942857Y-45780952D01*
X120990476Y-45828571D01*
X121085714Y-45876190D01*
X121466666Y-45876190D01*
X120133333Y-45828571D02*
X120466666Y-45828571D01*
X120466666Y-46352380D02*
X120466666Y-45352380D01*
X119990476Y-45352380D01*
X119419047Y-45352380D02*
X119323809Y-45352380D01*
X119228571Y-45400000D01*
X119180952Y-45447619D01*
X119133333Y-45542857D01*
X119085714Y-45733333D01*
X119085714Y-45971428D01*
X119133333Y-46161904D01*
X119180952Y-46257142D01*
X119228571Y-46304761D01*
X119323809Y-46352380D01*
X119419047Y-46352380D01*
X119514285Y-46304761D01*
X119561904Y-46257142D01*
X119609523Y-46161904D01*
X119657142Y-45971428D01*
X119657142Y-45733333D01*
X119609523Y-45542857D01*
X119561904Y-45447619D01*
X119514285Y-45400000D01*
X119419047Y-45352380D01*
%TO.C,Y1*%
X99176190Y-43026190D02*
X99176190Y-43502380D01*
X99509523Y-42502380D02*
X99176190Y-43026190D01*
X98842857Y-42502380D01*
X97985714Y-43502380D02*
X98557142Y-43502380D01*
X98271428Y-43502380D02*
X98271428Y-42502380D01*
X98366666Y-42645238D01*
X98461904Y-42740476D01*
X98557142Y-42788095D01*
%TO.C,U3*%
X104052380Y-48219805D02*
X104861904Y-48219805D01*
X104957142Y-48267424D01*
X105004761Y-48315043D01*
X105052380Y-48410281D01*
X105052380Y-48600757D01*
X105004761Y-48695995D01*
X104957142Y-48743614D01*
X104861904Y-48791233D01*
X104052380Y-48791233D01*
X104052380Y-49172186D02*
X104052380Y-49791233D01*
X104433333Y-49457900D01*
X104433333Y-49600757D01*
X104480952Y-49695995D01*
X104528571Y-49743614D01*
X104623809Y-49791233D01*
X104861904Y-49791233D01*
X104957142Y-49743614D01*
X105004761Y-49695995D01*
X105052380Y-49600757D01*
X105052380Y-49315043D01*
X105004761Y-49219805D01*
X104957142Y-49172186D01*
%TO.C,U2*%
X110461904Y-35452380D02*
X110461904Y-36261904D01*
X110414285Y-36357142D01*
X110366666Y-36404761D01*
X110271428Y-36452380D01*
X110080952Y-36452380D01*
X109985714Y-36404761D01*
X109938095Y-36357142D01*
X109890476Y-36261904D01*
X109890476Y-35452380D01*
X109461904Y-35547619D02*
X109414285Y-35500000D01*
X109319047Y-35452380D01*
X109080952Y-35452380D01*
X108985714Y-35500000D01*
X108938095Y-35547619D01*
X108890476Y-35642857D01*
X108890476Y-35738095D01*
X108938095Y-35880952D01*
X109509523Y-36452380D01*
X108890476Y-36452380D01*
%TO.C,R6*%
X121766666Y-33252380D02*
X122100000Y-32776190D01*
X122338095Y-33252380D02*
X122338095Y-32252380D01*
X121957142Y-32252380D01*
X121861904Y-32300000D01*
X121814285Y-32347619D01*
X121766666Y-32442857D01*
X121766666Y-32585714D01*
X121814285Y-32680952D01*
X121861904Y-32728571D01*
X121957142Y-32776190D01*
X122338095Y-32776190D01*
X120909523Y-32252380D02*
X121100000Y-32252380D01*
X121195238Y-32300000D01*
X121242857Y-32347619D01*
X121338095Y-32490476D01*
X121385714Y-32680952D01*
X121385714Y-33061904D01*
X121338095Y-33157142D01*
X121290476Y-33204761D01*
X121195238Y-33252380D01*
X121004761Y-33252380D01*
X120909523Y-33204761D01*
X120861904Y-33157142D01*
X120814285Y-33061904D01*
X120814285Y-32823809D01*
X120861904Y-32728571D01*
X120909523Y-32680952D01*
X121004761Y-32633333D01*
X121195238Y-32633333D01*
X121290476Y-32680952D01*
X121338095Y-32728571D01*
X121385714Y-32823809D01*
%TO.C,R3*%
X99666666Y-54252380D02*
X100000000Y-53776190D01*
X100238095Y-54252380D02*
X100238095Y-53252380D01*
X99857142Y-53252380D01*
X99761904Y-53300000D01*
X99714285Y-53347619D01*
X99666666Y-53442857D01*
X99666666Y-53585714D01*
X99714285Y-53680952D01*
X99761904Y-53728571D01*
X99857142Y-53776190D01*
X100238095Y-53776190D01*
X99333333Y-53252380D02*
X98714285Y-53252380D01*
X99047619Y-53633333D01*
X98904761Y-53633333D01*
X98809523Y-53680952D01*
X98761904Y-53728571D01*
X98714285Y-53823809D01*
X98714285Y-54061904D01*
X98761904Y-54157142D01*
X98809523Y-54204761D01*
X98904761Y-54252380D01*
X99190476Y-54252380D01*
X99285714Y-54204761D01*
X99333333Y-54157142D01*
%TO.C,R2*%
X99666666Y-52052380D02*
X100000000Y-51576190D01*
X100238095Y-52052380D02*
X100238095Y-51052380D01*
X99857142Y-51052380D01*
X99761904Y-51100000D01*
X99714285Y-51147619D01*
X99666666Y-51242857D01*
X99666666Y-51385714D01*
X99714285Y-51480952D01*
X99761904Y-51528571D01*
X99857142Y-51576190D01*
X100238095Y-51576190D01*
X99285714Y-51147619D02*
X99238095Y-51100000D01*
X99142857Y-51052380D01*
X98904761Y-51052380D01*
X98809523Y-51100000D01*
X98761904Y-51147619D01*
X98714285Y-51242857D01*
X98714285Y-51338095D01*
X98761904Y-51480952D01*
X99333333Y-52052380D01*
X98714285Y-52052380D01*
%TO.C,R1*%
X81466666Y-47452380D02*
X81800000Y-46976190D01*
X82038095Y-47452380D02*
X82038095Y-46452380D01*
X81657142Y-46452380D01*
X81561904Y-46500000D01*
X81514285Y-46547619D01*
X81466666Y-46642857D01*
X81466666Y-46785714D01*
X81514285Y-46880952D01*
X81561904Y-46928571D01*
X81657142Y-46976190D01*
X82038095Y-46976190D01*
X80514285Y-47452380D02*
X81085714Y-47452380D01*
X80800000Y-47452380D02*
X80800000Y-46452380D01*
X80895238Y-46595238D01*
X80990476Y-46690476D01*
X81085714Y-46738095D01*
%TO.C,J1*%
X81233333Y-35952380D02*
X81233333Y-36666666D01*
X81280952Y-36809523D01*
X81376190Y-36904761D01*
X81519047Y-36952380D01*
X81614285Y-36952380D01*
X80233333Y-36952380D02*
X80804761Y-36952380D01*
X80519047Y-36952380D02*
X80519047Y-35952380D01*
X80614285Y-36095238D01*
X80709523Y-36190476D01*
X80804761Y-36238095D01*
%TO.C,F1*%
X89333333Y-34928571D02*
X89666666Y-34928571D01*
X89666666Y-35452380D02*
X89666666Y-34452380D01*
X89190476Y-34452380D01*
X88285714Y-35452380D02*
X88857142Y-35452380D01*
X88571428Y-35452380D02*
X88571428Y-34452380D01*
X88666666Y-34595238D01*
X88761904Y-34690476D01*
X88857142Y-34738095D01*
%TO.C,D19*%
X129252380Y-132085714D02*
X128252380Y-132085714D01*
X128252380Y-132323809D01*
X128300000Y-132466666D01*
X128395238Y-132561904D01*
X128490476Y-132609523D01*
X128680952Y-132657142D01*
X128823809Y-132657142D01*
X129014285Y-132609523D01*
X129109523Y-132561904D01*
X129204761Y-132466666D01*
X129252380Y-132323809D01*
X129252380Y-132085714D01*
X129252380Y-133609523D02*
X129252380Y-133038095D01*
X129252380Y-133323809D02*
X128252380Y-133323809D01*
X128395238Y-133228571D01*
X128490476Y-133133333D01*
X128538095Y-133038095D01*
X129252380Y-134085714D02*
X129252380Y-134276190D01*
X129204761Y-134371428D01*
X129157142Y-134419047D01*
X129014285Y-134514285D01*
X128823809Y-134561904D01*
X128442857Y-134561904D01*
X128347619Y-134514285D01*
X128300000Y-134466666D01*
X128252380Y-134371428D01*
X128252380Y-134180952D01*
X128300000Y-134085714D01*
X128347619Y-134038095D01*
X128442857Y-133990476D01*
X128680952Y-133990476D01*
X128776190Y-134038095D01*
X128823809Y-134085714D01*
X128871428Y-134180952D01*
X128871428Y-134371428D01*
X128823809Y-134466666D01*
X128776190Y-134514285D01*
X128680952Y-134561904D01*
%TO.C,D18*%
X129352380Y-112985714D02*
X128352380Y-112985714D01*
X128352380Y-113223809D01*
X128400000Y-113366666D01*
X128495238Y-113461904D01*
X128590476Y-113509523D01*
X128780952Y-113557142D01*
X128923809Y-113557142D01*
X129114285Y-113509523D01*
X129209523Y-113461904D01*
X129304761Y-113366666D01*
X129352380Y-113223809D01*
X129352380Y-112985714D01*
X129352380Y-114509523D02*
X129352380Y-113938095D01*
X129352380Y-114223809D02*
X128352380Y-114223809D01*
X128495238Y-114128571D01*
X128590476Y-114033333D01*
X128638095Y-113938095D01*
X128780952Y-115080952D02*
X128733333Y-114985714D01*
X128685714Y-114938095D01*
X128590476Y-114890476D01*
X128542857Y-114890476D01*
X128447619Y-114938095D01*
X128400000Y-114985714D01*
X128352380Y-115080952D01*
X128352380Y-115271428D01*
X128400000Y-115366666D01*
X128447619Y-115414285D01*
X128542857Y-115461904D01*
X128590476Y-115461904D01*
X128685714Y-115414285D01*
X128733333Y-115366666D01*
X128780952Y-115271428D01*
X128780952Y-115080952D01*
X128828571Y-114985714D01*
X128876190Y-114938095D01*
X128971428Y-114890476D01*
X129161904Y-114890476D01*
X129257142Y-114938095D01*
X129304761Y-114985714D01*
X129352380Y-115080952D01*
X129352380Y-115271428D01*
X129304761Y-115366666D01*
X129257142Y-115414285D01*
X129161904Y-115461904D01*
X128971428Y-115461904D01*
X128876190Y-115414285D01*
X128828571Y-115366666D01*
X128780952Y-115271428D01*
%TO.C,D17*%
X129352380Y-94185714D02*
X128352380Y-94185714D01*
X128352380Y-94423809D01*
X128400000Y-94566666D01*
X128495238Y-94661904D01*
X128590476Y-94709523D01*
X128780952Y-94757142D01*
X128923809Y-94757142D01*
X129114285Y-94709523D01*
X129209523Y-94661904D01*
X129304761Y-94566666D01*
X129352380Y-94423809D01*
X129352380Y-94185714D01*
X129352380Y-95709523D02*
X129352380Y-95138095D01*
X129352380Y-95423809D02*
X128352380Y-95423809D01*
X128495238Y-95328571D01*
X128590476Y-95233333D01*
X128638095Y-95138095D01*
X128352380Y-96042857D02*
X128352380Y-96709523D01*
X129352380Y-96280952D01*
%TO.C,D16*%
X129352380Y-74785714D02*
X128352380Y-74785714D01*
X128352380Y-75023809D01*
X128400000Y-75166666D01*
X128495238Y-75261904D01*
X128590476Y-75309523D01*
X128780952Y-75357142D01*
X128923809Y-75357142D01*
X129114285Y-75309523D01*
X129209523Y-75261904D01*
X129304761Y-75166666D01*
X129352380Y-75023809D01*
X129352380Y-74785714D01*
X129352380Y-76309523D02*
X129352380Y-75738095D01*
X129352380Y-76023809D02*
X128352380Y-76023809D01*
X128495238Y-75928571D01*
X128590476Y-75833333D01*
X128638095Y-75738095D01*
X128352380Y-77166666D02*
X128352380Y-76976190D01*
X128400000Y-76880952D01*
X128447619Y-76833333D01*
X128590476Y-76738095D01*
X128780952Y-76690476D01*
X129161904Y-76690476D01*
X129257142Y-76738095D01*
X129304761Y-76785714D01*
X129352380Y-76880952D01*
X129352380Y-77071428D01*
X129304761Y-77166666D01*
X129257142Y-77214285D01*
X129161904Y-77261904D01*
X128923809Y-77261904D01*
X128828571Y-77214285D01*
X128780952Y-77166666D01*
X128733333Y-77071428D01*
X128733333Y-76880952D01*
X128780952Y-76785714D01*
X128828571Y-76738095D01*
X128923809Y-76690476D01*
%TO.C,D15*%
X129352380Y-55985714D02*
X128352380Y-55985714D01*
X128352380Y-56223809D01*
X128400000Y-56366666D01*
X128495238Y-56461904D01*
X128590476Y-56509523D01*
X128780952Y-56557142D01*
X128923809Y-56557142D01*
X129114285Y-56509523D01*
X129209523Y-56461904D01*
X129304761Y-56366666D01*
X129352380Y-56223809D01*
X129352380Y-55985714D01*
X129352380Y-57509523D02*
X129352380Y-56938095D01*
X129352380Y-57223809D02*
X128352380Y-57223809D01*
X128495238Y-57128571D01*
X128590476Y-57033333D01*
X128638095Y-56938095D01*
X128352380Y-58414285D02*
X128352380Y-57938095D01*
X128828571Y-57890476D01*
X128780952Y-57938095D01*
X128733333Y-58033333D01*
X128733333Y-58271428D01*
X128780952Y-58366666D01*
X128828571Y-58414285D01*
X128923809Y-58461904D01*
X129161904Y-58461904D01*
X129257142Y-58414285D01*
X129304761Y-58366666D01*
X129352380Y-58271428D01*
X129352380Y-58033333D01*
X129304761Y-57938095D01*
X129257142Y-57890476D01*
%TO.C,D14*%
X110242380Y-112985714D02*
X109242380Y-112985714D01*
X109242380Y-113223809D01*
X109290000Y-113366666D01*
X109385238Y-113461904D01*
X109480476Y-113509523D01*
X109670952Y-113557142D01*
X109813809Y-113557142D01*
X110004285Y-113509523D01*
X110099523Y-113461904D01*
X110194761Y-113366666D01*
X110242380Y-113223809D01*
X110242380Y-112985714D01*
X110242380Y-114509523D02*
X110242380Y-113938095D01*
X110242380Y-114223809D02*
X109242380Y-114223809D01*
X109385238Y-114128571D01*
X109480476Y-114033333D01*
X109528095Y-113938095D01*
X109575714Y-115366666D02*
X110242380Y-115366666D01*
X109194761Y-115128571D02*
X109909047Y-114890476D01*
X109909047Y-115509523D01*
%TO.C,D13*%
X110242380Y-94185714D02*
X109242380Y-94185714D01*
X109242380Y-94423809D01*
X109290000Y-94566666D01*
X109385238Y-94661904D01*
X109480476Y-94709523D01*
X109670952Y-94757142D01*
X109813809Y-94757142D01*
X110004285Y-94709523D01*
X110099523Y-94661904D01*
X110194761Y-94566666D01*
X110242380Y-94423809D01*
X110242380Y-94185714D01*
X110242380Y-95709523D02*
X110242380Y-95138095D01*
X110242380Y-95423809D02*
X109242380Y-95423809D01*
X109385238Y-95328571D01*
X109480476Y-95233333D01*
X109528095Y-95138095D01*
X109242380Y-96042857D02*
X109242380Y-96661904D01*
X109623333Y-96328571D01*
X109623333Y-96471428D01*
X109670952Y-96566666D01*
X109718571Y-96614285D01*
X109813809Y-96661904D01*
X110051904Y-96661904D01*
X110147142Y-96614285D01*
X110194761Y-96566666D01*
X110242380Y-96471428D01*
X110242380Y-96185714D01*
X110194761Y-96090476D01*
X110147142Y-96042857D01*
%TO.C,D12*%
X110242380Y-74785714D02*
X109242380Y-74785714D01*
X109242380Y-75023809D01*
X109290000Y-75166666D01*
X109385238Y-75261904D01*
X109480476Y-75309523D01*
X109670952Y-75357142D01*
X109813809Y-75357142D01*
X110004285Y-75309523D01*
X110099523Y-75261904D01*
X110194761Y-75166666D01*
X110242380Y-75023809D01*
X110242380Y-74785714D01*
X110242380Y-76309523D02*
X110242380Y-75738095D01*
X110242380Y-76023809D02*
X109242380Y-76023809D01*
X109385238Y-75928571D01*
X109480476Y-75833333D01*
X109528095Y-75738095D01*
X109337619Y-76690476D02*
X109290000Y-76738095D01*
X109242380Y-76833333D01*
X109242380Y-77071428D01*
X109290000Y-77166666D01*
X109337619Y-77214285D01*
X109432857Y-77261904D01*
X109528095Y-77261904D01*
X109670952Y-77214285D01*
X110242380Y-76642857D01*
X110242380Y-77261904D01*
%TO.C,D11*%
X110242380Y-55985714D02*
X109242380Y-55985714D01*
X109242380Y-56223809D01*
X109290000Y-56366666D01*
X109385238Y-56461904D01*
X109480476Y-56509523D01*
X109670952Y-56557142D01*
X109813809Y-56557142D01*
X110004285Y-56509523D01*
X110099523Y-56461904D01*
X110194761Y-56366666D01*
X110242380Y-56223809D01*
X110242380Y-55985714D01*
X110242380Y-57509523D02*
X110242380Y-56938095D01*
X110242380Y-57223809D02*
X109242380Y-57223809D01*
X109385238Y-57128571D01*
X109480476Y-57033333D01*
X109528095Y-56938095D01*
X110242380Y-58461904D02*
X110242380Y-57890476D01*
X110242380Y-58176190D02*
X109242380Y-58176190D01*
X109385238Y-58080952D01*
X109480476Y-57985714D01*
X109528095Y-57890476D01*
%TO.C,D10*%
X100652380Y-131919714D02*
X99652380Y-131919714D01*
X99652380Y-132157809D01*
X99700000Y-132300666D01*
X99795238Y-132395904D01*
X99890476Y-132443523D01*
X100080952Y-132491142D01*
X100223809Y-132491142D01*
X100414285Y-132443523D01*
X100509523Y-132395904D01*
X100604761Y-132300666D01*
X100652380Y-132157809D01*
X100652380Y-131919714D01*
X100652380Y-133443523D02*
X100652380Y-132872095D01*
X100652380Y-133157809D02*
X99652380Y-133157809D01*
X99795238Y-133062571D01*
X99890476Y-132967333D01*
X99938095Y-132872095D01*
X99652380Y-134062571D02*
X99652380Y-134157809D01*
X99700000Y-134253047D01*
X99747619Y-134300666D01*
X99842857Y-134348285D01*
X100033333Y-134395904D01*
X100271428Y-134395904D01*
X100461904Y-134348285D01*
X100557142Y-134300666D01*
X100604761Y-134253047D01*
X100652380Y-134157809D01*
X100652380Y-134062571D01*
X100604761Y-133967333D01*
X100557142Y-133919714D01*
X100461904Y-133872095D01*
X100271428Y-133824476D01*
X100033333Y-133824476D01*
X99842857Y-133872095D01*
X99747619Y-133919714D01*
X99700000Y-133967333D01*
X99652380Y-134062571D01*
%TO.C,D9*%
X91142380Y-113461904D02*
X90142380Y-113461904D01*
X90142380Y-113700000D01*
X90190000Y-113842857D01*
X90285238Y-113938095D01*
X90380476Y-113985714D01*
X90570952Y-114033333D01*
X90713809Y-114033333D01*
X90904285Y-113985714D01*
X90999523Y-113938095D01*
X91094761Y-113842857D01*
X91142380Y-113700000D01*
X91142380Y-113461904D01*
X91142380Y-114509523D02*
X91142380Y-114700000D01*
X91094761Y-114795238D01*
X91047142Y-114842857D01*
X90904285Y-114938095D01*
X90713809Y-114985714D01*
X90332857Y-114985714D01*
X90237619Y-114938095D01*
X90190000Y-114890476D01*
X90142380Y-114795238D01*
X90142380Y-114604761D01*
X90190000Y-114509523D01*
X90237619Y-114461904D01*
X90332857Y-114414285D01*
X90570952Y-114414285D01*
X90666190Y-114461904D01*
X90713809Y-114509523D01*
X90761428Y-114604761D01*
X90761428Y-114795238D01*
X90713809Y-114890476D01*
X90666190Y-114938095D01*
X90570952Y-114985714D01*
%TO.C,D8*%
X91142380Y-94661904D02*
X90142380Y-94661904D01*
X90142380Y-94900000D01*
X90190000Y-95042857D01*
X90285238Y-95138095D01*
X90380476Y-95185714D01*
X90570952Y-95233333D01*
X90713809Y-95233333D01*
X90904285Y-95185714D01*
X90999523Y-95138095D01*
X91094761Y-95042857D01*
X91142380Y-94900000D01*
X91142380Y-94661904D01*
X90570952Y-95804761D02*
X90523333Y-95709523D01*
X90475714Y-95661904D01*
X90380476Y-95614285D01*
X90332857Y-95614285D01*
X90237619Y-95661904D01*
X90190000Y-95709523D01*
X90142380Y-95804761D01*
X90142380Y-95995238D01*
X90190000Y-96090476D01*
X90237619Y-96138095D01*
X90332857Y-96185714D01*
X90380476Y-96185714D01*
X90475714Y-96138095D01*
X90523333Y-96090476D01*
X90570952Y-95995238D01*
X90570952Y-95804761D01*
X90618571Y-95709523D01*
X90666190Y-95661904D01*
X90761428Y-95614285D01*
X90951904Y-95614285D01*
X91047142Y-95661904D01*
X91094761Y-95709523D01*
X91142380Y-95804761D01*
X91142380Y-95995238D01*
X91094761Y-96090476D01*
X91047142Y-96138095D01*
X90951904Y-96185714D01*
X90761428Y-96185714D01*
X90666190Y-96138095D01*
X90618571Y-96090476D01*
X90570952Y-95995238D01*
%TO.C,D7*%
X91142380Y-75261904D02*
X90142380Y-75261904D01*
X90142380Y-75500000D01*
X90190000Y-75642857D01*
X90285238Y-75738095D01*
X90380476Y-75785714D01*
X90570952Y-75833333D01*
X90713809Y-75833333D01*
X90904285Y-75785714D01*
X90999523Y-75738095D01*
X91094761Y-75642857D01*
X91142380Y-75500000D01*
X91142380Y-75261904D01*
X90142380Y-76166666D02*
X90142380Y-76833333D01*
X91142380Y-76404761D01*
%TO.C,D6*%
X91142380Y-56461904D02*
X90142380Y-56461904D01*
X90142380Y-56700000D01*
X90190000Y-56842857D01*
X90285238Y-56938095D01*
X90380476Y-56985714D01*
X90570952Y-57033333D01*
X90713809Y-57033333D01*
X90904285Y-56985714D01*
X90999523Y-56938095D01*
X91094761Y-56842857D01*
X91142380Y-56700000D01*
X91142380Y-56461904D01*
X90142380Y-57890476D02*
X90142380Y-57700000D01*
X90190000Y-57604761D01*
X90237619Y-57557142D01*
X90380476Y-57461904D01*
X90570952Y-57414285D01*
X90951904Y-57414285D01*
X91047142Y-57461904D01*
X91094761Y-57509523D01*
X91142380Y-57604761D01*
X91142380Y-57795238D01*
X91094761Y-57890476D01*
X91047142Y-57938095D01*
X90951904Y-57985714D01*
X90713809Y-57985714D01*
X90618571Y-57938095D01*
X90570952Y-57890476D01*
X90523333Y-57795238D01*
X90523333Y-57604761D01*
X90570952Y-57509523D01*
X90618571Y-57461904D01*
X90713809Y-57414285D01*
%TO.C,D5*%
X71942380Y-132561904D02*
X70942380Y-132561904D01*
X70942380Y-132800000D01*
X70990000Y-132942857D01*
X71085238Y-133038095D01*
X71180476Y-133085714D01*
X71370952Y-133133333D01*
X71513809Y-133133333D01*
X71704285Y-133085714D01*
X71799523Y-133038095D01*
X71894761Y-132942857D01*
X71942380Y-132800000D01*
X71942380Y-132561904D01*
X70942380Y-134038095D02*
X70942380Y-133561904D01*
X71418571Y-133514285D01*
X71370952Y-133561904D01*
X71323333Y-133657142D01*
X71323333Y-133895238D01*
X71370952Y-133990476D01*
X71418571Y-134038095D01*
X71513809Y-134085714D01*
X71751904Y-134085714D01*
X71847142Y-134038095D01*
X71894761Y-133990476D01*
X71942380Y-133895238D01*
X71942380Y-133657142D01*
X71894761Y-133561904D01*
X71847142Y-133514285D01*
%TO.C,D4*%
X72042380Y-113461904D02*
X71042380Y-113461904D01*
X71042380Y-113700000D01*
X71090000Y-113842857D01*
X71185238Y-113938095D01*
X71280476Y-113985714D01*
X71470952Y-114033333D01*
X71613809Y-114033333D01*
X71804285Y-113985714D01*
X71899523Y-113938095D01*
X71994761Y-113842857D01*
X72042380Y-113700000D01*
X72042380Y-113461904D01*
X71375714Y-114890476D02*
X72042380Y-114890476D01*
X70994761Y-114652380D02*
X71709047Y-114414285D01*
X71709047Y-115033333D01*
%TO.C,D3*%
X72042380Y-94661904D02*
X71042380Y-94661904D01*
X71042380Y-94900000D01*
X71090000Y-95042857D01*
X71185238Y-95138095D01*
X71280476Y-95185714D01*
X71470952Y-95233333D01*
X71613809Y-95233333D01*
X71804285Y-95185714D01*
X71899523Y-95138095D01*
X71994761Y-95042857D01*
X72042380Y-94900000D01*
X72042380Y-94661904D01*
X71042380Y-95566666D02*
X71042380Y-96185714D01*
X71423333Y-95852380D01*
X71423333Y-95995238D01*
X71470952Y-96090476D01*
X71518571Y-96138095D01*
X71613809Y-96185714D01*
X71851904Y-96185714D01*
X71947142Y-96138095D01*
X71994761Y-96090476D01*
X72042380Y-95995238D01*
X72042380Y-95709523D01*
X71994761Y-95614285D01*
X71947142Y-95566666D01*
%TO.C,D2*%
X72082380Y-75181904D02*
X71082380Y-75181904D01*
X71082380Y-75420000D01*
X71130000Y-75562857D01*
X71225238Y-75658095D01*
X71320476Y-75705714D01*
X71510952Y-75753333D01*
X71653809Y-75753333D01*
X71844285Y-75705714D01*
X71939523Y-75658095D01*
X72034761Y-75562857D01*
X72082380Y-75420000D01*
X72082380Y-75181904D01*
X71177619Y-76134285D02*
X71130000Y-76181904D01*
X71082380Y-76277142D01*
X71082380Y-76515238D01*
X71130000Y-76610476D01*
X71177619Y-76658095D01*
X71272857Y-76705714D01*
X71368095Y-76705714D01*
X71510952Y-76658095D01*
X72082380Y-76086666D01*
X72082380Y-76705714D01*
%TO.C,D1*%
X72042380Y-56461904D02*
X71042380Y-56461904D01*
X71042380Y-56700000D01*
X71090000Y-56842857D01*
X71185238Y-56938095D01*
X71280476Y-56985714D01*
X71470952Y-57033333D01*
X71613809Y-57033333D01*
X71804285Y-56985714D01*
X71899523Y-56938095D01*
X71994761Y-56842857D01*
X72042380Y-56700000D01*
X72042380Y-56461904D01*
X72042380Y-57985714D02*
X72042380Y-57414285D01*
X72042380Y-57700000D02*
X71042380Y-57700000D01*
X71185238Y-57604761D01*
X71280476Y-57509523D01*
X71328095Y-57414285D01*
%TO.C,C7*%
X132916666Y-45457142D02*
X132964285Y-45504761D01*
X133107142Y-45552380D01*
X133202380Y-45552380D01*
X133345238Y-45504761D01*
X133440476Y-45409523D01*
X133488095Y-45314285D01*
X133535714Y-45123809D01*
X133535714Y-44980952D01*
X133488095Y-44790476D01*
X133440476Y-44695238D01*
X133345238Y-44600000D01*
X133202380Y-44552380D01*
X133107142Y-44552380D01*
X132964285Y-44600000D01*
X132916666Y-44647619D01*
X132583333Y-44552380D02*
X131916666Y-44552380D01*
X132345238Y-45552380D01*
%TO.C,C6*%
X132716666Y-36557142D02*
X132764285Y-36604761D01*
X132907142Y-36652380D01*
X133002380Y-36652380D01*
X133145238Y-36604761D01*
X133240476Y-36509523D01*
X133288095Y-36414285D01*
X133335714Y-36223809D01*
X133335714Y-36080952D01*
X133288095Y-35890476D01*
X133240476Y-35795238D01*
X133145238Y-35700000D01*
X133002380Y-35652380D01*
X132907142Y-35652380D01*
X132764285Y-35700000D01*
X132716666Y-35747619D01*
X131859523Y-35652380D02*
X132050000Y-35652380D01*
X132145238Y-35700000D01*
X132192857Y-35747619D01*
X132288095Y-35890476D01*
X132335714Y-36080952D01*
X132335714Y-36461904D01*
X132288095Y-36557142D01*
X132240476Y-36604761D01*
X132145238Y-36652380D01*
X131954761Y-36652380D01*
X131859523Y-36604761D01*
X131811904Y-36557142D01*
X131764285Y-36461904D01*
X131764285Y-36223809D01*
X131811904Y-36128571D01*
X131859523Y-36080952D01*
X131954761Y-36033333D01*
X132145238Y-36033333D01*
X132240476Y-36080952D01*
X132288095Y-36128571D01*
X132335714Y-36223809D01*
%TO.C,C5*%
X132916666Y-43257142D02*
X132964285Y-43304761D01*
X133107142Y-43352380D01*
X133202380Y-43352380D01*
X133345238Y-43304761D01*
X133440476Y-43209523D01*
X133488095Y-43114285D01*
X133535714Y-42923809D01*
X133535714Y-42780952D01*
X133488095Y-42590476D01*
X133440476Y-42495238D01*
X133345238Y-42400000D01*
X133202380Y-42352380D01*
X133107142Y-42352380D01*
X132964285Y-42400000D01*
X132916666Y-42447619D01*
X132011904Y-42352380D02*
X132488095Y-42352380D01*
X132535714Y-42828571D01*
X132488095Y-42780952D01*
X132392857Y-42733333D01*
X132154761Y-42733333D01*
X132059523Y-42780952D01*
X132011904Y-42828571D01*
X131964285Y-42923809D01*
X131964285Y-43161904D01*
X132011904Y-43257142D01*
X132059523Y-43304761D01*
X132154761Y-43352380D01*
X132392857Y-43352380D01*
X132488095Y-43304761D01*
X132535714Y-43257142D01*
%TO.C,C4*%
X132916666Y-41057142D02*
X132964285Y-41104761D01*
X133107142Y-41152380D01*
X133202380Y-41152380D01*
X133345238Y-41104761D01*
X133440476Y-41009523D01*
X133488095Y-40914285D01*
X133535714Y-40723809D01*
X133535714Y-40580952D01*
X133488095Y-40390476D01*
X133440476Y-40295238D01*
X133345238Y-40200000D01*
X133202380Y-40152380D01*
X133107142Y-40152380D01*
X132964285Y-40200000D01*
X132916666Y-40247619D01*
X132059523Y-40485714D02*
X132059523Y-41152380D01*
X132297619Y-40104761D02*
X132535714Y-40819047D01*
X131916666Y-40819047D01*
%TO.C,C3*%
X98666666Y-50437142D02*
X98714285Y-50484761D01*
X98857142Y-50532380D01*
X98952380Y-50532380D01*
X99095238Y-50484761D01*
X99190476Y-50389523D01*
X99238095Y-50294285D01*
X99285714Y-50103809D01*
X99285714Y-49960952D01*
X99238095Y-49770476D01*
X99190476Y-49675238D01*
X99095238Y-49580000D01*
X98952380Y-49532380D01*
X98857142Y-49532380D01*
X98714285Y-49580000D01*
X98666666Y-49627619D01*
X98333333Y-49532380D02*
X97714285Y-49532380D01*
X98047619Y-49913333D01*
X97904761Y-49913333D01*
X97809523Y-49960952D01*
X97761904Y-50008571D01*
X97714285Y-50103809D01*
X97714285Y-50341904D01*
X97761904Y-50437142D01*
X97809523Y-50484761D01*
X97904761Y-50532380D01*
X98190476Y-50532380D01*
X98285714Y-50484761D01*
X98333333Y-50437142D01*
%TO.C,C2*%
X95657142Y-42633333D02*
X95704761Y-42585714D01*
X95752380Y-42442857D01*
X95752380Y-42347619D01*
X95704761Y-42204761D01*
X95609523Y-42109523D01*
X95514285Y-42061904D01*
X95323809Y-42014285D01*
X95180952Y-42014285D01*
X94990476Y-42061904D01*
X94895238Y-42109523D01*
X94800000Y-42204761D01*
X94752380Y-42347619D01*
X94752380Y-42442857D01*
X94800000Y-42585714D01*
X94847619Y-42633333D01*
X94847619Y-43014285D02*
X94800000Y-43061904D01*
X94752380Y-43157142D01*
X94752380Y-43395238D01*
X94800000Y-43490476D01*
X94847619Y-43538095D01*
X94942857Y-43585714D01*
X95038095Y-43585714D01*
X95180952Y-43538095D01*
X95752380Y-42966666D01*
X95752380Y-43585714D01*
D12*
%TO.C,REF\u002A\u002A*%
X78190986Y-132852998D02*
X78032994Y-132853863D01*
X78032994Y-132853863D02*
X77918653Y-132856205D01*
X77918653Y-132856205D02*
X77840593Y-132860762D01*
X77840593Y-132860762D02*
X77791446Y-132868270D01*
X77791446Y-132868270D02*
X77763841Y-132879466D01*
X77763841Y-132879466D02*
X77750408Y-132895088D01*
X77750408Y-132895088D02*
X77743779Y-132915873D01*
X77743779Y-132915873D02*
X77743135Y-132918563D01*
X77743135Y-132918563D02*
X77733065Y-132967113D01*
X77733065Y-132967113D02*
X77714425Y-133062905D01*
X77714425Y-133062905D02*
X77689155Y-133195743D01*
X77689155Y-133195743D02*
X77659193Y-133355431D01*
X77659193Y-133355431D02*
X77626478Y-133531774D01*
X77626478Y-133531774D02*
X77625336Y-133537967D01*
X77625336Y-133537967D02*
X77592567Y-133710782D01*
X77592567Y-133710782D02*
X77561907Y-133863469D01*
X77561907Y-133863469D02*
X77535336Y-133986871D01*
X77535336Y-133986871D02*
X77514833Y-134071831D01*
X77514833Y-134071831D02*
X77502374Y-134109190D01*
X77502374Y-134109190D02*
X77501780Y-134109852D01*
X77501780Y-134109852D02*
X77465081Y-134128095D01*
X77465081Y-134128095D02*
X77389414Y-134158497D01*
X77389414Y-134158497D02*
X77291122Y-134194493D01*
X77291122Y-134194493D02*
X77290575Y-134194685D01*
X77290575Y-134194685D02*
X77166767Y-134241222D01*
X77166767Y-134241222D02*
X77020804Y-134300504D01*
X77020804Y-134300504D02*
X76883219Y-134360109D01*
X76883219Y-134360109D02*
X76876707Y-134363056D01*
X76876707Y-134363056D02*
X76652610Y-134464765D01*
X76652610Y-134464765D02*
X76156381Y-134125897D01*
X76156381Y-134125897D02*
X76004154Y-134022592D01*
X76004154Y-134022592D02*
X75866259Y-133930237D01*
X75866259Y-133930237D02*
X75750685Y-133854084D01*
X75750685Y-133854084D02*
X75665421Y-133799385D01*
X75665421Y-133799385D02*
X75618456Y-133771393D01*
X75618456Y-133771393D02*
X75613996Y-133769317D01*
X75613996Y-133769317D02*
X75579866Y-133778560D01*
X75579866Y-133778560D02*
X75516119Y-133823156D01*
X75516119Y-133823156D02*
X75420269Y-133905209D01*
X75420269Y-133905209D02*
X75289831Y-134026821D01*
X75289831Y-134026821D02*
X75156672Y-134156205D01*
X75156672Y-134156205D02*
X75028306Y-134283702D01*
X75028306Y-134283702D02*
X74913419Y-134400046D01*
X74913419Y-134400046D02*
X74818927Y-134498052D01*
X74818927Y-134498052D02*
X74751747Y-134570536D01*
X74751747Y-134570536D02*
X74718794Y-134610313D01*
X74718794Y-134610313D02*
X74717568Y-134612361D01*
X74717568Y-134612361D02*
X74713926Y-134639656D01*
X74713926Y-134639656D02*
X74727650Y-134684234D01*
X74727650Y-134684234D02*
X74762131Y-134752112D01*
X74762131Y-134752112D02*
X74820761Y-134849311D01*
X74820761Y-134849311D02*
X74906930Y-134981851D01*
X74906930Y-134981851D02*
X75021800Y-135152476D01*
X75021800Y-135152476D02*
X75123746Y-135302655D01*
X75123746Y-135302655D02*
X75214877Y-135437350D01*
X75214877Y-135437350D02*
X75289927Y-135548740D01*
X75289927Y-135548740D02*
X75343631Y-135629005D01*
X75343631Y-135629005D02*
X75370720Y-135670325D01*
X75370720Y-135670325D02*
X75372426Y-135673130D01*
X75372426Y-135673130D02*
X75369118Y-135712721D01*
X75369118Y-135712721D02*
X75344047Y-135789669D01*
X75344047Y-135789669D02*
X75302202Y-135889432D01*
X75302202Y-135889432D02*
X75287288Y-135921291D01*
X75287288Y-135921291D02*
X75222214Y-136063226D01*
X75222214Y-136063226D02*
X75152788Y-136224273D01*
X75152788Y-136224273D02*
X75096391Y-136363621D01*
X75096391Y-136363621D02*
X75055753Y-136467044D01*
X75055753Y-136467044D02*
X75023474Y-136545642D01*
X75023474Y-136545642D02*
X75004822Y-136586720D01*
X75004822Y-136586720D02*
X75002503Y-136589885D01*
X75002503Y-136589885D02*
X74968197Y-136595128D01*
X74968197Y-136595128D02*
X74887331Y-136609494D01*
X74887331Y-136609494D02*
X74770657Y-136630937D01*
X74770657Y-136630937D02*
X74628925Y-136657413D01*
X74628925Y-136657413D02*
X74472890Y-136686877D01*
X74472890Y-136686877D02*
X74313302Y-136717283D01*
X74313302Y-136717283D02*
X74160915Y-136746588D01*
X74160915Y-136746588D02*
X74026479Y-136772745D01*
X74026479Y-136772745D02*
X73920748Y-136793710D01*
X73920748Y-136793710D02*
X73854474Y-136807439D01*
X73854474Y-136807439D02*
X73838218Y-136811320D01*
X73838218Y-136811320D02*
X73821427Y-136820900D01*
X73821427Y-136820900D02*
X73808751Y-136842536D01*
X73808751Y-136842536D02*
X73799622Y-136883531D01*
X73799622Y-136883531D02*
X73793469Y-136951189D01*
X73793469Y-136951189D02*
X73789720Y-137052812D01*
X73789720Y-137052812D02*
X73787808Y-137195703D01*
X73787808Y-137195703D02*
X73787160Y-137387165D01*
X73787160Y-137387165D02*
X73787126Y-137465645D01*
X73787126Y-137465645D02*
X73787126Y-138103906D01*
X73787126Y-138103906D02*
X73940402Y-138134160D01*
X73940402Y-138134160D02*
X74025678Y-138150564D01*
X74025678Y-138150564D02*
X74152930Y-138174509D01*
X74152930Y-138174509D02*
X74306685Y-138203107D01*
X74306685Y-138203107D02*
X74471466Y-138233467D01*
X74471466Y-138233467D02*
X74517011Y-138241806D01*
X74517011Y-138241806D02*
X74669068Y-138271370D01*
X74669068Y-138271370D02*
X74801532Y-138300442D01*
X74801532Y-138300442D02*
X74903286Y-138326329D01*
X74903286Y-138326329D02*
X74963212Y-138346337D01*
X74963212Y-138346337D02*
X74973195Y-138352301D01*
X74973195Y-138352301D02*
X74997707Y-138394534D01*
X74997707Y-138394534D02*
X75032852Y-138476370D01*
X75032852Y-138476370D02*
X75071827Y-138581683D01*
X75071827Y-138581683D02*
X75079558Y-138604368D01*
X75079558Y-138604368D02*
X75130640Y-138745018D01*
X75130640Y-138745018D02*
X75194046Y-138903714D01*
X75194046Y-138903714D02*
X75256096Y-139046225D01*
X75256096Y-139046225D02*
X75256402Y-139046886D01*
X75256402Y-139046886D02*
X75359733Y-139270440D01*
X75359733Y-139270440D02*
X74680039Y-140270232D01*
X74680039Y-140270232D02*
X75116379Y-140707300D01*
X75116379Y-140707300D02*
X75248351Y-140837381D01*
X75248351Y-140837381D02*
X75368721Y-140952048D01*
X75368721Y-140952048D02*
X75470727Y-141045181D01*
X75470727Y-141045181D02*
X75547609Y-141110658D01*
X75547609Y-141110658D02*
X75592607Y-141142357D01*
X75592607Y-141142357D02*
X75599062Y-141144368D01*
X75599062Y-141144368D02*
X75636960Y-141128529D01*
X75636960Y-141128529D02*
X75714292Y-141084496D01*
X75714292Y-141084496D02*
X75822611Y-141017490D01*
X75822611Y-141017490D02*
X75953468Y-140932734D01*
X75953468Y-140932734D02*
X76094948Y-140837816D01*
X76094948Y-140837816D02*
X76238539Y-140740998D01*
X76238539Y-140740998D02*
X76366565Y-140656751D01*
X76366565Y-140656751D02*
X76470895Y-140590258D01*
X76470895Y-140590258D02*
X76543400Y-140546702D01*
X76543400Y-140546702D02*
X76575842Y-140531264D01*
X76575842Y-140531264D02*
X76615424Y-140544328D01*
X76615424Y-140544328D02*
X76690481Y-140578750D01*
X76690481Y-140578750D02*
X76785532Y-140627380D01*
X76785532Y-140627380D02*
X76795608Y-140632785D01*
X76795608Y-140632785D02*
X76923609Y-140696980D01*
X76923609Y-140696980D02*
X77011382Y-140728463D01*
X77011382Y-140728463D02*
X77065972Y-140728798D01*
X77065972Y-140728798D02*
X77094425Y-140699548D01*
X77094425Y-140699548D02*
X77094590Y-140699138D01*
X77094590Y-140699138D02*
X77108812Y-140664498D01*
X77108812Y-140664498D02*
X77142731Y-140582269D01*
X77142731Y-140582269D02*
X77193716Y-140458814D01*
X77193716Y-140458814D02*
X77259138Y-140300498D01*
X77259138Y-140300498D02*
X77336366Y-140113686D01*
X77336366Y-140113686D02*
X77422771Y-139904742D01*
X77422771Y-139904742D02*
X77506449Y-139702446D01*
X77506449Y-139702446D02*
X77598412Y-139479200D01*
X77598412Y-139479200D02*
X77682850Y-139272392D01*
X77682850Y-139272392D02*
X77757231Y-139088362D01*
X77757231Y-139088362D02*
X77819026Y-138933451D01*
X77819026Y-138933451D02*
X77865703Y-138813996D01*
X77865703Y-138813996D02*
X77894732Y-138736339D01*
X77894732Y-138736339D02*
X77903678Y-138707356D01*
X77903678Y-138707356D02*
X77881244Y-138674110D01*
X77881244Y-138674110D02*
X77822561Y-138621123D01*
X77822561Y-138621123D02*
X77744311Y-138562704D01*
X77744311Y-138562704D02*
X77521466Y-138377952D01*
X77521466Y-138377952D02*
X77347282Y-138166182D01*
X77347282Y-138166182D02*
X77223846Y-137931856D01*
X77223846Y-137931856D02*
X77153246Y-137679434D01*
X77153246Y-137679434D02*
X77137569Y-137413377D01*
X77137569Y-137413377D02*
X77148964Y-137290575D01*
X77148964Y-137290575D02*
X77211050Y-137035793D01*
X77211050Y-137035793D02*
X77317977Y-136810801D01*
X77317977Y-136810801D02*
X77463111Y-136617817D01*
X77463111Y-136617817D02*
X77639822Y-136459061D01*
X77639822Y-136459061D02*
X77841478Y-136336750D01*
X77841478Y-136336750D02*
X78061446Y-136253105D01*
X78061446Y-136253105D02*
X78293094Y-136210344D01*
X78293094Y-136210344D02*
X78529791Y-136210687D01*
X78529791Y-136210687D02*
X78764905Y-136256352D01*
X78764905Y-136256352D02*
X78991804Y-136349559D01*
X78991804Y-136349559D02*
X79203856Y-136492527D01*
X79203856Y-136492527D02*
X79292364Y-136573383D01*
X79292364Y-136573383D02*
X79462111Y-136781007D01*
X79462111Y-136781007D02*
X79580301Y-137007895D01*
X79580301Y-137007895D02*
X79647722Y-137247433D01*
X79647722Y-137247433D02*
X79665160Y-137493007D01*
X79665160Y-137493007D02*
X79633402Y-137738003D01*
X79633402Y-137738003D02*
X79553235Y-137975808D01*
X79553235Y-137975808D02*
X79425445Y-138199807D01*
X79425445Y-138199807D02*
X79250820Y-138403387D01*
X79250820Y-138403387D02*
X79055688Y-138562704D01*
X79055688Y-138562704D02*
X78974409Y-138623602D01*
X78974409Y-138623602D02*
X78916991Y-138676015D01*
X78916991Y-138676015D02*
X78896322Y-138707406D01*
X78896322Y-138707406D02*
X78907144Y-138741639D01*
X78907144Y-138741639D02*
X78937923Y-138823419D01*
X78937923Y-138823419D02*
X78986126Y-138946407D01*
X78986126Y-138946407D02*
X79049222Y-139104263D01*
X79049222Y-139104263D02*
X79124678Y-139290649D01*
X79124678Y-139290649D02*
X79209962Y-139499226D01*
X79209962Y-139499226D02*
X79293781Y-139702496D01*
X79293781Y-139702496D02*
X79386255Y-139925933D01*
X79386255Y-139925933D02*
X79471911Y-140132984D01*
X79471911Y-140132984D02*
X79548118Y-140317286D01*
X79548118Y-140317286D02*
X79612247Y-140472475D01*
X79612247Y-140472475D02*
X79661668Y-140592188D01*
X79661668Y-140592188D02*
X79693752Y-140670061D01*
X79693752Y-140670061D02*
X79705641Y-140699138D01*
X79705641Y-140699138D02*
X79733726Y-140728677D01*
X79733726Y-140728677D02*
X79788051Y-140728591D01*
X79788051Y-140728591D02*
X79875605Y-140697326D01*
X79875605Y-140697326D02*
X80003381Y-140633329D01*
X80003381Y-140633329D02*
X80004392Y-140632785D01*
X80004392Y-140632785D02*
X80100598Y-140583121D01*
X80100598Y-140583121D02*
X80178369Y-140546945D01*
X80178369Y-140546945D02*
X80222223Y-140531408D01*
X80222223Y-140531408D02*
X80224158Y-140531264D01*
X80224158Y-140531264D02*
X80257171Y-140547024D01*
X80257171Y-140547024D02*
X80330054Y-140590850D01*
X80330054Y-140590850D02*
X80434678Y-140657557D01*
X80434678Y-140657557D02*
X80562910Y-140741964D01*
X80562910Y-140741964D02*
X80705052Y-140837816D01*
X80705052Y-140837816D02*
X80849767Y-140934867D01*
X80849767Y-140934867D02*
X80980196Y-141019270D01*
X80980196Y-141019270D02*
X81087890Y-141085801D01*
X81087890Y-141085801D02*
X81164402Y-141129238D01*
X81164402Y-141129238D02*
X81200938Y-141144368D01*
X81200938Y-141144368D02*
X81234582Y-141124482D01*
X81234582Y-141124482D02*
X81302224Y-141068903D01*
X81302224Y-141068903D02*
X81397107Y-140983754D01*
X81397107Y-140983754D02*
X81512470Y-140875153D01*
X81512470Y-140875153D02*
X81641555Y-140749221D01*
X81641555Y-140749221D02*
X81683771Y-140707149D01*
X81683771Y-140707149D02*
X82120261Y-140269931D01*
X82120261Y-140269931D02*
X81788023Y-139782340D01*
X81788023Y-139782340D02*
X81687054Y-139632605D01*
X81687054Y-139632605D02*
X81598438Y-139498220D01*
X81598438Y-139498220D02*
X81527146Y-139386969D01*
X81527146Y-139386969D02*
X81478150Y-139306639D01*
X81478150Y-139306639D02*
X81456422Y-139265014D01*
X81456422Y-139265014D02*
X81455785Y-139262053D01*
X81455785Y-139262053D02*
X81467240Y-139222818D01*
X81467240Y-139222818D02*
X81498051Y-139143895D01*
X81498051Y-139143895D02*
X81542884Y-139038509D01*
X81542884Y-139038509D02*
X81574353Y-138967954D01*
X81574353Y-138967954D02*
X81633192Y-138832876D01*
X81633192Y-138832876D02*
X81688604Y-138696409D01*
X81688604Y-138696409D02*
X81731564Y-138581103D01*
X81731564Y-138581103D02*
X81743234Y-138545977D01*
X81743234Y-138545977D02*
X81776389Y-138452174D01*
X81776389Y-138452174D02*
X81808799Y-138379694D01*
X81808799Y-138379694D02*
X81826601Y-138352301D01*
X81826601Y-138352301D02*
X81865886Y-138335536D01*
X81865886Y-138335536D02*
X81951626Y-138311770D01*
X81951626Y-138311770D02*
X82072697Y-138283697D01*
X82072697Y-138283697D02*
X82217973Y-138254009D01*
X82217973Y-138254009D02*
X82282988Y-138241806D01*
X82282988Y-138241806D02*
X82448087Y-138211468D01*
X82448087Y-138211468D02*
X82606448Y-138182093D01*
X82606448Y-138182093D02*
X82742596Y-138156569D01*
X82742596Y-138156569D02*
X82841057Y-138137785D01*
X82841057Y-138137785D02*
X82859598Y-138134160D01*
X82859598Y-138134160D02*
X83012873Y-138103906D01*
X83012873Y-138103906D02*
X83012873Y-137465645D01*
X83012873Y-137465645D02*
X83012529Y-137255770D01*
X83012529Y-137255770D02*
X83011116Y-137096980D01*
X83011116Y-137096980D02*
X83008064Y-136981973D01*
X83008064Y-136981973D02*
X83002803Y-136903446D01*
X83002803Y-136903446D02*
X82994763Y-136854096D01*
X82994763Y-136854096D02*
X82983373Y-136826619D01*
X82983373Y-136826619D02*
X82968063Y-136813713D01*
X82968063Y-136813713D02*
X82961782Y-136811320D01*
X82961782Y-136811320D02*
X82923896Y-136802833D01*
X82923896Y-136802833D02*
X82840195Y-136785900D01*
X82840195Y-136785900D02*
X82721433Y-136762566D01*
X82721433Y-136762566D02*
X82578361Y-136734875D01*
X82578361Y-136734875D02*
X82421732Y-136704873D01*
X82421732Y-136704873D02*
X82262297Y-136674604D01*
X82262297Y-136674604D02*
X82110809Y-136646115D01*
X82110809Y-136646115D02*
X81978019Y-136621449D01*
X81978019Y-136621449D02*
X81874681Y-136602651D01*
X81874681Y-136602651D02*
X81811545Y-136591767D01*
X81811545Y-136591767D02*
X81797497Y-136589885D01*
X81797497Y-136589885D02*
X81784770Y-136564704D01*
X81784770Y-136564704D02*
X81756600Y-136497622D01*
X81756600Y-136497622D02*
X81718252Y-136401333D01*
X81718252Y-136401333D02*
X81703609Y-136363621D01*
X81703609Y-136363621D02*
X81644548Y-136217921D01*
X81644548Y-136217921D02*
X81575000Y-136056951D01*
X81575000Y-136056951D02*
X81512712Y-135921291D01*
X81512712Y-135921291D02*
X81466879Y-135817561D01*
X81466879Y-135817561D02*
X81436387Y-135732326D01*
X81436387Y-135732326D02*
X81426208Y-135680126D01*
X81426208Y-135680126D02*
X81427831Y-135673130D01*
X81427831Y-135673130D02*
X81449343Y-135640102D01*
X81449343Y-135640102D02*
X81498465Y-135566643D01*
X81498465Y-135566643D02*
X81569923Y-135460577D01*
X81569923Y-135460577D02*
X81658445Y-135329726D01*
X81658445Y-135329726D02*
X81758759Y-135181912D01*
X81758759Y-135181912D02*
X81778594Y-135152734D01*
X81778594Y-135152734D02*
X81894988Y-134979863D01*
X81894988Y-134979863D02*
X81980548Y-134848226D01*
X81980548Y-134848226D02*
X82038684Y-134751761D01*
X82038684Y-134751761D02*
X82072808Y-134684408D01*
X82072808Y-134684408D02*
X82086331Y-134640106D01*
X82086331Y-134640106D02*
X82082664Y-134612794D01*
X82082664Y-134612794D02*
X82082570Y-134612620D01*
X82082570Y-134612620D02*
X82053707Y-134576746D01*
X82053707Y-134576746D02*
X81989867Y-134507391D01*
X81989867Y-134507391D02*
X81897969Y-134411745D01*
X81897969Y-134411745D02*
X81784933Y-134296999D01*
X81784933Y-134296999D02*
X81657679Y-134170341D01*
X81657679Y-134170341D02*
X81643328Y-134156205D01*
X81643328Y-134156205D02*
X81482957Y-134000903D01*
X81482957Y-134000903D02*
X81359195Y-133886870D01*
X81359195Y-133886870D02*
X81269555Y-133812002D01*
X81269555Y-133812002D02*
X81211552Y-133774196D01*
X81211552Y-133774196D02*
X81186004Y-133769317D01*
X81186004Y-133769317D02*
X81148718Y-133790603D01*
X81148718Y-133790603D02*
X81071343Y-133839773D01*
X81071343Y-133839773D02*
X80961867Y-133911575D01*
X80961867Y-133911575D02*
X80828280Y-134000755D01*
X80828280Y-134000755D02*
X80678570Y-134102063D01*
X80678570Y-134102063D02*
X80643618Y-134125897D01*
X80643618Y-134125897D02*
X80147390Y-134464765D01*
X80147390Y-134464765D02*
X79923293Y-134363056D01*
X79923293Y-134363056D02*
X79787011Y-134303783D01*
X79787011Y-134303783D02*
X79640724Y-134244170D01*
X79640724Y-134244170D02*
X79514965Y-134196640D01*
X79514965Y-134196640D02*
X79509425Y-134194685D01*
X79509425Y-134194685D02*
X79411057Y-134158677D01*
X79411057Y-134158677D02*
X79335229Y-134128229D01*
X79335229Y-134128229D02*
X79298282Y-134109905D01*
X79298282Y-134109905D02*
X79298220Y-134109852D01*
X79298220Y-134109852D02*
X79286496Y-134076729D01*
X79286496Y-134076729D02*
X79266568Y-133995267D01*
X79266568Y-133995267D02*
X79240413Y-133874625D01*
X79240413Y-133874625D02*
X79210010Y-133723959D01*
X79210010Y-133723959D02*
X79177337Y-133552428D01*
X79177337Y-133552428D02*
X79174664Y-133537967D01*
X79174664Y-133537967D02*
X79141890Y-133361235D01*
X79141890Y-133361235D02*
X79111802Y-133200810D01*
X79111802Y-133200810D02*
X79086339Y-133066888D01*
X79086339Y-133066888D02*
X79067441Y-132969663D01*
X79067441Y-132969663D02*
X79057047Y-132919332D01*
X79057047Y-132919332D02*
X79056865Y-132918563D01*
X79056865Y-132918563D02*
X79050539Y-132897153D01*
X79050539Y-132897153D02*
X79038239Y-132880988D01*
X79038239Y-132880988D02*
X79012594Y-132869331D01*
X79012594Y-132869331D02*
X78966235Y-132861445D01*
X78966235Y-132861445D02*
X78891792Y-132856593D01*
X78891792Y-132856593D02*
X78781895Y-132854039D01*
X78781895Y-132854039D02*
X78629175Y-132853045D01*
X78629175Y-132853045D02*
X78426262Y-132852874D01*
X78426262Y-132852874D02*
X78400000Y-132852874D01*
X78400000Y-132852874D02*
X78190986Y-132852998D01*
X78190986Y-132852998D02*
X78190986Y-132852998D01*
G36*
X78629175Y-132853045D02*
G01*
X78781895Y-132854039D01*
X78891792Y-132856593D01*
X78966235Y-132861445D01*
X79012594Y-132869331D01*
X79038239Y-132880988D01*
X79050539Y-132897153D01*
X79056865Y-132918563D01*
X79057047Y-132919332D01*
X79067441Y-132969663D01*
X79086339Y-133066888D01*
X79111802Y-133200810D01*
X79141890Y-133361235D01*
X79174664Y-133537967D01*
X79177337Y-133552428D01*
X79210010Y-133723959D01*
X79240413Y-133874625D01*
X79266568Y-133995267D01*
X79286496Y-134076729D01*
X79298220Y-134109852D01*
X79298282Y-134109905D01*
X79335229Y-134128229D01*
X79411057Y-134158677D01*
X79509425Y-134194685D01*
X79514965Y-134196640D01*
X79640724Y-134244170D01*
X79787011Y-134303783D01*
X79923293Y-134363056D01*
X80147390Y-134464765D01*
X80643618Y-134125897D01*
X80678570Y-134102063D01*
X80828280Y-134000755D01*
X80961867Y-133911575D01*
X81071343Y-133839773D01*
X81148718Y-133790603D01*
X81186004Y-133769317D01*
X81211552Y-133774196D01*
X81269555Y-133812002D01*
X81359195Y-133886870D01*
X81482957Y-134000903D01*
X81643328Y-134156205D01*
X81657679Y-134170341D01*
X81784933Y-134296999D01*
X81897969Y-134411745D01*
X81989867Y-134507391D01*
X82053707Y-134576746D01*
X82082570Y-134612620D01*
X82082664Y-134612794D01*
X82086331Y-134640106D01*
X82072808Y-134684408D01*
X82038684Y-134751761D01*
X81980548Y-134848226D01*
X81894988Y-134979863D01*
X81778594Y-135152734D01*
X81758759Y-135181912D01*
X81658445Y-135329726D01*
X81569923Y-135460577D01*
X81498465Y-135566643D01*
X81449343Y-135640102D01*
X81427831Y-135673130D01*
X81426208Y-135680126D01*
X81436387Y-135732326D01*
X81466879Y-135817561D01*
X81512712Y-135921291D01*
X81575000Y-136056951D01*
X81644548Y-136217921D01*
X81703609Y-136363621D01*
X81718252Y-136401333D01*
X81756600Y-136497622D01*
X81784770Y-136564704D01*
X81797497Y-136589885D01*
X81811545Y-136591767D01*
X81874681Y-136602651D01*
X81978019Y-136621449D01*
X82110809Y-136646115D01*
X82262297Y-136674604D01*
X82421732Y-136704873D01*
X82578361Y-136734875D01*
X82721433Y-136762566D01*
X82840195Y-136785900D01*
X82923896Y-136802833D01*
X82961782Y-136811320D01*
X82968063Y-136813713D01*
X82983373Y-136826619D01*
X82994763Y-136854096D01*
X83002803Y-136903446D01*
X83008064Y-136981973D01*
X83011116Y-137096980D01*
X83012529Y-137255770D01*
X83012873Y-137465645D01*
X83012873Y-138103906D01*
X82859598Y-138134160D01*
X82841057Y-138137785D01*
X82742596Y-138156569D01*
X82606448Y-138182093D01*
X82448087Y-138211468D01*
X82282988Y-138241806D01*
X82217973Y-138254009D01*
X82072697Y-138283697D01*
X81951626Y-138311770D01*
X81865886Y-138335536D01*
X81826601Y-138352301D01*
X81808799Y-138379694D01*
X81776389Y-138452174D01*
X81743234Y-138545977D01*
X81731564Y-138581103D01*
X81688604Y-138696409D01*
X81633192Y-138832876D01*
X81574353Y-138967954D01*
X81542884Y-139038509D01*
X81498051Y-139143895D01*
X81467240Y-139222818D01*
X81455785Y-139262053D01*
X81456422Y-139265014D01*
X81478150Y-139306639D01*
X81527146Y-139386969D01*
X81598438Y-139498220D01*
X81687054Y-139632605D01*
X81788023Y-139782340D01*
X82120261Y-140269931D01*
X81683771Y-140707149D01*
X81641555Y-140749221D01*
X81512470Y-140875153D01*
X81397107Y-140983754D01*
X81302224Y-141068903D01*
X81234582Y-141124482D01*
X81200938Y-141144368D01*
X81164402Y-141129238D01*
X81087890Y-141085801D01*
X80980196Y-141019270D01*
X80849767Y-140934867D01*
X80705052Y-140837816D01*
X80562910Y-140741964D01*
X80434678Y-140657557D01*
X80330054Y-140590850D01*
X80257171Y-140547024D01*
X80224158Y-140531264D01*
X80222223Y-140531408D01*
X80178369Y-140546945D01*
X80100598Y-140583121D01*
X80004392Y-140632785D01*
X80003381Y-140633329D01*
X79875605Y-140697326D01*
X79788051Y-140728591D01*
X79733726Y-140728677D01*
X79705641Y-140699138D01*
X79693752Y-140670061D01*
X79661668Y-140592188D01*
X79612247Y-140472475D01*
X79548118Y-140317286D01*
X79471911Y-140132984D01*
X79386255Y-139925933D01*
X79293781Y-139702496D01*
X79209962Y-139499226D01*
X79124678Y-139290649D01*
X79049222Y-139104263D01*
X78986126Y-138946407D01*
X78937923Y-138823419D01*
X78907144Y-138741639D01*
X78896322Y-138707406D01*
X78916991Y-138676015D01*
X78974409Y-138623602D01*
X79055688Y-138562704D01*
X79250820Y-138403387D01*
X79425445Y-138199807D01*
X79553235Y-137975808D01*
X79633402Y-137738003D01*
X79665160Y-137493007D01*
X79647722Y-137247433D01*
X79580301Y-137007895D01*
X79462111Y-136781007D01*
X79292364Y-136573383D01*
X79203856Y-136492527D01*
X78991804Y-136349559D01*
X78764905Y-136256352D01*
X78529791Y-136210687D01*
X78293094Y-136210344D01*
X78061446Y-136253105D01*
X77841478Y-136336750D01*
X77639822Y-136459061D01*
X77463111Y-136617817D01*
X77317977Y-136810801D01*
X77211050Y-137035793D01*
X77148964Y-137290575D01*
X77137569Y-137413377D01*
X77153246Y-137679434D01*
X77223846Y-137931856D01*
X77347282Y-138166182D01*
X77521466Y-138377952D01*
X77744311Y-138562704D01*
X77822561Y-138621123D01*
X77881244Y-138674110D01*
X77903678Y-138707356D01*
X77894732Y-138736339D01*
X77865703Y-138813996D01*
X77819026Y-138933451D01*
X77757231Y-139088362D01*
X77682850Y-139272392D01*
X77598412Y-139479200D01*
X77506449Y-139702446D01*
X77422771Y-139904742D01*
X77336366Y-140113686D01*
X77259138Y-140300498D01*
X77193716Y-140458814D01*
X77142731Y-140582269D01*
X77108812Y-140664498D01*
X77094590Y-140699138D01*
X77094425Y-140699548D01*
X77065972Y-140728798D01*
X77011382Y-140728463D01*
X76923609Y-140696980D01*
X76795608Y-140632785D01*
X76785532Y-140627380D01*
X76690481Y-140578750D01*
X76615424Y-140544328D01*
X76575842Y-140531264D01*
X76543400Y-140546702D01*
X76470895Y-140590258D01*
X76366565Y-140656751D01*
X76238539Y-140740998D01*
X76094948Y-140837816D01*
X75953468Y-140932734D01*
X75822611Y-141017490D01*
X75714292Y-141084496D01*
X75636960Y-141128529D01*
X75599062Y-141144368D01*
X75592607Y-141142357D01*
X75547609Y-141110658D01*
X75470727Y-141045181D01*
X75368721Y-140952048D01*
X75248351Y-140837381D01*
X75116379Y-140707300D01*
X74680039Y-140270232D01*
X75359733Y-139270440D01*
X75256402Y-139046886D01*
X75256096Y-139046225D01*
X75194046Y-138903714D01*
X75130640Y-138745018D01*
X75079558Y-138604368D01*
X75071827Y-138581683D01*
X75032852Y-138476370D01*
X74997707Y-138394534D01*
X74973195Y-138352301D01*
X74963212Y-138346337D01*
X74903286Y-138326329D01*
X74801532Y-138300442D01*
X74669068Y-138271370D01*
X74517011Y-138241806D01*
X74471466Y-138233467D01*
X74306685Y-138203107D01*
X74152930Y-138174509D01*
X74025678Y-138150564D01*
X73940402Y-138134160D01*
X73787126Y-138103906D01*
X73787126Y-137465645D01*
X73787160Y-137387165D01*
X73787808Y-137195703D01*
X73789720Y-137052812D01*
X73793469Y-136951189D01*
X73799622Y-136883531D01*
X73808751Y-136842536D01*
X73821427Y-136820900D01*
X73838218Y-136811320D01*
X73854474Y-136807439D01*
X73920748Y-136793710D01*
X74026479Y-136772745D01*
X74160915Y-136746588D01*
X74313302Y-136717283D01*
X74472890Y-136686877D01*
X74628925Y-136657413D01*
X74770657Y-136630937D01*
X74887331Y-136609494D01*
X74968197Y-136595128D01*
X75002503Y-136589885D01*
X75004822Y-136586720D01*
X75023474Y-136545642D01*
X75055753Y-136467044D01*
X75096391Y-136363621D01*
X75152788Y-136224273D01*
X75222214Y-136063226D01*
X75287288Y-135921291D01*
X75302202Y-135889432D01*
X75344047Y-135789669D01*
X75369118Y-135712721D01*
X75372426Y-135673130D01*
X75370720Y-135670325D01*
X75343631Y-135629005D01*
X75289927Y-135548740D01*
X75214877Y-135437350D01*
X75123746Y-135302655D01*
X75021800Y-135152476D01*
X74906930Y-134981851D01*
X74820761Y-134849311D01*
X74762131Y-134752112D01*
X74727650Y-134684234D01*
X74713926Y-134639656D01*
X74717568Y-134612361D01*
X74718794Y-134610313D01*
X74751747Y-134570536D01*
X74818927Y-134498052D01*
X74913419Y-134400046D01*
X75028306Y-134283702D01*
X75156672Y-134156205D01*
X75289831Y-134026821D01*
X75420269Y-133905209D01*
X75516119Y-133823156D01*
X75579866Y-133778560D01*
X75613996Y-133769317D01*
X75618456Y-133771393D01*
X75665421Y-133799385D01*
X75750685Y-133854084D01*
X75866259Y-133930237D01*
X76004154Y-134022592D01*
X76156381Y-134125897D01*
X76652610Y-134464765D01*
X76876707Y-134363056D01*
X76883219Y-134360109D01*
X77020804Y-134300504D01*
X77166767Y-134241222D01*
X77290575Y-134194685D01*
X77291122Y-134194493D01*
X77389414Y-134158497D01*
X77465081Y-134128095D01*
X77501780Y-134109852D01*
X77502374Y-134109190D01*
X77514833Y-134071831D01*
X77535336Y-133986871D01*
X77561907Y-133863469D01*
X77592567Y-133710782D01*
X77625336Y-133537967D01*
X77626478Y-133531774D01*
X77659193Y-133355431D01*
X77689155Y-133195743D01*
X77714425Y-133062905D01*
X77733065Y-132967113D01*
X77743135Y-132918563D01*
X77743779Y-132915873D01*
X77750408Y-132895088D01*
X77763841Y-132879466D01*
X77791446Y-132868270D01*
X77840593Y-132860762D01*
X77918653Y-132856205D01*
X78032994Y-132853863D01*
X78190986Y-132852998D01*
X78400000Y-132852874D01*
X78426262Y-132852874D01*
X78629175Y-132853045D01*
G37*
X78629175Y-132853045D02*
X78781895Y-132854039D01*
X78891792Y-132856593D01*
X78966235Y-132861445D01*
X79012594Y-132869331D01*
X79038239Y-132880988D01*
X79050539Y-132897153D01*
X79056865Y-132918563D01*
X79057047Y-132919332D01*
X79067441Y-132969663D01*
X79086339Y-133066888D01*
X79111802Y-133200810D01*
X79141890Y-133361235D01*
X79174664Y-133537967D01*
X79177337Y-133552428D01*
X79210010Y-133723959D01*
X79240413Y-133874625D01*
X79266568Y-133995267D01*
X79286496Y-134076729D01*
X79298220Y-134109852D01*
X79298282Y-134109905D01*
X79335229Y-134128229D01*
X79411057Y-134158677D01*
X79509425Y-134194685D01*
X79514965Y-134196640D01*
X79640724Y-134244170D01*
X79787011Y-134303783D01*
X79923293Y-134363056D01*
X80147390Y-134464765D01*
X80643618Y-134125897D01*
X80678570Y-134102063D01*
X80828280Y-134000755D01*
X80961867Y-133911575D01*
X81071343Y-133839773D01*
X81148718Y-133790603D01*
X81186004Y-133769317D01*
X81211552Y-133774196D01*
X81269555Y-133812002D01*
X81359195Y-133886870D01*
X81482957Y-134000903D01*
X81643328Y-134156205D01*
X81657679Y-134170341D01*
X81784933Y-134296999D01*
X81897969Y-134411745D01*
X81989867Y-134507391D01*
X82053707Y-134576746D01*
X82082570Y-134612620D01*
X82082664Y-134612794D01*
X82086331Y-134640106D01*
X82072808Y-134684408D01*
X82038684Y-134751761D01*
X81980548Y-134848226D01*
X81894988Y-134979863D01*
X81778594Y-135152734D01*
X81758759Y-135181912D01*
X81658445Y-135329726D01*
X81569923Y-135460577D01*
X81498465Y-135566643D01*
X81449343Y-135640102D01*
X81427831Y-135673130D01*
X81426208Y-135680126D01*
X81436387Y-135732326D01*
X81466879Y-135817561D01*
X81512712Y-135921291D01*
X81575000Y-136056951D01*
X81644548Y-136217921D01*
X81703609Y-136363621D01*
X81718252Y-136401333D01*
X81756600Y-136497622D01*
X81784770Y-136564704D01*
X81797497Y-136589885D01*
X81811545Y-136591767D01*
X81874681Y-136602651D01*
X81978019Y-136621449D01*
X82110809Y-136646115D01*
X82262297Y-136674604D01*
X82421732Y-136704873D01*
X82578361Y-136734875D01*
X82721433Y-136762566D01*
X82840195Y-136785900D01*
X82923896Y-136802833D01*
X82961782Y-136811320D01*
X82968063Y-136813713D01*
X82983373Y-136826619D01*
X82994763Y-136854096D01*
X83002803Y-136903446D01*
X83008064Y-136981973D01*
X83011116Y-137096980D01*
X83012529Y-137255770D01*
X83012873Y-137465645D01*
X83012873Y-138103906D01*
X82859598Y-138134160D01*
X82841057Y-138137785D01*
X82742596Y-138156569D01*
X82606448Y-138182093D01*
X82448087Y-138211468D01*
X82282988Y-138241806D01*
X82217973Y-138254009D01*
X82072697Y-138283697D01*
X81951626Y-138311770D01*
X81865886Y-138335536D01*
X81826601Y-138352301D01*
X81808799Y-138379694D01*
X81776389Y-138452174D01*
X81743234Y-138545977D01*
X81731564Y-138581103D01*
X81688604Y-138696409D01*
X81633192Y-138832876D01*
X81574353Y-138967954D01*
X81542884Y-139038509D01*
X81498051Y-139143895D01*
X81467240Y-139222818D01*
X81455785Y-139262053D01*
X81456422Y-139265014D01*
X81478150Y-139306639D01*
X81527146Y-139386969D01*
X81598438Y-139498220D01*
X81687054Y-139632605D01*
X81788023Y-139782340D01*
X82120261Y-140269931D01*
X81683771Y-140707149D01*
X81641555Y-140749221D01*
X81512470Y-140875153D01*
X81397107Y-140983754D01*
X81302224Y-141068903D01*
X81234582Y-141124482D01*
X81200938Y-141144368D01*
X81164402Y-141129238D01*
X81087890Y-141085801D01*
X80980196Y-141019270D01*
X80849767Y-140934867D01*
X80705052Y-140837816D01*
X80562910Y-140741964D01*
X80434678Y-140657557D01*
X80330054Y-140590850D01*
X80257171Y-140547024D01*
X80224158Y-140531264D01*
X80222223Y-140531408D01*
X80178369Y-140546945D01*
X80100598Y-140583121D01*
X80004392Y-140632785D01*
X80003381Y-140633329D01*
X79875605Y-140697326D01*
X79788051Y-140728591D01*
X79733726Y-140728677D01*
X79705641Y-140699138D01*
X79693752Y-140670061D01*
X79661668Y-140592188D01*
X79612247Y-140472475D01*
X79548118Y-140317286D01*
X79471911Y-140132984D01*
X79386255Y-139925933D01*
X79293781Y-139702496D01*
X79209962Y-139499226D01*
X79124678Y-139290649D01*
X79049222Y-139104263D01*
X78986126Y-138946407D01*
X78937923Y-138823419D01*
X78907144Y-138741639D01*
X78896322Y-138707406D01*
X78916991Y-138676015D01*
X78974409Y-138623602D01*
X79055688Y-138562704D01*
X79250820Y-138403387D01*
X79425445Y-138199807D01*
X79553235Y-137975808D01*
X79633402Y-137738003D01*
X79665160Y-137493007D01*
X79647722Y-137247433D01*
X79580301Y-137007895D01*
X79462111Y-136781007D01*
X79292364Y-136573383D01*
X79203856Y-136492527D01*
X78991804Y-136349559D01*
X78764905Y-136256352D01*
X78529791Y-136210687D01*
X78293094Y-136210344D01*
X78061446Y-136253105D01*
X77841478Y-136336750D01*
X77639822Y-136459061D01*
X77463111Y-136617817D01*
X77317977Y-136810801D01*
X77211050Y-137035793D01*
X77148964Y-137290575D01*
X77137569Y-137413377D01*
X77153246Y-137679434D01*
X77223846Y-137931856D01*
X77347282Y-138166182D01*
X77521466Y-138377952D01*
X77744311Y-138562704D01*
X77822561Y-138621123D01*
X77881244Y-138674110D01*
X77903678Y-138707356D01*
X77894732Y-138736339D01*
X77865703Y-138813996D01*
X77819026Y-138933451D01*
X77757231Y-139088362D01*
X77682850Y-139272392D01*
X77598412Y-139479200D01*
X77506449Y-139702446D01*
X77422771Y-139904742D01*
X77336366Y-140113686D01*
X77259138Y-140300498D01*
X77193716Y-140458814D01*
X77142731Y-140582269D01*
X77108812Y-140664498D01*
X77094590Y-140699138D01*
X77094425Y-140699548D01*
X77065972Y-140728798D01*
X77011382Y-140728463D01*
X76923609Y-140696980D01*
X76795608Y-140632785D01*
X76785532Y-140627380D01*
X76690481Y-140578750D01*
X76615424Y-140544328D01*
X76575842Y-140531264D01*
X76543400Y-140546702D01*
X76470895Y-140590258D01*
X76366565Y-140656751D01*
X76238539Y-140740998D01*
X76094948Y-140837816D01*
X75953468Y-140932734D01*
X75822611Y-141017490D01*
X75714292Y-141084496D01*
X75636960Y-141128529D01*
X75599062Y-141144368D01*
X75592607Y-141142357D01*
X75547609Y-141110658D01*
X75470727Y-141045181D01*
X75368721Y-140952048D01*
X75248351Y-140837381D01*
X75116379Y-140707300D01*
X74680039Y-140270232D01*
X75359733Y-139270440D01*
X75256402Y-139046886D01*
X75256096Y-139046225D01*
X75194046Y-138903714D01*
X75130640Y-138745018D01*
X75079558Y-138604368D01*
X75071827Y-138581683D01*
X75032852Y-138476370D01*
X74997707Y-138394534D01*
X74973195Y-138352301D01*
X74963212Y-138346337D01*
X74903286Y-138326329D01*
X74801532Y-138300442D01*
X74669068Y-138271370D01*
X74517011Y-138241806D01*
X74471466Y-138233467D01*
X74306685Y-138203107D01*
X74152930Y-138174509D01*
X74025678Y-138150564D01*
X73940402Y-138134160D01*
X73787126Y-138103906D01*
X73787126Y-137465645D01*
X73787160Y-137387165D01*
X73787808Y-137195703D01*
X73789720Y-137052812D01*
X73793469Y-136951189D01*
X73799622Y-136883531D01*
X73808751Y-136842536D01*
X73821427Y-136820900D01*
X73838218Y-136811320D01*
X73854474Y-136807439D01*
X73920748Y-136793710D01*
X74026479Y-136772745D01*
X74160915Y-136746588D01*
X74313302Y-136717283D01*
X74472890Y-136686877D01*
X74628925Y-136657413D01*
X74770657Y-136630937D01*
X74887331Y-136609494D01*
X74968197Y-136595128D01*
X75002503Y-136589885D01*
X75004822Y-136586720D01*
X75023474Y-136545642D01*
X75055753Y-136467044D01*
X75096391Y-136363621D01*
X75152788Y-136224273D01*
X75222214Y-136063226D01*
X75287288Y-135921291D01*
X75302202Y-135889432D01*
X75344047Y-135789669D01*
X75369118Y-135712721D01*
X75372426Y-135673130D01*
X75370720Y-135670325D01*
X75343631Y-135629005D01*
X75289927Y-135548740D01*
X75214877Y-135437350D01*
X75123746Y-135302655D01*
X75021800Y-135152476D01*
X74906930Y-134981851D01*
X74820761Y-134849311D01*
X74762131Y-134752112D01*
X74727650Y-134684234D01*
X74713926Y-134639656D01*
X74717568Y-134612361D01*
X74718794Y-134610313D01*
X74751747Y-134570536D01*
X74818927Y-134498052D01*
X74913419Y-134400046D01*
X75028306Y-134283702D01*
X75156672Y-134156205D01*
X75289831Y-134026821D01*
X75420269Y-133905209D01*
X75516119Y-133823156D01*
X75579866Y-133778560D01*
X75613996Y-133769317D01*
X75618456Y-133771393D01*
X75665421Y-133799385D01*
X75750685Y-133854084D01*
X75866259Y-133930237D01*
X76004154Y-134022592D01*
X76156381Y-134125897D01*
X76652610Y-134464765D01*
X76876707Y-134363056D01*
X76883219Y-134360109D01*
X77020804Y-134300504D01*
X77166767Y-134241222D01*
X77290575Y-134194685D01*
X77291122Y-134194493D01*
X77389414Y-134158497D01*
X77465081Y-134128095D01*
X77501780Y-134109852D01*
X77502374Y-134109190D01*
X77514833Y-134071831D01*
X77535336Y-133986871D01*
X77561907Y-133863469D01*
X77592567Y-133710782D01*
X77625336Y-133537967D01*
X77626478Y-133531774D01*
X77659193Y-133355431D01*
X77689155Y-133195743D01*
X77714425Y-133062905D01*
X77733065Y-132967113D01*
X77743135Y-132918563D01*
X77743779Y-132915873D01*
X77750408Y-132895088D01*
X77763841Y-132879466D01*
X77791446Y-132868270D01*
X77840593Y-132860762D01*
X77918653Y-132856205D01*
X78032994Y-132853863D01*
X78190986Y-132852998D01*
X78400000Y-132852874D01*
X78426262Y-132852874D01*
X78629175Y-132853045D01*
X72056561Y-142356540D02*
X71941050Y-142432034D01*
X71941050Y-142432034D02*
X71885336Y-142499617D01*
X71885336Y-142499617D02*
X71841196Y-142622255D01*
X71841196Y-142622255D02*
X71837691Y-142719298D01*
X71837691Y-142719298D02*
X71845632Y-142849056D01*
X71845632Y-142849056D02*
X72144885Y-142980039D01*
X72144885Y-142980039D02*
X72290389Y-143046958D01*
X72290389Y-143046958D02*
X72385463Y-143100790D01*
X72385463Y-143100790D02*
X72434899Y-143147416D01*
X72434899Y-143147416D02*
X72443489Y-143192720D01*
X72443489Y-143192720D02*
X72416028Y-143242582D01*
X72416028Y-143242582D02*
X72385747Y-143275632D01*
X72385747Y-143275632D02*
X72297637Y-143328633D01*
X72297637Y-143328633D02*
X72201804Y-143332347D01*
X72201804Y-143332347D02*
X72113788Y-143291041D01*
X72113788Y-143291041D02*
X72049131Y-143208983D01*
X72049131Y-143208983D02*
X72037567Y-143180008D01*
X72037567Y-143180008D02*
X71982175Y-143089509D01*
X71982175Y-143089509D02*
X71918447Y-143050940D01*
X71918447Y-143050940D02*
X71831034Y-143017946D01*
X71831034Y-143017946D02*
X71831034Y-143143034D01*
X71831034Y-143143034D02*
X71838762Y-143228156D01*
X71838762Y-143228156D02*
X71869034Y-143299938D01*
X71869034Y-143299938D02*
X71932482Y-143382356D01*
X71932482Y-143382356D02*
X71941912Y-143393066D01*
X71941912Y-143393066D02*
X72012487Y-143466391D01*
X72012487Y-143466391D02*
X72073153Y-143505742D01*
X72073153Y-143505742D02*
X72149050Y-143523845D01*
X72149050Y-143523845D02*
X72211970Y-143529774D01*
X72211970Y-143529774D02*
X72324513Y-143531251D01*
X72324513Y-143531251D02*
X72404630Y-143512535D01*
X72404630Y-143512535D02*
X72454610Y-143484747D01*
X72454610Y-143484747D02*
X72533162Y-143423641D01*
X72533162Y-143423641D02*
X72587537Y-143357554D01*
X72587537Y-143357554D02*
X72621948Y-143274441D01*
X72621948Y-143274441D02*
X72640612Y-143162254D01*
X72640612Y-143162254D02*
X72647744Y-143008946D01*
X72647744Y-143008946D02*
X72648313Y-142931136D01*
X72648313Y-142931136D02*
X72646378Y-142837853D01*
X72646378Y-142837853D02*
X72470101Y-142837853D01*
X72470101Y-142837853D02*
X72468056Y-142887896D01*
X72468056Y-142887896D02*
X72462961Y-142896092D01*
X72462961Y-142896092D02*
X72429334Y-142884958D01*
X72429334Y-142884958D02*
X72356970Y-142855493D01*
X72356970Y-142855493D02*
X72260253Y-142813601D01*
X72260253Y-142813601D02*
X72240027Y-142804597D01*
X72240027Y-142804597D02*
X72117797Y-142742442D01*
X72117797Y-142742442D02*
X72050453Y-142687815D01*
X72050453Y-142687815D02*
X72035652Y-142636649D01*
X72035652Y-142636649D02*
X72071053Y-142584876D01*
X72071053Y-142584876D02*
X72100289Y-142562000D01*
X72100289Y-142562000D02*
X72205784Y-142516250D01*
X72205784Y-142516250D02*
X72304524Y-142523808D01*
X72304524Y-142523808D02*
X72387188Y-142579651D01*
X72387188Y-142579651D02*
X72444452Y-142678753D01*
X72444452Y-142678753D02*
X72462812Y-142757414D01*
X72462812Y-142757414D02*
X72470101Y-142837853D01*
X72470101Y-142837853D02*
X72646378Y-142837853D01*
X72646378Y-142837853D02*
X72644541Y-142749351D01*
X72644541Y-142749351D02*
X72630641Y-142614853D01*
X72630641Y-142614853D02*
X72603106Y-142516916D01*
X72603106Y-142516916D02*
X72558428Y-142444811D01*
X72558428Y-142444811D02*
X72493099Y-142387813D01*
X72493099Y-142387813D02*
X72464617Y-142369393D01*
X72464617Y-142369393D02*
X72335237Y-142321422D01*
X72335237Y-142321422D02*
X72193588Y-142318403D01*
X72193588Y-142318403D02*
X72056561Y-142356540D01*
X72056561Y-142356540D02*
X72056561Y-142356540D01*
G36*
X72647744Y-143008946D02*
G01*
X72640612Y-143162254D01*
X72621948Y-143274441D01*
X72587537Y-143357554D01*
X72533162Y-143423641D01*
X72454610Y-143484747D01*
X72404630Y-143512535D01*
X72324513Y-143531251D01*
X72211970Y-143529774D01*
X72149050Y-143523845D01*
X72073153Y-143505742D01*
X72012487Y-143466391D01*
X71941912Y-143393066D01*
X71932482Y-143382356D01*
X71869034Y-143299938D01*
X71838762Y-143228156D01*
X71831034Y-143143034D01*
X71831034Y-143017946D01*
X71918447Y-143050940D01*
X71982175Y-143089509D01*
X72037567Y-143180008D01*
X72049131Y-143208983D01*
X72113788Y-143291041D01*
X72201804Y-143332347D01*
X72297637Y-143328633D01*
X72385747Y-143275632D01*
X72416028Y-143242582D01*
X72443489Y-143192720D01*
X72434899Y-143147416D01*
X72385463Y-143100790D01*
X72290389Y-143046958D01*
X72144885Y-142980039D01*
X71845632Y-142849056D01*
X71837691Y-142719298D01*
X71840676Y-142636649D01*
X72035652Y-142636649D01*
X72050453Y-142687815D01*
X72117797Y-142742442D01*
X72240027Y-142804597D01*
X72260253Y-142813601D01*
X72356970Y-142855493D01*
X72429334Y-142884958D01*
X72462961Y-142896092D01*
X72468056Y-142887896D01*
X72470101Y-142837853D01*
X72462812Y-142757414D01*
X72444452Y-142678753D01*
X72387188Y-142579651D01*
X72304524Y-142523808D01*
X72205784Y-142516250D01*
X72100289Y-142562000D01*
X72071053Y-142584876D01*
X72035652Y-142636649D01*
X71840676Y-142636649D01*
X71841196Y-142622255D01*
X71885336Y-142499617D01*
X71941050Y-142432034D01*
X72056561Y-142356540D01*
X72193588Y-142318403D01*
X72335237Y-142321422D01*
X72464617Y-142369393D01*
X72493099Y-142387813D01*
X72558428Y-142444811D01*
X72603106Y-142516916D01*
X72630641Y-142614853D01*
X72644541Y-142749351D01*
X72646378Y-142837853D01*
X72648313Y-142931136D01*
X72647744Y-143008946D01*
G37*
X72647744Y-143008946D02*
X72640612Y-143162254D01*
X72621948Y-143274441D01*
X72587537Y-143357554D01*
X72533162Y-143423641D01*
X72454610Y-143484747D01*
X72404630Y-143512535D01*
X72324513Y-143531251D01*
X72211970Y-143529774D01*
X72149050Y-143523845D01*
X72073153Y-143505742D01*
X72012487Y-143466391D01*
X71941912Y-143393066D01*
X71932482Y-143382356D01*
X71869034Y-143299938D01*
X71838762Y-143228156D01*
X71831034Y-143143034D01*
X71831034Y-143017946D01*
X71918447Y-143050940D01*
X71982175Y-143089509D01*
X72037567Y-143180008D01*
X72049131Y-143208983D01*
X72113788Y-143291041D01*
X72201804Y-143332347D01*
X72297637Y-143328633D01*
X72385747Y-143275632D01*
X72416028Y-143242582D01*
X72443489Y-143192720D01*
X72434899Y-143147416D01*
X72385463Y-143100790D01*
X72290389Y-143046958D01*
X72144885Y-142980039D01*
X71845632Y-142849056D01*
X71837691Y-142719298D01*
X71840676Y-142636649D01*
X72035652Y-142636649D01*
X72050453Y-142687815D01*
X72117797Y-142742442D01*
X72240027Y-142804597D01*
X72260253Y-142813601D01*
X72356970Y-142855493D01*
X72429334Y-142884958D01*
X72462961Y-142896092D01*
X72468056Y-142887896D01*
X72470101Y-142837853D01*
X72462812Y-142757414D01*
X72444452Y-142678753D01*
X72387188Y-142579651D01*
X72304524Y-142523808D01*
X72205784Y-142516250D01*
X72100289Y-142562000D01*
X72071053Y-142584876D01*
X72035652Y-142636649D01*
X71840676Y-142636649D01*
X71841196Y-142622255D01*
X71885336Y-142499617D01*
X71941050Y-142432034D01*
X72056561Y-142356540D01*
X72193588Y-142318403D01*
X72335237Y-142321422D01*
X72464617Y-142369393D01*
X72493099Y-142387813D01*
X72558428Y-142444811D01*
X72603106Y-142516916D01*
X72630641Y-142614853D01*
X72644541Y-142749351D01*
X72646378Y-142837853D01*
X72648313Y-142931136D01*
X72647744Y-143008946D01*
X73064310Y-142340018D02*
X73029415Y-142355269D01*
X73029415Y-142355269D02*
X72946123Y-142421235D01*
X72946123Y-142421235D02*
X72874897Y-142516618D01*
X72874897Y-142516618D02*
X72830847Y-142618406D01*
X72830847Y-142618406D02*
X72823678Y-142668587D01*
X72823678Y-142668587D02*
X72847715Y-142738647D01*
X72847715Y-142738647D02*
X72900439Y-142775717D01*
X72900439Y-142775717D02*
X72956969Y-142798164D01*
X72956969Y-142798164D02*
X72982854Y-142802300D01*
X72982854Y-142802300D02*
X72995458Y-142772283D01*
X72995458Y-142772283D02*
X73020346Y-142706961D01*
X73020346Y-142706961D02*
X73031265Y-142677445D01*
X73031265Y-142677445D02*
X73092492Y-142575348D01*
X73092492Y-142575348D02*
X73181139Y-142524423D01*
X73181139Y-142524423D02*
X73294807Y-142525989D01*
X73294807Y-142525989D02*
X73303226Y-142527994D01*
X73303226Y-142527994D02*
X73363912Y-142556767D01*
X73363912Y-142556767D02*
X73408526Y-142612859D01*
X73408526Y-142612859D02*
X73438998Y-142703163D01*
X73438998Y-142703163D02*
X73457256Y-142834571D01*
X73457256Y-142834571D02*
X73465229Y-143013974D01*
X73465229Y-143013974D02*
X73465977Y-143109433D01*
X73465977Y-143109433D02*
X73466348Y-143259913D01*
X73466348Y-143259913D02*
X73468777Y-143362495D01*
X73468777Y-143362495D02*
X73475240Y-143427672D01*
X73475240Y-143427672D02*
X73487712Y-143465938D01*
X73487712Y-143465938D02*
X73508167Y-143487785D01*
X73508167Y-143487785D02*
X73538581Y-143503707D01*
X73538581Y-143503707D02*
X73540339Y-143504509D01*
X73540339Y-143504509D02*
X73598909Y-143529272D01*
X73598909Y-143529272D02*
X73627925Y-143538391D01*
X73627925Y-143538391D02*
X73632384Y-143510822D01*
X73632384Y-143510822D02*
X73636201Y-143434620D01*
X73636201Y-143434620D02*
X73639101Y-143319541D01*
X73639101Y-143319541D02*
X73640809Y-143175341D01*
X73640809Y-143175341D02*
X73641149Y-143069814D01*
X73641149Y-143069814D02*
X73639412Y-142865613D01*
X73639412Y-142865613D02*
X73632618Y-142710697D01*
X73632618Y-142710697D02*
X73618393Y-142596024D01*
X73618393Y-142596024D02*
X73594362Y-142512551D01*
X73594362Y-142512551D02*
X73558152Y-142451236D01*
X73558152Y-142451236D02*
X73507388Y-142403034D01*
X73507388Y-142403034D02*
X73457261Y-142369393D01*
X73457261Y-142369393D02*
X73336725Y-142324619D01*
X73336725Y-142324619D02*
X73196443Y-142314521D01*
X73196443Y-142314521D02*
X73064310Y-142340018D01*
X73064310Y-142340018D02*
X73064310Y-142340018D01*
G36*
X73336725Y-142324619D02*
G01*
X73457261Y-142369393D01*
X73507388Y-142403034D01*
X73558152Y-142451236D01*
X73594362Y-142512551D01*
X73618393Y-142596024D01*
X73632618Y-142710697D01*
X73639412Y-142865613D01*
X73641149Y-143069814D01*
X73640809Y-143175341D01*
X73639101Y-143319541D01*
X73636201Y-143434620D01*
X73632384Y-143510822D01*
X73627925Y-143538391D01*
X73598909Y-143529272D01*
X73540339Y-143504509D01*
X73538581Y-143503707D01*
X73508167Y-143487785D01*
X73487712Y-143465938D01*
X73475240Y-143427672D01*
X73468777Y-143362495D01*
X73466348Y-143259913D01*
X73465977Y-143109433D01*
X73465229Y-143013974D01*
X73457256Y-142834571D01*
X73438998Y-142703163D01*
X73408526Y-142612859D01*
X73363912Y-142556767D01*
X73303226Y-142527994D01*
X73294807Y-142525989D01*
X73181139Y-142524423D01*
X73092492Y-142575348D01*
X73031265Y-142677445D01*
X73020346Y-142706961D01*
X72995458Y-142772283D01*
X72982854Y-142802300D01*
X72956969Y-142798164D01*
X72900439Y-142775717D01*
X72847715Y-142738647D01*
X72823678Y-142668587D01*
X72830847Y-142618406D01*
X72874897Y-142516618D01*
X72946123Y-142421235D01*
X73029415Y-142355269D01*
X73064310Y-142340018D01*
X73196443Y-142314521D01*
X73336725Y-142324619D01*
G37*
X73336725Y-142324619D02*
X73457261Y-142369393D01*
X73507388Y-142403034D01*
X73558152Y-142451236D01*
X73594362Y-142512551D01*
X73618393Y-142596024D01*
X73632618Y-142710697D01*
X73639412Y-142865613D01*
X73641149Y-143069814D01*
X73640809Y-143175341D01*
X73639101Y-143319541D01*
X73636201Y-143434620D01*
X73632384Y-143510822D01*
X73627925Y-143538391D01*
X73598909Y-143529272D01*
X73540339Y-143504509D01*
X73538581Y-143503707D01*
X73508167Y-143487785D01*
X73487712Y-143465938D01*
X73475240Y-143427672D01*
X73468777Y-143362495D01*
X73466348Y-143259913D01*
X73465977Y-143109433D01*
X73465229Y-143013974D01*
X73457256Y-142834571D01*
X73438998Y-142703163D01*
X73408526Y-142612859D01*
X73363912Y-142556767D01*
X73303226Y-142527994D01*
X73294807Y-142525989D01*
X73181139Y-142524423D01*
X73092492Y-142575348D01*
X73031265Y-142677445D01*
X73020346Y-142706961D01*
X72995458Y-142772283D01*
X72982854Y-142802300D01*
X72956969Y-142798164D01*
X72900439Y-142775717D01*
X72847715Y-142738647D01*
X72823678Y-142668587D01*
X72830847Y-142618406D01*
X72874897Y-142516618D01*
X72946123Y-142421235D01*
X73029415Y-142355269D01*
X73064310Y-142340018D01*
X73196443Y-142314521D01*
X73336725Y-142324619D01*
X74085594Y-142335156D02*
X74001531Y-142373393D01*
X74001531Y-142373393D02*
X73935550Y-142419726D01*
X73935550Y-142419726D02*
X73887206Y-142471532D01*
X73887206Y-142471532D02*
X73853828Y-142538363D01*
X73853828Y-142538363D02*
X73832747Y-142629769D01*
X73832747Y-142629769D02*
X73821293Y-142755301D01*
X73821293Y-142755301D02*
X73816797Y-142924508D01*
X73816797Y-142924508D02*
X73816322Y-143035933D01*
X73816322Y-143035933D02*
X73816322Y-143470627D01*
X73816322Y-143470627D02*
X73890684Y-143504509D01*
X73890684Y-143504509D02*
X73949254Y-143529272D01*
X73949254Y-143529272D02*
X73978270Y-143538391D01*
X73978270Y-143538391D02*
X73983821Y-143511257D01*
X73983821Y-143511257D02*
X73988225Y-143438094D01*
X73988225Y-143438094D02*
X73990922Y-143331263D01*
X73990922Y-143331263D02*
X73991494Y-143246437D01*
X73991494Y-143246437D02*
X73993954Y-143123887D01*
X73993954Y-143123887D02*
X74000588Y-143026668D01*
X74000588Y-143026668D02*
X74010274Y-142967134D01*
X74010274Y-142967134D02*
X74017968Y-142954483D01*
X74017968Y-142954483D02*
X74069689Y-142967402D01*
X74069689Y-142967402D02*
X74150883Y-143000539D01*
X74150883Y-143000539D02*
X74244898Y-143045461D01*
X74244898Y-143045461D02*
X74335083Y-143093735D01*
X74335083Y-143093735D02*
X74404785Y-143136928D01*
X74404785Y-143136928D02*
X74437352Y-143166608D01*
X74437352Y-143166608D02*
X74437481Y-143166929D01*
X74437481Y-143166929D02*
X74434680Y-143221857D01*
X74434680Y-143221857D02*
X74409561Y-143274292D01*
X74409561Y-143274292D02*
X74365459Y-143316881D01*
X74365459Y-143316881D02*
X74301091Y-143331126D01*
X74301091Y-143331126D02*
X74246079Y-143329466D01*
X74246079Y-143329466D02*
X74168165Y-143328245D01*
X74168165Y-143328245D02*
X74127268Y-143346498D01*
X74127268Y-143346498D02*
X74102705Y-143394726D01*
X74102705Y-143394726D02*
X74099608Y-143403820D01*
X74099608Y-143403820D02*
X74088960Y-143472598D01*
X74088960Y-143472598D02*
X74117435Y-143514360D01*
X74117435Y-143514360D02*
X74191656Y-143534263D01*
X74191656Y-143534263D02*
X74271832Y-143537944D01*
X74271832Y-143537944D02*
X74416110Y-143510658D01*
X74416110Y-143510658D02*
X74490797Y-143471690D01*
X74490797Y-143471690D02*
X74583037Y-143380148D01*
X74583037Y-143380148D02*
X74631957Y-143267782D01*
X74631957Y-143267782D02*
X74636346Y-143149051D01*
X74636346Y-143149051D02*
X74594999Y-143038411D01*
X74594999Y-143038411D02*
X74532803Y-142969080D01*
X74532803Y-142969080D02*
X74470706Y-142930265D01*
X74470706Y-142930265D02*
X74373105Y-142881125D01*
X74373105Y-142881125D02*
X74259368Y-142831292D01*
X74259368Y-142831292D02*
X74240410Y-142823677D01*
X74240410Y-142823677D02*
X74115479Y-142768545D01*
X74115479Y-142768545D02*
X74043461Y-142719954D01*
X74043461Y-142719954D02*
X74020300Y-142671647D01*
X74020300Y-142671647D02*
X74041936Y-142617370D01*
X74041936Y-142617370D02*
X74079080Y-142574943D01*
X74079080Y-142574943D02*
X74166873Y-142522702D01*
X74166873Y-142522702D02*
X74263470Y-142518784D01*
X74263470Y-142518784D02*
X74352056Y-142559041D01*
X74352056Y-142559041D02*
X74415814Y-142639326D01*
X74415814Y-142639326D02*
X74424183Y-142660040D01*
X74424183Y-142660040D02*
X74472904Y-142736225D01*
X74472904Y-142736225D02*
X74544035Y-142792785D01*
X74544035Y-142792785D02*
X74633793Y-142839201D01*
X74633793Y-142839201D02*
X74633793Y-142707584D01*
X74633793Y-142707584D02*
X74628510Y-142627168D01*
X74628510Y-142627168D02*
X74605858Y-142563786D01*
X74605858Y-142563786D02*
X74555633Y-142496163D01*
X74555633Y-142496163D02*
X74507418Y-142444076D01*
X74507418Y-142444076D02*
X74432446Y-142370322D01*
X74432446Y-142370322D02*
X74374194Y-142330702D01*
X74374194Y-142330702D02*
X74311628Y-142314810D01*
X74311628Y-142314810D02*
X74240807Y-142312184D01*
X74240807Y-142312184D02*
X74085594Y-142335156D01*
X74085594Y-142335156D02*
X74085594Y-142335156D01*
G36*
X74311628Y-142314810D02*
G01*
X74374194Y-142330702D01*
X74432446Y-142370322D01*
X74507418Y-142444076D01*
X74555633Y-142496163D01*
X74605858Y-142563786D01*
X74628510Y-142627168D01*
X74633793Y-142707584D01*
X74633793Y-142839201D01*
X74544035Y-142792785D01*
X74472904Y-142736225D01*
X74424183Y-142660040D01*
X74415814Y-142639326D01*
X74352056Y-142559041D01*
X74263470Y-142518784D01*
X74166873Y-142522702D01*
X74079080Y-142574943D01*
X74041936Y-142617370D01*
X74020300Y-142671647D01*
X74043461Y-142719954D01*
X74115479Y-142768545D01*
X74240410Y-142823677D01*
X74259368Y-142831292D01*
X74373105Y-142881125D01*
X74470706Y-142930265D01*
X74532803Y-142969080D01*
X74594999Y-143038411D01*
X74636346Y-143149051D01*
X74631957Y-143267782D01*
X74583037Y-143380148D01*
X74490797Y-143471690D01*
X74416110Y-143510658D01*
X74271832Y-143537944D01*
X74191656Y-143534263D01*
X74117435Y-143514360D01*
X74088960Y-143472598D01*
X74099608Y-143403820D01*
X74102705Y-143394726D01*
X74127268Y-143346498D01*
X74168165Y-143328245D01*
X74246079Y-143329466D01*
X74301091Y-143331126D01*
X74365459Y-143316881D01*
X74409561Y-143274292D01*
X74434680Y-143221857D01*
X74437481Y-143166929D01*
X74437352Y-143166608D01*
X74404785Y-143136928D01*
X74335083Y-143093735D01*
X74244898Y-143045461D01*
X74150883Y-143000539D01*
X74069689Y-142967402D01*
X74017968Y-142954483D01*
X74010274Y-142967134D01*
X74000588Y-143026668D01*
X73993954Y-143123887D01*
X73991494Y-143246437D01*
X73990922Y-143331263D01*
X73988225Y-143438094D01*
X73983821Y-143511257D01*
X73978270Y-143538391D01*
X73949254Y-143529272D01*
X73890684Y-143504509D01*
X73816322Y-143470627D01*
X73816322Y-143035933D01*
X73816797Y-142924508D01*
X73821293Y-142755301D01*
X73832747Y-142629769D01*
X73853828Y-142538363D01*
X73887206Y-142471532D01*
X73935550Y-142419726D01*
X74001531Y-142373393D01*
X74085594Y-142335156D01*
X74240807Y-142312184D01*
X74311628Y-142314810D01*
G37*
X74311628Y-142314810D02*
X74374194Y-142330702D01*
X74432446Y-142370322D01*
X74507418Y-142444076D01*
X74555633Y-142496163D01*
X74605858Y-142563786D01*
X74628510Y-142627168D01*
X74633793Y-142707584D01*
X74633793Y-142839201D01*
X74544035Y-142792785D01*
X74472904Y-142736225D01*
X74424183Y-142660040D01*
X74415814Y-142639326D01*
X74352056Y-142559041D01*
X74263470Y-142518784D01*
X74166873Y-142522702D01*
X74079080Y-142574943D01*
X74041936Y-142617370D01*
X74020300Y-142671647D01*
X74043461Y-142719954D01*
X74115479Y-142768545D01*
X74240410Y-142823677D01*
X74259368Y-142831292D01*
X74373105Y-142881125D01*
X74470706Y-142930265D01*
X74532803Y-142969080D01*
X74594999Y-143038411D01*
X74636346Y-143149051D01*
X74631957Y-143267782D01*
X74583037Y-143380148D01*
X74490797Y-143471690D01*
X74416110Y-143510658D01*
X74271832Y-143537944D01*
X74191656Y-143534263D01*
X74117435Y-143514360D01*
X74088960Y-143472598D01*
X74099608Y-143403820D01*
X74102705Y-143394726D01*
X74127268Y-143346498D01*
X74168165Y-143328245D01*
X74246079Y-143329466D01*
X74301091Y-143331126D01*
X74365459Y-143316881D01*
X74409561Y-143274292D01*
X74434680Y-143221857D01*
X74437481Y-143166929D01*
X74437352Y-143166608D01*
X74404785Y-143136928D01*
X74335083Y-143093735D01*
X74244898Y-143045461D01*
X74150883Y-143000539D01*
X74069689Y-142967402D01*
X74017968Y-142954483D01*
X74010274Y-142967134D01*
X74000588Y-143026668D01*
X73993954Y-143123887D01*
X73991494Y-143246437D01*
X73990922Y-143331263D01*
X73988225Y-143438094D01*
X73983821Y-143511257D01*
X73978270Y-143538391D01*
X73949254Y-143529272D01*
X73890684Y-143504509D01*
X73816322Y-143470627D01*
X73816322Y-143035933D01*
X73816797Y-142924508D01*
X73821293Y-142755301D01*
X73832747Y-142629769D01*
X73853828Y-142538363D01*
X73887206Y-142471532D01*
X73935550Y-142419726D01*
X74001531Y-142373393D01*
X74085594Y-142335156D01*
X74240807Y-142312184D01*
X74311628Y-142314810D01*
X74819876Y-142339840D02*
X74815421Y-142416653D01*
X74815421Y-142416653D02*
X74811929Y-142533391D01*
X74811929Y-142533391D02*
X74809685Y-142680821D01*
X74809685Y-142680821D02*
X74808965Y-142835455D01*
X74808965Y-142835455D02*
X74808965Y-143358727D01*
X74808965Y-143358727D02*
X74901355Y-143451117D01*
X74901355Y-143451117D02*
X74965022Y-143508047D01*
X74965022Y-143508047D02*
X75020911Y-143531107D01*
X75020911Y-143531107D02*
X75097298Y-143529647D01*
X75097298Y-143529647D02*
X75127620Y-143525934D01*
X75127620Y-143525934D02*
X75222390Y-143515126D01*
X75222390Y-143515126D02*
X75300778Y-143508933D01*
X75300778Y-143508933D02*
X75319885Y-143508361D01*
X75319885Y-143508361D02*
X75384301Y-143512102D01*
X75384301Y-143512102D02*
X75476429Y-143521494D01*
X75476429Y-143521494D02*
X75512150Y-143525934D01*
X75512150Y-143525934D02*
X75599886Y-143532801D01*
X75599886Y-143532801D02*
X75658847Y-143517885D01*
X75658847Y-143517885D02*
X75717310Y-143471835D01*
X75717310Y-143471835D02*
X75738415Y-143451117D01*
X75738415Y-143451117D02*
X75830805Y-143358727D01*
X75830805Y-143358727D02*
X75830805Y-142379947D01*
X75830805Y-142379947D02*
X75756442Y-142346066D01*
X75756442Y-142346066D02*
X75692410Y-142320970D01*
X75692410Y-142320970D02*
X75654948Y-142312184D01*
X75654948Y-142312184D02*
X75645343Y-142339950D01*
X75645343Y-142339950D02*
X75636365Y-142417530D01*
X75636365Y-142417530D02*
X75628614Y-142536348D01*
X75628614Y-142536348D02*
X75622686Y-142687828D01*
X75622686Y-142687828D02*
X75619827Y-142815805D01*
X75619827Y-142815805D02*
X75611839Y-143319425D01*
X75611839Y-143319425D02*
X75542152Y-143329278D01*
X75542152Y-143329278D02*
X75478771Y-143322389D01*
X75478771Y-143322389D02*
X75447714Y-143300083D01*
X75447714Y-143300083D02*
X75439033Y-143258379D01*
X75439033Y-143258379D02*
X75431622Y-143169544D01*
X75431622Y-143169544D02*
X75426069Y-143044834D01*
X75426069Y-143044834D02*
X75422964Y-142895507D01*
X75422964Y-142895507D02*
X75422516Y-142818661D01*
X75422516Y-142818661D02*
X75422069Y-142376287D01*
X75422069Y-142376287D02*
X75330126Y-142344235D01*
X75330126Y-142344235D02*
X75265051Y-142322443D01*
X75265051Y-142322443D02*
X75229653Y-142312281D01*
X75229653Y-142312281D02*
X75228632Y-142312184D01*
X75228632Y-142312184D02*
X75225080Y-142339809D01*
X75225080Y-142339809D02*
X75221177Y-142416411D01*
X75221177Y-142416411D02*
X75217249Y-142532579D01*
X75217249Y-142532579D02*
X75213624Y-142678904D01*
X75213624Y-142678904D02*
X75211092Y-142815805D01*
X75211092Y-142815805D02*
X75203103Y-143319425D01*
X75203103Y-143319425D02*
X75027931Y-143319425D01*
X75027931Y-143319425D02*
X75019893Y-142859965D01*
X75019893Y-142859965D02*
X75011854Y-142400505D01*
X75011854Y-142400505D02*
X74926457Y-142356344D01*
X74926457Y-142356344D02*
X74863407Y-142326019D01*
X74863407Y-142326019D02*
X74826090Y-142312258D01*
X74826090Y-142312258D02*
X74825013Y-142312184D01*
X74825013Y-142312184D02*
X74819876Y-142339840D01*
X74819876Y-142339840D02*
X74819876Y-142339840D01*
G36*
X75692410Y-142320970D02*
G01*
X75756442Y-142346066D01*
X75830805Y-142379947D01*
X75830805Y-143358727D01*
X75738415Y-143451117D01*
X75717310Y-143471835D01*
X75658847Y-143517885D01*
X75599886Y-143532801D01*
X75512150Y-143525934D01*
X75476429Y-143521494D01*
X75384301Y-143512102D01*
X75319885Y-143508361D01*
X75300778Y-143508933D01*
X75222390Y-143515126D01*
X75127620Y-143525934D01*
X75097298Y-143529647D01*
X75020911Y-143531107D01*
X74965022Y-143508047D01*
X74901355Y-143451117D01*
X74808965Y-143358727D01*
X74808965Y-142835455D01*
X74809685Y-142680821D01*
X74811929Y-142533391D01*
X74815421Y-142416653D01*
X74819876Y-142339840D01*
X74825013Y-142312184D01*
X74826090Y-142312258D01*
X74863407Y-142326019D01*
X74926457Y-142356344D01*
X75011854Y-142400505D01*
X75019893Y-142859965D01*
X75027931Y-143319425D01*
X75203103Y-143319425D01*
X75211092Y-142815805D01*
X75213624Y-142678904D01*
X75217249Y-142532579D01*
X75221177Y-142416411D01*
X75225080Y-142339809D01*
X75228632Y-142312184D01*
X75229653Y-142312281D01*
X75265051Y-142322443D01*
X75330126Y-142344235D01*
X75422069Y-142376287D01*
X75422516Y-142818661D01*
X75422964Y-142895507D01*
X75426069Y-143044834D01*
X75431622Y-143169544D01*
X75439033Y-143258379D01*
X75447714Y-143300083D01*
X75478771Y-143322389D01*
X75542152Y-143329278D01*
X75611839Y-143319425D01*
X75619827Y-142815805D01*
X75622686Y-142687828D01*
X75628614Y-142536348D01*
X75636365Y-142417530D01*
X75645343Y-142339950D01*
X75654948Y-142312184D01*
X75692410Y-142320970D01*
G37*
X75692410Y-142320970D02*
X75756442Y-142346066D01*
X75830805Y-142379947D01*
X75830805Y-143358727D01*
X75738415Y-143451117D01*
X75717310Y-143471835D01*
X75658847Y-143517885D01*
X75599886Y-143532801D01*
X75512150Y-143525934D01*
X75476429Y-143521494D01*
X75384301Y-143512102D01*
X75319885Y-143508361D01*
X75300778Y-143508933D01*
X75222390Y-143515126D01*
X75127620Y-143525934D01*
X75097298Y-143529647D01*
X75020911Y-143531107D01*
X74965022Y-143508047D01*
X74901355Y-143451117D01*
X74808965Y-143358727D01*
X74808965Y-142835455D01*
X74809685Y-142680821D01*
X74811929Y-142533391D01*
X74815421Y-142416653D01*
X74819876Y-142339840D01*
X74825013Y-142312184D01*
X74826090Y-142312258D01*
X74863407Y-142326019D01*
X74926457Y-142356344D01*
X75011854Y-142400505D01*
X75019893Y-142859965D01*
X75027931Y-143319425D01*
X75203103Y-143319425D01*
X75211092Y-142815805D01*
X75213624Y-142678904D01*
X75217249Y-142532579D01*
X75221177Y-142416411D01*
X75225080Y-142339809D01*
X75228632Y-142312184D01*
X75229653Y-142312281D01*
X75265051Y-142322443D01*
X75330126Y-142344235D01*
X75422069Y-142376287D01*
X75422516Y-142818661D01*
X75422964Y-142895507D01*
X75426069Y-143044834D01*
X75431622Y-143169544D01*
X75439033Y-143258379D01*
X75447714Y-143300083D01*
X75478771Y-143322389D01*
X75542152Y-143329278D01*
X75611839Y-143319425D01*
X75619827Y-142815805D01*
X75622686Y-142687828D01*
X75628614Y-142536348D01*
X75636365Y-142417530D01*
X75645343Y-142339950D01*
X75654948Y-142312184D01*
X75692410Y-142320970D01*
X76006086Y-142554455D02*
X76006457Y-142772661D01*
X76006457Y-142772661D02*
X76007892Y-142940519D01*
X76007892Y-142940519D02*
X76010998Y-143066070D01*
X76010998Y-143066070D02*
X76016378Y-143157355D01*
X76016378Y-143157355D02*
X76024638Y-143222415D01*
X76024638Y-143222415D02*
X76036384Y-143269291D01*
X76036384Y-143269291D02*
X76052219Y-143306024D01*
X76052219Y-143306024D02*
X76064210Y-143326991D01*
X76064210Y-143326991D02*
X76163510Y-143440694D01*
X76163510Y-143440694D02*
X76289412Y-143511965D01*
X76289412Y-143511965D02*
X76428709Y-143537538D01*
X76428709Y-143537538D02*
X76568195Y-143514150D01*
X76568195Y-143514150D02*
X76651257Y-143472119D01*
X76651257Y-143472119D02*
X76738455Y-143399411D01*
X76738455Y-143399411D02*
X76797883Y-143310612D01*
X76797883Y-143310612D02*
X76833739Y-143194320D01*
X76833739Y-143194320D02*
X76850219Y-143039135D01*
X76850219Y-143039135D02*
X76852553Y-142925287D01*
X76852553Y-142925287D02*
X76852239Y-142917106D01*
X76852239Y-142917106D02*
X76648276Y-142917106D01*
X76648276Y-142917106D02*
X76647030Y-143047657D01*
X76647030Y-143047657D02*
X76641322Y-143134080D01*
X76641322Y-143134080D02*
X76628196Y-143190618D01*
X76628196Y-143190618D02*
X76604694Y-143231514D01*
X76604694Y-143231514D02*
X76576614Y-143262362D01*
X76576614Y-143262362D02*
X76482312Y-143321905D01*
X76482312Y-143321905D02*
X76381060Y-143326992D01*
X76381060Y-143326992D02*
X76285364Y-143277279D01*
X76285364Y-143277279D02*
X76277916Y-143270543D01*
X76277916Y-143270543D02*
X76246126Y-143235502D01*
X76246126Y-143235502D02*
X76226192Y-143193811D01*
X76226192Y-143193811D02*
X76215400Y-143131762D01*
X76215400Y-143131762D02*
X76211035Y-143035644D01*
X76211035Y-143035644D02*
X76210345Y-142929379D01*
X76210345Y-142929379D02*
X76211841Y-142795880D01*
X76211841Y-142795880D02*
X76218036Y-142706822D01*
X76218036Y-142706822D02*
X76231486Y-142648293D01*
X76231486Y-142648293D02*
X76254749Y-142606382D01*
X76254749Y-142606382D02*
X76273825Y-142584123D01*
X76273825Y-142584123D02*
X76362437Y-142527985D01*
X76362437Y-142527985D02*
X76464492Y-142521235D01*
X76464492Y-142521235D02*
X76561905Y-142564114D01*
X76561905Y-142564114D02*
X76580704Y-142580032D01*
X76580704Y-142580032D02*
X76612707Y-142615382D01*
X76612707Y-142615382D02*
X76632682Y-142657502D01*
X76632682Y-142657502D02*
X76643407Y-142720251D01*
X76643407Y-142720251D02*
X76647661Y-142817487D01*
X76647661Y-142817487D02*
X76648276Y-142917106D01*
X76648276Y-142917106D02*
X76852239Y-142917106D01*
X76852239Y-142917106D02*
X76845496Y-142741947D01*
X76845496Y-142741947D02*
X76821528Y-142604195D01*
X76821528Y-142604195D02*
X76776452Y-142500632D01*
X76776452Y-142500632D02*
X76706072Y-142419856D01*
X76706072Y-142419856D02*
X76651257Y-142378455D01*
X76651257Y-142378455D02*
X76551624Y-142333728D01*
X76551624Y-142333728D02*
X76436145Y-142312967D01*
X76436145Y-142312967D02*
X76328801Y-142318525D01*
X76328801Y-142318525D02*
X76268736Y-142340943D01*
X76268736Y-142340943D02*
X76245165Y-142347323D01*
X76245165Y-142347323D02*
X76229523Y-142323535D01*
X76229523Y-142323535D02*
X76218605Y-142259788D01*
X76218605Y-142259788D02*
X76210345Y-142162687D01*
X76210345Y-142162687D02*
X76201301Y-142054541D01*
X76201301Y-142054541D02*
X76188739Y-141989475D01*
X76188739Y-141989475D02*
X76165881Y-141952268D01*
X76165881Y-141952268D02*
X76125949Y-141927699D01*
X76125949Y-141927699D02*
X76100862Y-141916819D01*
X76100862Y-141916819D02*
X76005977Y-141877072D01*
X76005977Y-141877072D02*
X76006086Y-142554455D01*
X76006086Y-142554455D02*
X76006086Y-142554455D01*
G36*
X76850219Y-143039135D02*
G01*
X76833739Y-143194320D01*
X76797883Y-143310612D01*
X76738455Y-143399411D01*
X76651257Y-143472119D01*
X76568195Y-143514150D01*
X76428709Y-143537538D01*
X76289412Y-143511965D01*
X76163510Y-143440694D01*
X76064210Y-143326991D01*
X76052219Y-143306024D01*
X76036384Y-143269291D01*
X76024638Y-143222415D01*
X76016378Y-143157355D01*
X76010998Y-143066070D01*
X76007892Y-142940519D01*
X76007797Y-142929379D01*
X76210345Y-142929379D01*
X76211035Y-143035644D01*
X76215400Y-143131762D01*
X76226192Y-143193811D01*
X76246126Y-143235502D01*
X76277916Y-143270543D01*
X76285364Y-143277279D01*
X76381060Y-143326992D01*
X76482312Y-143321905D01*
X76576614Y-143262362D01*
X76604694Y-143231514D01*
X76628196Y-143190618D01*
X76641322Y-143134080D01*
X76647030Y-143047657D01*
X76648276Y-142917106D01*
X76647661Y-142817487D01*
X76643407Y-142720251D01*
X76632682Y-142657502D01*
X76612707Y-142615382D01*
X76580704Y-142580032D01*
X76561905Y-142564114D01*
X76464492Y-142521235D01*
X76362437Y-142527985D01*
X76273825Y-142584123D01*
X76254749Y-142606382D01*
X76231486Y-142648293D01*
X76218036Y-142706822D01*
X76211841Y-142795880D01*
X76210345Y-142929379D01*
X76007797Y-142929379D01*
X76006457Y-142772661D01*
X76006086Y-142554455D01*
X76005977Y-141877072D01*
X76100862Y-141916819D01*
X76125949Y-141927699D01*
X76165881Y-141952268D01*
X76188739Y-141989475D01*
X76201301Y-142054541D01*
X76210345Y-142162687D01*
X76218605Y-142259788D01*
X76229523Y-142323535D01*
X76245165Y-142347323D01*
X76268736Y-142340943D01*
X76328801Y-142318525D01*
X76436145Y-142312967D01*
X76551624Y-142333728D01*
X76651257Y-142378455D01*
X76706072Y-142419856D01*
X76776452Y-142500632D01*
X76821528Y-142604195D01*
X76845496Y-142741947D01*
X76852239Y-142917106D01*
X76852553Y-142925287D01*
X76850219Y-143039135D01*
G37*
X76850219Y-143039135D02*
X76833739Y-143194320D01*
X76797883Y-143310612D01*
X76738455Y-143399411D01*
X76651257Y-143472119D01*
X76568195Y-143514150D01*
X76428709Y-143537538D01*
X76289412Y-143511965D01*
X76163510Y-143440694D01*
X76064210Y-143326991D01*
X76052219Y-143306024D01*
X76036384Y-143269291D01*
X76024638Y-143222415D01*
X76016378Y-143157355D01*
X76010998Y-143066070D01*
X76007892Y-142940519D01*
X76007797Y-142929379D01*
X76210345Y-142929379D01*
X76211035Y-143035644D01*
X76215400Y-143131762D01*
X76226192Y-143193811D01*
X76246126Y-143235502D01*
X76277916Y-143270543D01*
X76285364Y-143277279D01*
X76381060Y-143326992D01*
X76482312Y-143321905D01*
X76576614Y-143262362D01*
X76604694Y-143231514D01*
X76628196Y-143190618D01*
X76641322Y-143134080D01*
X76647030Y-143047657D01*
X76648276Y-142917106D01*
X76647661Y-142817487D01*
X76643407Y-142720251D01*
X76632682Y-142657502D01*
X76612707Y-142615382D01*
X76580704Y-142580032D01*
X76561905Y-142564114D01*
X76464492Y-142521235D01*
X76362437Y-142527985D01*
X76273825Y-142584123D01*
X76254749Y-142606382D01*
X76231486Y-142648293D01*
X76218036Y-142706822D01*
X76211841Y-142795880D01*
X76210345Y-142929379D01*
X76007797Y-142929379D01*
X76006457Y-142772661D01*
X76006086Y-142554455D01*
X76005977Y-141877072D01*
X76100862Y-141916819D01*
X76125949Y-141927699D01*
X76165881Y-141952268D01*
X76188739Y-141989475D01*
X76201301Y-142054541D01*
X76210345Y-142162687D01*
X76218605Y-142259788D01*
X76229523Y-142323535D01*
X76245165Y-142347323D01*
X76268736Y-142340943D01*
X76328801Y-142318525D01*
X76436145Y-142312967D01*
X76551624Y-142333728D01*
X76651257Y-142378455D01*
X76706072Y-142419856D01*
X76776452Y-142500632D01*
X76821528Y-142604195D01*
X76845496Y-142741947D01*
X76852239Y-142917106D01*
X76852553Y-142925287D01*
X76850219Y-143039135D01*
X77334057Y-142321920D02*
X77201435Y-142370859D01*
X77201435Y-142370859D02*
X77093990Y-142457419D01*
X77093990Y-142457419D02*
X77051968Y-142518352D01*
X77051968Y-142518352D02*
X77006157Y-142630161D01*
X77006157Y-142630161D02*
X77007109Y-142711006D01*
X77007109Y-142711006D02*
X77055192Y-142765378D01*
X77055192Y-142765378D02*
X77072983Y-142774624D01*
X77072983Y-142774624D02*
X77149796Y-142803450D01*
X77149796Y-142803450D02*
X77189024Y-142796065D01*
X77189024Y-142796065D02*
X77202311Y-142747658D01*
X77202311Y-142747658D02*
X77202988Y-142720920D01*
X77202988Y-142720920D02*
X77227314Y-142622548D01*
X77227314Y-142622548D02*
X77290719Y-142553734D01*
X77290719Y-142553734D02*
X77378846Y-142520498D01*
X77378846Y-142520498D02*
X77477337Y-142528861D01*
X77477337Y-142528861D02*
X77557398Y-142572296D01*
X77557398Y-142572296D02*
X77584439Y-142597072D01*
X77584439Y-142597072D02*
X77603606Y-142627129D01*
X77603606Y-142627129D02*
X77616554Y-142672565D01*
X77616554Y-142672565D02*
X77624936Y-142743476D01*
X77624936Y-142743476D02*
X77630407Y-142849960D01*
X77630407Y-142849960D02*
X77634622Y-143002112D01*
X77634622Y-143002112D02*
X77635713Y-143050287D01*
X77635713Y-143050287D02*
X77639693Y-143215095D01*
X77639693Y-143215095D02*
X77644219Y-143331088D01*
X77644219Y-143331088D02*
X77651005Y-143407833D01*
X77651005Y-143407833D02*
X77661769Y-143454893D01*
X77661769Y-143454893D02*
X77678227Y-143481835D01*
X77678227Y-143481835D02*
X77702094Y-143498223D01*
X77702094Y-143498223D02*
X77717374Y-143505463D01*
X77717374Y-143505463D02*
X77782267Y-143530220D01*
X77782267Y-143530220D02*
X77820466Y-143538391D01*
X77820466Y-143538391D02*
X77833088Y-143511103D01*
X77833088Y-143511103D02*
X77840792Y-143428603D01*
X77840792Y-143428603D02*
X77843620Y-143289941D01*
X77843620Y-143289941D02*
X77841614Y-143094162D01*
X77841614Y-143094162D02*
X77840989Y-143063965D01*
X77840989Y-143063965D02*
X77836579Y-142885349D01*
X77836579Y-142885349D02*
X77831365Y-142754923D01*
X77831365Y-142754923D02*
X77823945Y-142662492D01*
X77823945Y-142662492D02*
X77812918Y-142597858D01*
X77812918Y-142597858D02*
X77796883Y-142550825D01*
X77796883Y-142550825D02*
X77774439Y-142511196D01*
X77774439Y-142511196D02*
X77762698Y-142494215D01*
X77762698Y-142494215D02*
X77695381Y-142419080D01*
X77695381Y-142419080D02*
X77620090Y-142360638D01*
X77620090Y-142360638D02*
X77610872Y-142355536D01*
X77610872Y-142355536D02*
X77475867Y-142315260D01*
X77475867Y-142315260D02*
X77334057Y-142321920D01*
X77334057Y-142321920D02*
X77334057Y-142321920D01*
G36*
X77610872Y-142355536D02*
G01*
X77620090Y-142360638D01*
X77695381Y-142419080D01*
X77762698Y-142494215D01*
X77774439Y-142511196D01*
X77796883Y-142550825D01*
X77812918Y-142597858D01*
X77823945Y-142662492D01*
X77831365Y-142754923D01*
X77836579Y-142885349D01*
X77840989Y-143063965D01*
X77841614Y-143094162D01*
X77843620Y-143289941D01*
X77840792Y-143428603D01*
X77833088Y-143511103D01*
X77820466Y-143538391D01*
X77782267Y-143530220D01*
X77717374Y-143505463D01*
X77702094Y-143498223D01*
X77678227Y-143481835D01*
X77661769Y-143454893D01*
X77651005Y-143407833D01*
X77644219Y-143331088D01*
X77639693Y-143215095D01*
X77635713Y-143050287D01*
X77634622Y-143002112D01*
X77630407Y-142849960D01*
X77624936Y-142743476D01*
X77616554Y-142672565D01*
X77603606Y-142627129D01*
X77584439Y-142597072D01*
X77557398Y-142572296D01*
X77477337Y-142528861D01*
X77378846Y-142520498D01*
X77290719Y-142553734D01*
X77227314Y-142622548D01*
X77202988Y-142720920D01*
X77202311Y-142747658D01*
X77189024Y-142796065D01*
X77149796Y-142803450D01*
X77072983Y-142774624D01*
X77055192Y-142765378D01*
X77007109Y-142711006D01*
X77006157Y-142630161D01*
X77051968Y-142518352D01*
X77093990Y-142457419D01*
X77201435Y-142370859D01*
X77334057Y-142321920D01*
X77475867Y-142315260D01*
X77610872Y-142355536D01*
G37*
X77610872Y-142355536D02*
X77620090Y-142360638D01*
X77695381Y-142419080D01*
X77762698Y-142494215D01*
X77774439Y-142511196D01*
X77796883Y-142550825D01*
X77812918Y-142597858D01*
X77823945Y-142662492D01*
X77831365Y-142754923D01*
X77836579Y-142885349D01*
X77840989Y-143063965D01*
X77841614Y-143094162D01*
X77843620Y-143289941D01*
X77840792Y-143428603D01*
X77833088Y-143511103D01*
X77820466Y-143538391D01*
X77782267Y-143530220D01*
X77717374Y-143505463D01*
X77702094Y-143498223D01*
X77678227Y-143481835D01*
X77661769Y-143454893D01*
X77651005Y-143407833D01*
X77644219Y-143331088D01*
X77639693Y-143215095D01*
X77635713Y-143050287D01*
X77634622Y-143002112D01*
X77630407Y-142849960D01*
X77624936Y-142743476D01*
X77616554Y-142672565D01*
X77603606Y-142627129D01*
X77584439Y-142597072D01*
X77557398Y-142572296D01*
X77477337Y-142528861D01*
X77378846Y-142520498D01*
X77290719Y-142553734D01*
X77227314Y-142622548D01*
X77202988Y-142720920D01*
X77202311Y-142747658D01*
X77189024Y-142796065D01*
X77149796Y-142803450D01*
X77072983Y-142774624D01*
X77055192Y-142765378D01*
X77007109Y-142711006D01*
X77006157Y-142630161D01*
X77051968Y-142518352D01*
X77093990Y-142457419D01*
X77201435Y-142370859D01*
X77334057Y-142321920D01*
X77475867Y-142315260D01*
X77610872Y-142355536D01*
X78320056Y-142324360D02*
X78205657Y-142366842D01*
X78205657Y-142366842D02*
X78204348Y-142367658D01*
X78204348Y-142367658D02*
X78133597Y-142419730D01*
X78133597Y-142419730D02*
X78081364Y-142480584D01*
X78081364Y-142480584D02*
X78044629Y-142559887D01*
X78044629Y-142559887D02*
X78020366Y-142667309D01*
X78020366Y-142667309D02*
X78005555Y-142812517D01*
X78005555Y-142812517D02*
X77997171Y-143005179D01*
X77997171Y-143005179D02*
X77996436Y-143032628D01*
X77996436Y-143032628D02*
X77985880Y-143446521D01*
X77985880Y-143446521D02*
X78074709Y-143492456D01*
X78074709Y-143492456D02*
X78138982Y-143523498D01*
X78138982Y-143523498D02*
X78177790Y-143538206D01*
X78177790Y-143538206D02*
X78179585Y-143538391D01*
X78179585Y-143538391D02*
X78186300Y-143511250D01*
X78186300Y-143511250D02*
X78191635Y-143438041D01*
X78191635Y-143438041D02*
X78194917Y-143331081D01*
X78194917Y-143331081D02*
X78195632Y-143244469D01*
X78195632Y-143244469D02*
X78195649Y-143104162D01*
X78195649Y-143104162D02*
X78202063Y-143016051D01*
X78202063Y-143016051D02*
X78224420Y-142974025D01*
X78224420Y-142974025D02*
X78272268Y-142971975D01*
X78272268Y-142971975D02*
X78355151Y-143003790D01*
X78355151Y-143003790D02*
X78480287Y-143062272D01*
X78480287Y-143062272D02*
X78572303Y-143110845D01*
X78572303Y-143110845D02*
X78619629Y-143152986D01*
X78619629Y-143152986D02*
X78633542Y-143198916D01*
X78633542Y-143198916D02*
X78633563Y-143201189D01*
X78633563Y-143201189D02*
X78610605Y-143280311D01*
X78610605Y-143280311D02*
X78542630Y-143323055D01*
X78542630Y-143323055D02*
X78438602Y-143329246D01*
X78438602Y-143329246D02*
X78363670Y-143328172D01*
X78363670Y-143328172D02*
X78324161Y-143349753D01*
X78324161Y-143349753D02*
X78299522Y-143401591D01*
X78299522Y-143401591D02*
X78285341Y-143467632D01*
X78285341Y-143467632D02*
X78305777Y-143505104D01*
X78305777Y-143505104D02*
X78313472Y-143510467D01*
X78313472Y-143510467D02*
X78385917Y-143532006D01*
X78385917Y-143532006D02*
X78487367Y-143535055D01*
X78487367Y-143535055D02*
X78591843Y-143520778D01*
X78591843Y-143520778D02*
X78665875Y-143494688D01*
X78665875Y-143494688D02*
X78768228Y-143407785D01*
X78768228Y-143407785D02*
X78826409Y-143286816D01*
X78826409Y-143286816D02*
X78837931Y-143192308D01*
X78837931Y-143192308D02*
X78829138Y-143107062D01*
X78829138Y-143107062D02*
X78797320Y-143037476D01*
X78797320Y-143037476D02*
X78734316Y-142975672D01*
X78734316Y-142975672D02*
X78631969Y-142913772D01*
X78631969Y-142913772D02*
X78482118Y-142843897D01*
X78482118Y-142843897D02*
X78472988Y-142839948D01*
X78472988Y-142839948D02*
X78338003Y-142777588D01*
X78338003Y-142777588D02*
X78254706Y-142726446D01*
X78254706Y-142726446D02*
X78219003Y-142680488D01*
X78219003Y-142680488D02*
X78226797Y-142633683D01*
X78226797Y-142633683D02*
X78273993Y-142579998D01*
X78273993Y-142579998D02*
X78288106Y-142567644D01*
X78288106Y-142567644D02*
X78382641Y-142519741D01*
X78382641Y-142519741D02*
X78480594Y-142521758D01*
X78480594Y-142521758D02*
X78565903Y-142568724D01*
X78565903Y-142568724D02*
X78622504Y-142655669D01*
X78622504Y-142655669D02*
X78627763Y-142672734D01*
X78627763Y-142672734D02*
X78678977Y-142755504D01*
X78678977Y-142755504D02*
X78743963Y-142795372D01*
X78743963Y-142795372D02*
X78837931Y-142834882D01*
X78837931Y-142834882D02*
X78837931Y-142732658D01*
X78837931Y-142732658D02*
X78809347Y-142584072D01*
X78809347Y-142584072D02*
X78724505Y-142447784D01*
X78724505Y-142447784D02*
X78680355Y-142402191D01*
X78680355Y-142402191D02*
X78579995Y-142343674D01*
X78579995Y-142343674D02*
X78452365Y-142317184D01*
X78452365Y-142317184D02*
X78320056Y-142324360D01*
X78320056Y-142324360D02*
X78320056Y-142324360D01*
G36*
X78579995Y-142343674D02*
G01*
X78680355Y-142402191D01*
X78724505Y-142447784D01*
X78809347Y-142584072D01*
X78837931Y-142732658D01*
X78837931Y-142834882D01*
X78743963Y-142795372D01*
X78678977Y-142755504D01*
X78627763Y-142672734D01*
X78622504Y-142655669D01*
X78565903Y-142568724D01*
X78480594Y-142521758D01*
X78382641Y-142519741D01*
X78288106Y-142567644D01*
X78273993Y-142579998D01*
X78226797Y-142633683D01*
X78219003Y-142680488D01*
X78254706Y-142726446D01*
X78338003Y-142777588D01*
X78472988Y-142839948D01*
X78482118Y-142843897D01*
X78631969Y-142913772D01*
X78734316Y-142975672D01*
X78797320Y-143037476D01*
X78829138Y-143107062D01*
X78837931Y-143192308D01*
X78826409Y-143286816D01*
X78768228Y-143407785D01*
X78665875Y-143494688D01*
X78591843Y-143520778D01*
X78487367Y-143535055D01*
X78385917Y-143532006D01*
X78313472Y-143510467D01*
X78305777Y-143505104D01*
X78285341Y-143467632D01*
X78299522Y-143401591D01*
X78324161Y-143349753D01*
X78363670Y-143328172D01*
X78438602Y-143329246D01*
X78542630Y-143323055D01*
X78610605Y-143280311D01*
X78633563Y-143201189D01*
X78633542Y-143198916D01*
X78619629Y-143152986D01*
X78572303Y-143110845D01*
X78480287Y-143062272D01*
X78355151Y-143003790D01*
X78272268Y-142971975D01*
X78224420Y-142974025D01*
X78202063Y-143016051D01*
X78195649Y-143104162D01*
X78195632Y-143244469D01*
X78194917Y-143331081D01*
X78191635Y-143438041D01*
X78186300Y-143511250D01*
X78179585Y-143538391D01*
X78177790Y-143538206D01*
X78138982Y-143523498D01*
X78074709Y-143492456D01*
X77985880Y-143446521D01*
X77996436Y-143032628D01*
X77997171Y-143005179D01*
X78005555Y-142812517D01*
X78020366Y-142667309D01*
X78044629Y-142559887D01*
X78081364Y-142480584D01*
X78133597Y-142419730D01*
X78204348Y-142367658D01*
X78205657Y-142366842D01*
X78320056Y-142324360D01*
X78452365Y-142317184D01*
X78579995Y-142343674D01*
G37*
X78579995Y-142343674D02*
X78680355Y-142402191D01*
X78724505Y-142447784D01*
X78809347Y-142584072D01*
X78837931Y-142732658D01*
X78837931Y-142834882D01*
X78743963Y-142795372D01*
X78678977Y-142755504D01*
X78627763Y-142672734D01*
X78622504Y-142655669D01*
X78565903Y-142568724D01*
X78480594Y-142521758D01*
X78382641Y-142519741D01*
X78288106Y-142567644D01*
X78273993Y-142579998D01*
X78226797Y-142633683D01*
X78219003Y-142680488D01*
X78254706Y-142726446D01*
X78338003Y-142777588D01*
X78472988Y-142839948D01*
X78482118Y-142843897D01*
X78631969Y-142913772D01*
X78734316Y-142975672D01*
X78797320Y-143037476D01*
X78829138Y-143107062D01*
X78837931Y-143192308D01*
X78826409Y-143286816D01*
X78768228Y-143407785D01*
X78665875Y-143494688D01*
X78591843Y-143520778D01*
X78487367Y-143535055D01*
X78385917Y-143532006D01*
X78313472Y-143510467D01*
X78305777Y-143505104D01*
X78285341Y-143467632D01*
X78299522Y-143401591D01*
X78324161Y-143349753D01*
X78363670Y-143328172D01*
X78438602Y-143329246D01*
X78542630Y-143323055D01*
X78610605Y-143280311D01*
X78633563Y-143201189D01*
X78633542Y-143198916D01*
X78619629Y-143152986D01*
X78572303Y-143110845D01*
X78480287Y-143062272D01*
X78355151Y-143003790D01*
X78272268Y-142971975D01*
X78224420Y-142974025D01*
X78202063Y-143016051D01*
X78195649Y-143104162D01*
X78195632Y-143244469D01*
X78194917Y-143331081D01*
X78191635Y-143438041D01*
X78186300Y-143511250D01*
X78179585Y-143538391D01*
X78177790Y-143538206D01*
X78138982Y-143523498D01*
X78074709Y-143492456D01*
X77985880Y-143446521D01*
X77996436Y-143032628D01*
X77997171Y-143005179D01*
X78005555Y-142812517D01*
X78020366Y-142667309D01*
X78044629Y-142559887D01*
X78081364Y-142480584D01*
X78133597Y-142419730D01*
X78204348Y-142367658D01*
X78205657Y-142366842D01*
X78320056Y-142324360D01*
X78452365Y-142317184D01*
X78579995Y-142343674D01*
X79655402Y-142123857D02*
X79646846Y-142243188D01*
X79646846Y-142243188D02*
X79637019Y-142313506D01*
X79637019Y-142313506D02*
X79623401Y-142344179D01*
X79623401Y-142344179D02*
X79603473Y-142344571D01*
X79603473Y-142344571D02*
X79597011Y-142340910D01*
X79597011Y-142340910D02*
X79511060Y-142314398D01*
X79511060Y-142314398D02*
X79399255Y-142315946D01*
X79399255Y-142315946D02*
X79285586Y-142343199D01*
X79285586Y-142343199D02*
X79214490Y-142378455D01*
X79214490Y-142378455D02*
X79141595Y-142434778D01*
X79141595Y-142434778D02*
X79088307Y-142498519D01*
X79088307Y-142498519D02*
X79051725Y-142579510D01*
X79051725Y-142579510D02*
X79028950Y-142687586D01*
X79028950Y-142687586D02*
X79017081Y-142832580D01*
X79017081Y-142832580D02*
X79013218Y-143024326D01*
X79013218Y-143024326D02*
X79013149Y-143061109D01*
X79013149Y-143061109D02*
X79013103Y-143474288D01*
X79013103Y-143474288D02*
X79105046Y-143506339D01*
X79105046Y-143506339D02*
X79170348Y-143528144D01*
X79170348Y-143528144D02*
X79206176Y-143538297D01*
X79206176Y-143538297D02*
X79207230Y-143538391D01*
X79207230Y-143538391D02*
X79210758Y-143510860D01*
X79210758Y-143510860D02*
X79213761Y-143434923D01*
X79213761Y-143434923D02*
X79216010Y-143320565D01*
X79216010Y-143320565D02*
X79217276Y-143177769D01*
X79217276Y-143177769D02*
X79217471Y-143090951D01*
X79217471Y-143090951D02*
X79217877Y-142919773D01*
X79217877Y-142919773D02*
X79219968Y-142797088D01*
X79219968Y-142797088D02*
X79225053Y-142713000D01*
X79225053Y-142713000D02*
X79234440Y-142657614D01*
X79234440Y-142657614D02*
X79249439Y-142621032D01*
X79249439Y-142621032D02*
X79271358Y-142593359D01*
X79271358Y-142593359D02*
X79285043Y-142580032D01*
X79285043Y-142580032D02*
X79379051Y-142526328D01*
X79379051Y-142526328D02*
X79481636Y-142522307D01*
X79481636Y-142522307D02*
X79574710Y-142567725D01*
X79574710Y-142567725D02*
X79591922Y-142584123D01*
X79591922Y-142584123D02*
X79617168Y-142614957D01*
X79617168Y-142614957D02*
X79634680Y-142651531D01*
X79634680Y-142651531D02*
X79645858Y-142704415D01*
X79645858Y-142704415D02*
X79652104Y-142784177D01*
X79652104Y-142784177D02*
X79654818Y-142901385D01*
X79654818Y-142901385D02*
X79655402Y-143062991D01*
X79655402Y-143062991D02*
X79655402Y-143474288D01*
X79655402Y-143474288D02*
X79747345Y-143506339D01*
X79747345Y-143506339D02*
X79812647Y-143528144D01*
X79812647Y-143528144D02*
X79848475Y-143538297D01*
X79848475Y-143538297D02*
X79849529Y-143538391D01*
X79849529Y-143538391D02*
X79852225Y-143510448D01*
X79852225Y-143510448D02*
X79854655Y-143431630D01*
X79854655Y-143431630D02*
X79856722Y-143309453D01*
X79856722Y-143309453D02*
X79858329Y-143151432D01*
X79858329Y-143151432D02*
X79859377Y-142965083D01*
X79859377Y-142965083D02*
X79859769Y-142757920D01*
X79859769Y-142757920D02*
X79859770Y-142748706D01*
X79859770Y-142748706D02*
X79859770Y-141959020D01*
X79859770Y-141959020D02*
X79764885Y-141918997D01*
X79764885Y-141918997D02*
X79670000Y-141878973D01*
X79670000Y-141878973D02*
X79655402Y-142123857D01*
X79655402Y-142123857D02*
X79655402Y-142123857D01*
G36*
X79764885Y-141918997D02*
G01*
X79859770Y-141959020D01*
X79859770Y-142748706D01*
X79859769Y-142757920D01*
X79859377Y-142965083D01*
X79858329Y-143151432D01*
X79856722Y-143309453D01*
X79854655Y-143431630D01*
X79852225Y-143510448D01*
X79849529Y-143538391D01*
X79848475Y-143538297D01*
X79812647Y-143528144D01*
X79747345Y-143506339D01*
X79655402Y-143474288D01*
X79655402Y-143062991D01*
X79654818Y-142901385D01*
X79652104Y-142784177D01*
X79645858Y-142704415D01*
X79634680Y-142651531D01*
X79617168Y-142614957D01*
X79591922Y-142584123D01*
X79574710Y-142567725D01*
X79481636Y-142522307D01*
X79379051Y-142526328D01*
X79285043Y-142580032D01*
X79271358Y-142593359D01*
X79249439Y-142621032D01*
X79234440Y-142657614D01*
X79225053Y-142713000D01*
X79219968Y-142797088D01*
X79217877Y-142919773D01*
X79217471Y-143090951D01*
X79217276Y-143177769D01*
X79216010Y-143320565D01*
X79213761Y-143434923D01*
X79210758Y-143510860D01*
X79207230Y-143538391D01*
X79206176Y-143538297D01*
X79170348Y-143528144D01*
X79105046Y-143506339D01*
X79013103Y-143474288D01*
X79013149Y-143061109D01*
X79013218Y-143024326D01*
X79017081Y-142832580D01*
X79028950Y-142687586D01*
X79051725Y-142579510D01*
X79088307Y-142498519D01*
X79141595Y-142434778D01*
X79214490Y-142378455D01*
X79285586Y-142343199D01*
X79399255Y-142315946D01*
X79511060Y-142314398D01*
X79597011Y-142340910D01*
X79603473Y-142344571D01*
X79623401Y-142344179D01*
X79637019Y-142313506D01*
X79646846Y-142243188D01*
X79655402Y-142123857D01*
X79670000Y-141878973D01*
X79764885Y-141918997D01*
G37*
X79764885Y-141918997D02*
X79859770Y-141959020D01*
X79859770Y-142748706D01*
X79859769Y-142757920D01*
X79859377Y-142965083D01*
X79858329Y-143151432D01*
X79856722Y-143309453D01*
X79854655Y-143431630D01*
X79852225Y-143510448D01*
X79849529Y-143538391D01*
X79848475Y-143538297D01*
X79812647Y-143528144D01*
X79747345Y-143506339D01*
X79655402Y-143474288D01*
X79655402Y-143062991D01*
X79654818Y-142901385D01*
X79652104Y-142784177D01*
X79645858Y-142704415D01*
X79634680Y-142651531D01*
X79617168Y-142614957D01*
X79591922Y-142584123D01*
X79574710Y-142567725D01*
X79481636Y-142522307D01*
X79379051Y-142526328D01*
X79285043Y-142580032D01*
X79271358Y-142593359D01*
X79249439Y-142621032D01*
X79234440Y-142657614D01*
X79225053Y-142713000D01*
X79219968Y-142797088D01*
X79217877Y-142919773D01*
X79217471Y-143090951D01*
X79217276Y-143177769D01*
X79216010Y-143320565D01*
X79213761Y-143434923D01*
X79210758Y-143510860D01*
X79207230Y-143538391D01*
X79206176Y-143538297D01*
X79170348Y-143528144D01*
X79105046Y-143506339D01*
X79013103Y-143474288D01*
X79013149Y-143061109D01*
X79013218Y-143024326D01*
X79017081Y-142832580D01*
X79028950Y-142687586D01*
X79051725Y-142579510D01*
X79088307Y-142498519D01*
X79141595Y-142434778D01*
X79214490Y-142378455D01*
X79285586Y-142343199D01*
X79399255Y-142315946D01*
X79511060Y-142314398D01*
X79597011Y-142340910D01*
X79603473Y-142344571D01*
X79623401Y-142344179D01*
X79637019Y-142313506D01*
X79646846Y-142243188D01*
X79655402Y-142123857D01*
X79670000Y-141878973D01*
X79764885Y-141918997D01*
X82084448Y-142284676D02*
X81969342Y-142362111D01*
X81969342Y-142362111D02*
X81880389Y-142473949D01*
X81880389Y-142473949D02*
X81827251Y-142616265D01*
X81827251Y-142616265D02*
X81816503Y-142721015D01*
X81816503Y-142721015D02*
X81817724Y-142764726D01*
X81817724Y-142764726D02*
X81827944Y-142798194D01*
X81827944Y-142798194D02*
X81856039Y-142828179D01*
X81856039Y-142828179D02*
X81910884Y-142861440D01*
X81910884Y-142861440D02*
X82001355Y-142904738D01*
X82001355Y-142904738D02*
X82136328Y-142964833D01*
X82136328Y-142964833D02*
X82137011Y-142965134D01*
X82137011Y-142965134D02*
X82261249Y-143022037D01*
X82261249Y-143022037D02*
X82363127Y-143072565D01*
X82363127Y-143072565D02*
X82432233Y-143111280D01*
X82432233Y-143111280D02*
X82458154Y-143132740D01*
X82458154Y-143132740D02*
X82458161Y-143132913D01*
X82458161Y-143132913D02*
X82435315Y-143179644D01*
X82435315Y-143179644D02*
X82381891Y-143231154D01*
X82381891Y-143231154D02*
X82320558Y-143268261D01*
X82320558Y-143268261D02*
X82289485Y-143275632D01*
X82289485Y-143275632D02*
X82204711Y-143250138D01*
X82204711Y-143250138D02*
X82131707Y-143186291D01*
X82131707Y-143186291D02*
X82096087Y-143116094D01*
X82096087Y-143116094D02*
X82061820Y-143064343D01*
X82061820Y-143064343D02*
X81994697Y-143005409D01*
X81994697Y-143005409D02*
X81915792Y-142954496D01*
X81915792Y-142954496D02*
X81846179Y-142926809D01*
X81846179Y-142926809D02*
X81831623Y-142925287D01*
X81831623Y-142925287D02*
X81815237Y-142950321D01*
X81815237Y-142950321D02*
X81814250Y-143014311D01*
X81814250Y-143014311D02*
X81826292Y-143100593D01*
X81826292Y-143100593D02*
X81848993Y-143192501D01*
X81848993Y-143192501D02*
X81879986Y-143273369D01*
X81879986Y-143273369D02*
X81881552Y-143276509D01*
X81881552Y-143276509D02*
X81974819Y-143406734D01*
X81974819Y-143406734D02*
X82095696Y-143495311D01*
X82095696Y-143495311D02*
X82232973Y-143538786D01*
X82232973Y-143538786D02*
X82375440Y-143533706D01*
X82375440Y-143533706D02*
X82511888Y-143476616D01*
X82511888Y-143476616D02*
X82517955Y-143472602D01*
X82517955Y-143472602D02*
X82625290Y-143375326D01*
X82625290Y-143375326D02*
X82695868Y-143248409D01*
X82695868Y-143248409D02*
X82734926Y-143081526D01*
X82734926Y-143081526D02*
X82740168Y-143034639D01*
X82740168Y-143034639D02*
X82749452Y-142813329D01*
X82749452Y-142813329D02*
X82738322Y-142710124D01*
X82738322Y-142710124D02*
X82458161Y-142710124D01*
X82458161Y-142710124D02*
X82454521Y-142774503D01*
X82454521Y-142774503D02*
X82434611Y-142793291D01*
X82434611Y-142793291D02*
X82384974Y-142779235D01*
X82384974Y-142779235D02*
X82306733Y-142746009D01*
X82306733Y-142746009D02*
X82219274Y-142704359D01*
X82219274Y-142704359D02*
X82217101Y-142703256D01*
X82217101Y-142703256D02*
X82142970Y-142664265D01*
X82142970Y-142664265D02*
X82113219Y-142638244D01*
X82113219Y-142638244D02*
X82120555Y-142610965D01*
X82120555Y-142610965D02*
X82151447Y-142575121D01*
X82151447Y-142575121D02*
X82230040Y-142523251D01*
X82230040Y-142523251D02*
X82314677Y-142519439D01*
X82314677Y-142519439D02*
X82390597Y-142557189D01*
X82390597Y-142557189D02*
X82443035Y-142630001D01*
X82443035Y-142630001D02*
X82458161Y-142710124D01*
X82458161Y-142710124D02*
X82738322Y-142710124D01*
X82738322Y-142710124D02*
X82730356Y-142636261D01*
X82730356Y-142636261D02*
X82681366Y-142495829D01*
X82681366Y-142495829D02*
X82613164Y-142397447D01*
X82613164Y-142397447D02*
X82490065Y-142298030D01*
X82490065Y-142298030D02*
X82354472Y-142248711D01*
X82354472Y-142248711D02*
X82216045Y-142245568D01*
X82216045Y-142245568D02*
X82084448Y-142284676D01*
X82084448Y-142284676D02*
X82084448Y-142284676D01*
G36*
X82740168Y-143034639D02*
G01*
X82734926Y-143081526D01*
X82695868Y-143248409D01*
X82625290Y-143375326D01*
X82517955Y-143472602D01*
X82511888Y-143476616D01*
X82375440Y-143533706D01*
X82232973Y-143538786D01*
X82095696Y-143495311D01*
X81974819Y-143406734D01*
X81881552Y-143276509D01*
X81879986Y-143273369D01*
X81848993Y-143192501D01*
X81826292Y-143100593D01*
X81814250Y-143014311D01*
X81815237Y-142950321D01*
X81831623Y-142925287D01*
X81846179Y-142926809D01*
X81915792Y-142954496D01*
X81994697Y-143005409D01*
X82061820Y-143064343D01*
X82096087Y-143116094D01*
X82131707Y-143186291D01*
X82204711Y-143250138D01*
X82289485Y-143275632D01*
X82320558Y-143268261D01*
X82381891Y-143231154D01*
X82435315Y-143179644D01*
X82458161Y-143132913D01*
X82458154Y-143132740D01*
X82432233Y-143111280D01*
X82363127Y-143072565D01*
X82261249Y-143022037D01*
X82137011Y-142965134D01*
X82136328Y-142964833D01*
X82001355Y-142904738D01*
X81910884Y-142861440D01*
X81856039Y-142828179D01*
X81827944Y-142798194D01*
X81817724Y-142764726D01*
X81816503Y-142721015D01*
X81824996Y-142638244D01*
X82113219Y-142638244D01*
X82142970Y-142664265D01*
X82217101Y-142703256D01*
X82219274Y-142704359D01*
X82306733Y-142746009D01*
X82384974Y-142779235D01*
X82434611Y-142793291D01*
X82454521Y-142774503D01*
X82458161Y-142710124D01*
X82443035Y-142630001D01*
X82390597Y-142557189D01*
X82314677Y-142519439D01*
X82230040Y-142523251D01*
X82151447Y-142575121D01*
X82120555Y-142610965D01*
X82113219Y-142638244D01*
X81824996Y-142638244D01*
X81827251Y-142616265D01*
X81880389Y-142473949D01*
X81969342Y-142362111D01*
X82084448Y-142284676D01*
X82216045Y-142245568D01*
X82354472Y-142248711D01*
X82490065Y-142298030D01*
X82613164Y-142397447D01*
X82681366Y-142495829D01*
X82730356Y-142636261D01*
X82738322Y-142710124D01*
X82749452Y-142813329D01*
X82740168Y-143034639D01*
G37*
X82740168Y-143034639D02*
X82734926Y-143081526D01*
X82695868Y-143248409D01*
X82625290Y-143375326D01*
X82517955Y-143472602D01*
X82511888Y-143476616D01*
X82375440Y-143533706D01*
X82232973Y-143538786D01*
X82095696Y-143495311D01*
X81974819Y-143406734D01*
X81881552Y-143276509D01*
X81879986Y-143273369D01*
X81848993Y-143192501D01*
X81826292Y-143100593D01*
X81814250Y-143014311D01*
X81815237Y-142950321D01*
X81831623Y-142925287D01*
X81846179Y-142926809D01*
X81915792Y-142954496D01*
X81994697Y-143005409D01*
X82061820Y-143064343D01*
X82096087Y-143116094D01*
X82131707Y-143186291D01*
X82204711Y-143250138D01*
X82289485Y-143275632D01*
X82320558Y-143268261D01*
X82381891Y-143231154D01*
X82435315Y-143179644D01*
X82458161Y-143132913D01*
X82458154Y-143132740D01*
X82432233Y-143111280D01*
X82363127Y-143072565D01*
X82261249Y-143022037D01*
X82137011Y-142965134D01*
X82136328Y-142964833D01*
X82001355Y-142904738D01*
X81910884Y-142861440D01*
X81856039Y-142828179D01*
X81827944Y-142798194D01*
X81817724Y-142764726D01*
X81816503Y-142721015D01*
X81824996Y-142638244D01*
X82113219Y-142638244D01*
X82142970Y-142664265D01*
X82217101Y-142703256D01*
X82219274Y-142704359D01*
X82306733Y-142746009D01*
X82384974Y-142779235D01*
X82434611Y-142793291D01*
X82454521Y-142774503D01*
X82458161Y-142710124D01*
X82443035Y-142630001D01*
X82390597Y-142557189D01*
X82314677Y-142519439D01*
X82230040Y-142523251D01*
X82151447Y-142575121D01*
X82120555Y-142610965D01*
X82113219Y-142638244D01*
X81824996Y-142638244D01*
X81827251Y-142616265D01*
X81880389Y-142473949D01*
X81969342Y-142362111D01*
X82084448Y-142284676D01*
X82216045Y-142245568D01*
X82354472Y-142248711D01*
X82490065Y-142298030D01*
X82613164Y-142397447D01*
X82681366Y-142495829D01*
X82730356Y-142636261D01*
X82738322Y-142710124D01*
X82749452Y-142813329D01*
X82740168Y-143034639D01*
X84351779Y-142266015D02*
X84214939Y-142337968D01*
X84214939Y-142337968D02*
X84113949Y-142453766D01*
X84113949Y-142453766D02*
X84078075Y-142528213D01*
X84078075Y-142528213D02*
X84050161Y-142639992D01*
X84050161Y-142639992D02*
X84035871Y-142781227D01*
X84035871Y-142781227D02*
X84034516Y-142935371D01*
X84034516Y-142935371D02*
X84045405Y-143085879D01*
X84045405Y-143085879D02*
X84067847Y-143216205D01*
X84067847Y-143216205D02*
X84101150Y-143309803D01*
X84101150Y-143309803D02*
X84111385Y-143325922D01*
X84111385Y-143325922D02*
X84232618Y-143446249D01*
X84232618Y-143446249D02*
X84376613Y-143518317D01*
X84376613Y-143518317D02*
X84532861Y-143539408D01*
X84532861Y-143539408D02*
X84690852Y-143506802D01*
X84690852Y-143506802D02*
X84734820Y-143487253D01*
X84734820Y-143487253D02*
X84820444Y-143427012D01*
X84820444Y-143427012D02*
X84895592Y-143347135D01*
X84895592Y-143347135D02*
X84902694Y-143337004D01*
X84902694Y-143337004D02*
X84931561Y-143288181D01*
X84931561Y-143288181D02*
X84950643Y-143235990D01*
X84950643Y-143235990D02*
X84961916Y-143167285D01*
X84961916Y-143167285D02*
X84967355Y-143068918D01*
X84967355Y-143068918D02*
X84968938Y-142927744D01*
X84968938Y-142927744D02*
X84968965Y-142896092D01*
X84968965Y-142896092D02*
X84968893Y-142886019D01*
X84968893Y-142886019D02*
X84677011Y-142886019D01*
X84677011Y-142886019D02*
X84675313Y-143019256D01*
X84675313Y-143019256D02*
X84668628Y-143107674D01*
X84668628Y-143107674D02*
X84654575Y-143164785D01*
X84654575Y-143164785D02*
X84630771Y-143204102D01*
X84630771Y-143204102D02*
X84618621Y-143217241D01*
X84618621Y-143217241D02*
X84548764Y-143267172D01*
X84548764Y-143267172D02*
X84480941Y-143264895D01*
X84480941Y-143264895D02*
X84412365Y-143221584D01*
X84412365Y-143221584D02*
X84371465Y-143175346D01*
X84371465Y-143175346D02*
X84347242Y-143107857D01*
X84347242Y-143107857D02*
X84333639Y-143001433D01*
X84333639Y-143001433D02*
X84332706Y-142989020D01*
X84332706Y-142989020D02*
X84330384Y-142796147D01*
X84330384Y-142796147D02*
X84354650Y-142652900D01*
X84354650Y-142652900D02*
X84405176Y-142560160D01*
X84405176Y-142560160D02*
X84481632Y-142518807D01*
X84481632Y-142518807D02*
X84508924Y-142516552D01*
X84508924Y-142516552D02*
X84580589Y-142527893D01*
X84580589Y-142527893D02*
X84629610Y-142567184D01*
X84629610Y-142567184D02*
X84659582Y-142642326D01*
X84659582Y-142642326D02*
X84674101Y-142761222D01*
X84674101Y-142761222D02*
X84677011Y-142886019D01*
X84677011Y-142886019D02*
X84968893Y-142886019D01*
X84968893Y-142886019D02*
X84967878Y-142745659D01*
X84967878Y-142745659D02*
X84963312Y-142640549D01*
X84963312Y-142640549D02*
X84953312Y-142567714D01*
X84953312Y-142567714D02*
X84935921Y-142514108D01*
X84935921Y-142514108D02*
X84909184Y-142466681D01*
X84909184Y-142466681D02*
X84903276Y-142457864D01*
X84903276Y-142457864D02*
X84803968Y-142339007D01*
X84803968Y-142339007D02*
X84695758Y-142270008D01*
X84695758Y-142270008D02*
X84564019Y-142242619D01*
X84564019Y-142242619D02*
X84519283Y-142241281D01*
X84519283Y-142241281D02*
X84351779Y-142266015D01*
X84351779Y-142266015D02*
X84351779Y-142266015D01*
G36*
X84968938Y-142927744D02*
G01*
X84967355Y-143068918D01*
X84961916Y-143167285D01*
X84950643Y-143235990D01*
X84931561Y-143288181D01*
X84902694Y-143337004D01*
X84895592Y-143347135D01*
X84820444Y-143427012D01*
X84734820Y-143487253D01*
X84690852Y-143506802D01*
X84532861Y-143539408D01*
X84376613Y-143518317D01*
X84232618Y-143446249D01*
X84111385Y-143325922D01*
X84101150Y-143309803D01*
X84067847Y-143216205D01*
X84045405Y-143085879D01*
X84034516Y-142935371D01*
X84035740Y-142796147D01*
X84330384Y-142796147D01*
X84332706Y-142989020D01*
X84333639Y-143001433D01*
X84347242Y-143107857D01*
X84371465Y-143175346D01*
X84412365Y-143221584D01*
X84480941Y-143264895D01*
X84548764Y-143267172D01*
X84618621Y-143217241D01*
X84630771Y-143204102D01*
X84654575Y-143164785D01*
X84668628Y-143107674D01*
X84675313Y-143019256D01*
X84677011Y-142886019D01*
X84674101Y-142761222D01*
X84659582Y-142642326D01*
X84629610Y-142567184D01*
X84580589Y-142527893D01*
X84508924Y-142516552D01*
X84481632Y-142518807D01*
X84405176Y-142560160D01*
X84354650Y-142652900D01*
X84330384Y-142796147D01*
X84035740Y-142796147D01*
X84035871Y-142781227D01*
X84050161Y-142639992D01*
X84078075Y-142528213D01*
X84113949Y-142453766D01*
X84214939Y-142337968D01*
X84351779Y-142266015D01*
X84519283Y-142241281D01*
X84564019Y-142242619D01*
X84695758Y-142270008D01*
X84803968Y-142339007D01*
X84903276Y-142457864D01*
X84909184Y-142466681D01*
X84935921Y-142514108D01*
X84953312Y-142567714D01*
X84963312Y-142640549D01*
X84967878Y-142745659D01*
X84968893Y-142886019D01*
X84968965Y-142896092D01*
X84968938Y-142927744D01*
G37*
X84968938Y-142927744D02*
X84967355Y-143068918D01*
X84961916Y-143167285D01*
X84950643Y-143235990D01*
X84931561Y-143288181D01*
X84902694Y-143337004D01*
X84895592Y-143347135D01*
X84820444Y-143427012D01*
X84734820Y-143487253D01*
X84690852Y-143506802D01*
X84532861Y-143539408D01*
X84376613Y-143518317D01*
X84232618Y-143446249D01*
X84111385Y-143325922D01*
X84101150Y-143309803D01*
X84067847Y-143216205D01*
X84045405Y-143085879D01*
X84034516Y-142935371D01*
X84035740Y-142796147D01*
X84330384Y-142796147D01*
X84332706Y-142989020D01*
X84333639Y-143001433D01*
X84347242Y-143107857D01*
X84371465Y-143175346D01*
X84412365Y-143221584D01*
X84480941Y-143264895D01*
X84548764Y-143267172D01*
X84618621Y-143217241D01*
X84630771Y-143204102D01*
X84654575Y-143164785D01*
X84668628Y-143107674D01*
X84675313Y-143019256D01*
X84677011Y-142886019D01*
X84674101Y-142761222D01*
X84659582Y-142642326D01*
X84629610Y-142567184D01*
X84580589Y-142527893D01*
X84508924Y-142516552D01*
X84481632Y-142518807D01*
X84405176Y-142560160D01*
X84354650Y-142652900D01*
X84330384Y-142796147D01*
X84035740Y-142796147D01*
X84035871Y-142781227D01*
X84050161Y-142639992D01*
X84078075Y-142528213D01*
X84113949Y-142453766D01*
X84214939Y-142337968D01*
X84351779Y-142266015D01*
X84519283Y-142241281D01*
X84564019Y-142242619D01*
X84695758Y-142270008D01*
X84803968Y-142339007D01*
X84903276Y-142457864D01*
X84909184Y-142466681D01*
X84935921Y-142514108D01*
X84953312Y-142567714D01*
X84963312Y-142640549D01*
X84967878Y-142745659D01*
X84968893Y-142886019D01*
X84968965Y-142896092D01*
X84968938Y-142927744D01*
X80982571Y-142277719D02*
X80888877Y-142331914D01*
X80888877Y-142331914D02*
X80823736Y-142385707D01*
X80823736Y-142385707D02*
X80776093Y-142442066D01*
X80776093Y-142442066D02*
X80743272Y-142510987D01*
X80743272Y-142510987D02*
X80722594Y-142602468D01*
X80722594Y-142602468D02*
X80711380Y-142726506D01*
X80711380Y-142726506D02*
X80706951Y-142893098D01*
X80706951Y-142893098D02*
X80706437Y-143012851D01*
X80706437Y-143012851D02*
X80706437Y-143453659D01*
X80706437Y-143453659D02*
X80830517Y-143509283D01*
X80830517Y-143509283D02*
X80954598Y-143564907D01*
X80954598Y-143564907D02*
X80969195Y-143082095D01*
X80969195Y-143082095D02*
X80975227Y-142901779D01*
X80975227Y-142901779D02*
X80981555Y-142770901D01*
X80981555Y-142770901D02*
X80989394Y-142680511D01*
X80989394Y-142680511D02*
X80999963Y-142621664D01*
X80999963Y-142621664D02*
X81014477Y-142585413D01*
X81014477Y-142585413D02*
X81034152Y-142562810D01*
X81034152Y-142562810D02*
X81040465Y-142557917D01*
X81040465Y-142557917D02*
X81136112Y-142519706D01*
X81136112Y-142519706D02*
X81232793Y-142534827D01*
X81232793Y-142534827D02*
X81290345Y-142574943D01*
X81290345Y-142574943D02*
X81313755Y-142603370D01*
X81313755Y-142603370D02*
X81329961Y-142640672D01*
X81329961Y-142640672D02*
X81340259Y-142697223D01*
X81340259Y-142697223D02*
X81345951Y-142783394D01*
X81345951Y-142783394D02*
X81348336Y-142909558D01*
X81348336Y-142909558D02*
X81348736Y-143041042D01*
X81348736Y-143041042D02*
X81348814Y-143205999D01*
X81348814Y-143205999D02*
X81351639Y-143322761D01*
X81351639Y-143322761D02*
X81361093Y-143401510D01*
X81361093Y-143401510D02*
X81381060Y-143452431D01*
X81381060Y-143452431D02*
X81415424Y-143485706D01*
X81415424Y-143485706D02*
X81468068Y-143511520D01*
X81468068Y-143511520D02*
X81538383Y-143538344D01*
X81538383Y-143538344D02*
X81615180Y-143567542D01*
X81615180Y-143567542D02*
X81606038Y-143049346D01*
X81606038Y-143049346D02*
X81602357Y-142862539D01*
X81602357Y-142862539D02*
X81598050Y-142724490D01*
X81598050Y-142724490D02*
X81591877Y-142625568D01*
X81591877Y-142625568D02*
X81582598Y-142556145D01*
X81582598Y-142556145D02*
X81568973Y-142506590D01*
X81568973Y-142506590D02*
X81549761Y-142467273D01*
X81549761Y-142467273D02*
X81526598Y-142432584D01*
X81526598Y-142432584D02*
X81414848Y-142321770D01*
X81414848Y-142321770D02*
X81278487Y-142257689D01*
X81278487Y-142257689D02*
X81130175Y-142242339D01*
X81130175Y-142242339D02*
X80982571Y-142277719D01*
X80982571Y-142277719D02*
X80982571Y-142277719D01*
G36*
X81278487Y-142257689D02*
G01*
X81414848Y-142321770D01*
X81526598Y-142432584D01*
X81549761Y-142467273D01*
X81568973Y-142506590D01*
X81582598Y-142556145D01*
X81591877Y-142625568D01*
X81598050Y-142724490D01*
X81602357Y-142862539D01*
X81606038Y-143049346D01*
X81615180Y-143567542D01*
X81538383Y-143538344D01*
X81468068Y-143511520D01*
X81415424Y-143485706D01*
X81381060Y-143452431D01*
X81361093Y-143401510D01*
X81351639Y-143322761D01*
X81348814Y-143205999D01*
X81348736Y-143041042D01*
X81348336Y-142909558D01*
X81345951Y-142783394D01*
X81340259Y-142697223D01*
X81329961Y-142640672D01*
X81313755Y-142603370D01*
X81290345Y-142574943D01*
X81232793Y-142534827D01*
X81136112Y-142519706D01*
X81040465Y-142557917D01*
X81034152Y-142562810D01*
X81014477Y-142585413D01*
X80999963Y-142621664D01*
X80989394Y-142680511D01*
X80981555Y-142770901D01*
X80975227Y-142901779D01*
X80969195Y-143082095D01*
X80954598Y-143564907D01*
X80830517Y-143509283D01*
X80706437Y-143453659D01*
X80706437Y-143012851D01*
X80706951Y-142893098D01*
X80711380Y-142726506D01*
X80722594Y-142602468D01*
X80743272Y-142510987D01*
X80776093Y-142442066D01*
X80823736Y-142385707D01*
X80888877Y-142331914D01*
X80982571Y-142277719D01*
X81130175Y-142242339D01*
X81278487Y-142257689D01*
G37*
X81278487Y-142257689D02*
X81414848Y-142321770D01*
X81526598Y-142432584D01*
X81549761Y-142467273D01*
X81568973Y-142506590D01*
X81582598Y-142556145D01*
X81591877Y-142625568D01*
X81598050Y-142724490D01*
X81602357Y-142862539D01*
X81606038Y-143049346D01*
X81615180Y-143567542D01*
X81538383Y-143538344D01*
X81468068Y-143511520D01*
X81415424Y-143485706D01*
X81381060Y-143452431D01*
X81361093Y-143401510D01*
X81351639Y-143322761D01*
X81348814Y-143205999D01*
X81348736Y-143041042D01*
X81348336Y-142909558D01*
X81345951Y-142783394D01*
X81340259Y-142697223D01*
X81329961Y-142640672D01*
X81313755Y-142603370D01*
X81290345Y-142574943D01*
X81232793Y-142534827D01*
X81136112Y-142519706D01*
X81040465Y-142557917D01*
X81034152Y-142562810D01*
X81014477Y-142585413D01*
X80999963Y-142621664D01*
X80989394Y-142680511D01*
X80981555Y-142770901D01*
X80975227Y-142901779D01*
X80969195Y-143082095D01*
X80954598Y-143564907D01*
X80830517Y-143509283D01*
X80706437Y-143453659D01*
X80706437Y-143012851D01*
X80706951Y-142893098D01*
X80711380Y-142726506D01*
X80722594Y-142602468D01*
X80743272Y-142510987D01*
X80776093Y-142442066D01*
X80823736Y-142385707D01*
X80888877Y-142331914D01*
X80982571Y-142277719D01*
X81130175Y-142242339D01*
X81278487Y-142257689D01*
X83228100Y-142261903D02*
X83116550Y-142317522D01*
X83116550Y-142317522D02*
X83018092Y-142419931D01*
X83018092Y-142419931D02*
X82990977Y-142457864D01*
X82990977Y-142457864D02*
X82961438Y-142507500D01*
X82961438Y-142507500D02*
X82942272Y-142561412D01*
X82942272Y-142561412D02*
X82931307Y-142633364D01*
X82931307Y-142633364D02*
X82926371Y-142737122D01*
X82926371Y-142737122D02*
X82925287Y-142874101D01*
X82925287Y-142874101D02*
X82930182Y-143061815D01*
X82930182Y-143061815D02*
X82947196Y-143202758D01*
X82947196Y-143202758D02*
X82979823Y-143307908D01*
X82979823Y-143307908D02*
X83031558Y-143388243D01*
X83031558Y-143388243D02*
X83105896Y-143454741D01*
X83105896Y-143454741D02*
X83111358Y-143458678D01*
X83111358Y-143458678D02*
X83184620Y-143498953D01*
X83184620Y-143498953D02*
X83272840Y-143518880D01*
X83272840Y-143518880D02*
X83385038Y-143523793D01*
X83385038Y-143523793D02*
X83567433Y-143523793D01*
X83567433Y-143523793D02*
X83567509Y-143700857D01*
X83567509Y-143700857D02*
X83569207Y-143799470D01*
X83569207Y-143799470D02*
X83579550Y-143857314D01*
X83579550Y-143857314D02*
X83606578Y-143892006D01*
X83606578Y-143892006D02*
X83658332Y-143921164D01*
X83658332Y-143921164D02*
X83670761Y-143927121D01*
X83670761Y-143927121D02*
X83728923Y-143955039D01*
X83728923Y-143955039D02*
X83773956Y-143972672D01*
X83773956Y-143972672D02*
X83807441Y-143974194D01*
X83807441Y-143974194D02*
X83830962Y-143953781D01*
X83830962Y-143953781D02*
X83846100Y-143905607D01*
X83846100Y-143905607D02*
X83854437Y-143823846D01*
X83854437Y-143823846D02*
X83857556Y-143702672D01*
X83857556Y-143702672D02*
X83857040Y-143536260D01*
X83857040Y-143536260D02*
X83854471Y-143318785D01*
X83854471Y-143318785D02*
X83853668Y-143253736D01*
X83853668Y-143253736D02*
X83850778Y-143029502D01*
X83850778Y-143029502D02*
X83848188Y-142882821D01*
X83848188Y-142882821D02*
X83567586Y-142882821D01*
X83567586Y-142882821D02*
X83566009Y-143007326D01*
X83566009Y-143007326D02*
X83559000Y-143088787D01*
X83559000Y-143088787D02*
X83543142Y-143142515D01*
X83543142Y-143142515D02*
X83515019Y-143183823D01*
X83515019Y-143183823D02*
X83495925Y-143203971D01*
X83495925Y-143203971D02*
X83417865Y-143262921D01*
X83417865Y-143262921D02*
X83348753Y-143267720D01*
X83348753Y-143267720D02*
X83277440Y-143219038D01*
X83277440Y-143219038D02*
X83275632Y-143217241D01*
X83275632Y-143217241D02*
X83246617Y-143179618D01*
X83246617Y-143179618D02*
X83228967Y-143128484D01*
X83228967Y-143128484D02*
X83220064Y-143049738D01*
X83220064Y-143049738D02*
X83217291Y-142929276D01*
X83217291Y-142929276D02*
X83217241Y-142902588D01*
X83217241Y-142902588D02*
X83223942Y-142736583D01*
X83223942Y-142736583D02*
X83245752Y-142621505D01*
X83245752Y-142621505D02*
X83285235Y-142551254D01*
X83285235Y-142551254D02*
X83344956Y-142519729D01*
X83344956Y-142519729D02*
X83379472Y-142516552D01*
X83379472Y-142516552D02*
X83461389Y-142531460D01*
X83461389Y-142531460D02*
X83517579Y-142580548D01*
X83517579Y-142580548D02*
X83551402Y-142670362D01*
X83551402Y-142670362D02*
X83566220Y-142807445D01*
X83566220Y-142807445D02*
X83567586Y-142882821D01*
X83567586Y-142882821D02*
X83848188Y-142882821D01*
X83848188Y-142882821D02*
X83847713Y-142855952D01*
X83847713Y-142855952D02*
X83843753Y-142725382D01*
X83843753Y-142725382D02*
X83838174Y-142630087D01*
X83838174Y-142630087D02*
X83830254Y-142562364D01*
X83830254Y-142562364D02*
X83819269Y-142514507D01*
X83819269Y-142514507D02*
X83804499Y-142478813D01*
X83804499Y-142478813D02*
X83785218Y-142447578D01*
X83785218Y-142447578D02*
X83776951Y-142435824D01*
X83776951Y-142435824D02*
X83667288Y-142324797D01*
X83667288Y-142324797D02*
X83528635Y-142261847D01*
X83528635Y-142261847D02*
X83368246Y-142244297D01*
X83368246Y-142244297D02*
X83228100Y-142261903D01*
X83228100Y-142261903D02*
X83228100Y-142261903D01*
G36*
X83853668Y-143253736D02*
G01*
X83854471Y-143318785D01*
X83857040Y-143536260D01*
X83857556Y-143702672D01*
X83854437Y-143823846D01*
X83846100Y-143905607D01*
X83830962Y-143953781D01*
X83807441Y-143974194D01*
X83773956Y-143972672D01*
X83728923Y-143955039D01*
X83670761Y-143927121D01*
X83658332Y-143921164D01*
X83606578Y-143892006D01*
X83579550Y-143857314D01*
X83569207Y-143799470D01*
X83567509Y-143700857D01*
X83567433Y-143523793D01*
X83385038Y-143523793D01*
X83272840Y-143518880D01*
X83184620Y-143498953D01*
X83111358Y-143458678D01*
X83105896Y-143454741D01*
X83031558Y-143388243D01*
X82979823Y-143307908D01*
X82947196Y-143202758D01*
X82930182Y-143061815D01*
X82926030Y-142902588D01*
X83217241Y-142902588D01*
X83217291Y-142929276D01*
X83220064Y-143049738D01*
X83228967Y-143128484D01*
X83246617Y-143179618D01*
X83275632Y-143217241D01*
X83277440Y-143219038D01*
X83348753Y-143267720D01*
X83417865Y-143262921D01*
X83495925Y-143203971D01*
X83515019Y-143183823D01*
X83543142Y-143142515D01*
X83559000Y-143088787D01*
X83566009Y-143007326D01*
X83567586Y-142882821D01*
X83566220Y-142807445D01*
X83551402Y-142670362D01*
X83517579Y-142580548D01*
X83461389Y-142531460D01*
X83379472Y-142516552D01*
X83344956Y-142519729D01*
X83285235Y-142551254D01*
X83245752Y-142621505D01*
X83223942Y-142736583D01*
X83217241Y-142902588D01*
X82926030Y-142902588D01*
X82925287Y-142874101D01*
X82926371Y-142737122D01*
X82931307Y-142633364D01*
X82942272Y-142561412D01*
X82961438Y-142507500D01*
X82990977Y-142457864D01*
X83018092Y-142419931D01*
X83116550Y-142317522D01*
X83228100Y-142261903D01*
X83368246Y-142244297D01*
X83528635Y-142261847D01*
X83667288Y-142324797D01*
X83776951Y-142435824D01*
X83785218Y-142447578D01*
X83804499Y-142478813D01*
X83819269Y-142514507D01*
X83830254Y-142562364D01*
X83838174Y-142630087D01*
X83843753Y-142725382D01*
X83847713Y-142855952D01*
X83848188Y-142882821D01*
X83850778Y-143029502D01*
X83853668Y-143253736D01*
G37*
X83853668Y-143253736D02*
X83854471Y-143318785D01*
X83857040Y-143536260D01*
X83857556Y-143702672D01*
X83854437Y-143823846D01*
X83846100Y-143905607D01*
X83830962Y-143953781D01*
X83807441Y-143974194D01*
X83773956Y-143972672D01*
X83728923Y-143955039D01*
X83670761Y-143927121D01*
X83658332Y-143921164D01*
X83606578Y-143892006D01*
X83579550Y-143857314D01*
X83569207Y-143799470D01*
X83567509Y-143700857D01*
X83567433Y-143523793D01*
X83385038Y-143523793D01*
X83272840Y-143518880D01*
X83184620Y-143498953D01*
X83111358Y-143458678D01*
X83105896Y-143454741D01*
X83031558Y-143388243D01*
X82979823Y-143307908D01*
X82947196Y-143202758D01*
X82930182Y-143061815D01*
X82926030Y-142902588D01*
X83217241Y-142902588D01*
X83217291Y-142929276D01*
X83220064Y-143049738D01*
X83228967Y-143128484D01*
X83246617Y-143179618D01*
X83275632Y-143217241D01*
X83277440Y-143219038D01*
X83348753Y-143267720D01*
X83417865Y-143262921D01*
X83495925Y-143203971D01*
X83515019Y-143183823D01*
X83543142Y-143142515D01*
X83559000Y-143088787D01*
X83566009Y-143007326D01*
X83567586Y-142882821D01*
X83566220Y-142807445D01*
X83551402Y-142670362D01*
X83517579Y-142580548D01*
X83461389Y-142531460D01*
X83379472Y-142516552D01*
X83344956Y-142519729D01*
X83285235Y-142551254D01*
X83245752Y-142621505D01*
X83223942Y-142736583D01*
X83217241Y-142902588D01*
X82926030Y-142902588D01*
X82925287Y-142874101D01*
X82926371Y-142737122D01*
X82931307Y-142633364D01*
X82942272Y-142561412D01*
X82961438Y-142507500D01*
X82990977Y-142457864D01*
X83018092Y-142419931D01*
X83116550Y-142317522D01*
X83228100Y-142261903D01*
X83368246Y-142244297D01*
X83528635Y-142261847D01*
X83667288Y-142324797D01*
X83776951Y-142435824D01*
X83785218Y-142447578D01*
X83804499Y-142478813D01*
X83819269Y-142514507D01*
X83830254Y-142562364D01*
X83838174Y-142630087D01*
X83843753Y-142725382D01*
X83847713Y-142855952D01*
X83848188Y-142882821D01*
X83850778Y-143029502D01*
X83853668Y-143253736D01*
D13*
%TO.C,SW_RST1*%
X85550000Y-49650000D02*
X88050000Y-49650000D01*
X84050000Y-47900000D02*
X84050000Y-45900000D01*
X85550000Y-44150000D02*
X88050000Y-44150000D01*
X89550000Y-47900000D02*
X89550000Y-45900000D01*
X85100000Y-49200000D02*
X85550000Y-49650000D01*
X88500000Y-49200000D02*
X88050000Y-49650000D01*
X88500000Y-44600000D02*
X88050000Y-44150000D01*
X85100000Y-44600000D02*
X85550000Y-44150000D01*
%TO.C,C1*%
X129438748Y-37765000D02*
X129961252Y-37765000D01*
X129438748Y-39235000D02*
X129961252Y-39235000D01*
%TO.C,PF7*%
X123400000Y-35600000D02*
X123400000Y-34200000D01*
X122000000Y-35600000D02*
X123400000Y-35600000D01*
X122000000Y-34200000D02*
X122000000Y-35600000D01*
X123400000Y-34200000D02*
X122000000Y-34200000D01*
%TO.C,PF6*%
X123400000Y-37800000D02*
X123400000Y-36400000D01*
X122000000Y-37800000D02*
X123400000Y-37800000D01*
X122000000Y-36400000D02*
X122000000Y-37800000D01*
X123400000Y-36400000D02*
X122000000Y-36400000D01*
%TO.C,PF5*%
X123400000Y-40000000D02*
X123400000Y-38600000D01*
X122000000Y-40000000D02*
X123400000Y-40000000D01*
X122000000Y-38600000D02*
X122000000Y-40000000D01*
X123400000Y-38600000D02*
X122000000Y-38600000D01*
%TO.C,PF4*%
X123400000Y-42200000D02*
X123400000Y-40800000D01*
X122000000Y-42200000D02*
X123400000Y-42200000D01*
X122000000Y-40800000D02*
X122000000Y-42200000D01*
X123400000Y-40800000D02*
X122000000Y-40800000D01*
%TO.C,PF1*%
X123400000Y-44400000D02*
X123400000Y-43000000D01*
X122000000Y-44400000D02*
X123400000Y-44400000D01*
X122000000Y-43000000D02*
X122000000Y-44400000D01*
X123400000Y-43000000D02*
X122000000Y-43000000D01*
%TO.C,PF0*%
X123400000Y-46600000D02*
X123400000Y-45200000D01*
X122000000Y-46600000D02*
X123400000Y-46600000D01*
X122000000Y-45200000D02*
X122000000Y-46600000D01*
X123400000Y-45200000D02*
X122000000Y-45200000D01*
%TO.C,Y1*%
X100700000Y-47150000D02*
X96700000Y-47150000D01*
X100700000Y-43850000D02*
X100700000Y-47150000D01*
%TO.C,U3*%
X103500000Y-48500000D02*
X103500000Y-49800000D01*
X100700000Y-48500000D02*
X100700000Y-49500000D01*
D11*
%TO.C,U2*%
X114600000Y-44775000D02*
X114600000Y-46050000D01*
X115175000Y-34425000D02*
X115175000Y-35100000D01*
X104825000Y-34425000D02*
X104825000Y-35100000D01*
X104825000Y-44775000D02*
X104825000Y-44100000D01*
X115175000Y-44775000D02*
X115175000Y-44100000D01*
X104825000Y-44775000D02*
X105500000Y-44775000D01*
X104825000Y-34425000D02*
X105500000Y-34425000D01*
X115175000Y-34425000D02*
X114500000Y-34425000D01*
X115175000Y-44775000D02*
X114600000Y-44775000D01*
D13*
%TO.C,R6*%
X118460436Y-32765000D02*
X118914564Y-32765000D01*
X118460436Y-34235000D02*
X118914564Y-34235000D01*
%TO.C,R3*%
X102339564Y-54535000D02*
X101885436Y-54535000D01*
X102339564Y-53065000D02*
X101885436Y-53065000D01*
%TO.C,R2*%
X101885436Y-50865000D02*
X102339564Y-50865000D01*
X101885436Y-52335000D02*
X102339564Y-52335000D01*
%TO.C,R1*%
X79972936Y-44565000D02*
X80427064Y-44565000D01*
X79972936Y-46035000D02*
X80427064Y-46035000D01*
%TO.C,J1*%
X76150000Y-41870000D02*
X77650000Y-41870000D01*
X76150000Y-41870000D02*
X76150000Y-34610000D01*
X85650000Y-41870000D02*
X85650000Y-34610000D01*
X84150000Y-41870000D02*
X85650000Y-41870000D01*
%TO.C,F1*%
X88397936Y-35890000D02*
X89602064Y-35890000D01*
X88397936Y-37710000D02*
X89602064Y-37710000D01*
%TO.C,D19*%
X126900000Y-132600000D02*
X126900000Y-134450000D01*
X128100000Y-132600000D02*
X128100000Y-134450000D01*
X128100000Y-134450000D02*
X126900000Y-134450000D01*
%TO.C,D18*%
X127000000Y-113500000D02*
X127000000Y-115350000D01*
X128200000Y-113500000D02*
X128200000Y-115350000D01*
X128200000Y-115350000D02*
X127000000Y-115350000D01*
%TO.C,D17*%
X127000000Y-94700000D02*
X127000000Y-96550000D01*
X128200000Y-94700000D02*
X128200000Y-96550000D01*
X128200000Y-96550000D02*
X127000000Y-96550000D01*
%TO.C,D16*%
X127000000Y-75300000D02*
X127000000Y-77150000D01*
X128200000Y-75300000D02*
X128200000Y-77150000D01*
X128200000Y-77150000D02*
X127000000Y-77150000D01*
%TO.C,D15*%
X127000000Y-56500000D02*
X127000000Y-58350000D01*
X128200000Y-56500000D02*
X128200000Y-58350000D01*
X128200000Y-58350000D02*
X127000000Y-58350000D01*
%TO.C,D14*%
X107890000Y-113500000D02*
X107890000Y-115350000D01*
X109090000Y-113500000D02*
X109090000Y-115350000D01*
X109090000Y-115350000D02*
X107890000Y-115350000D01*
%TO.C,D13*%
X107890000Y-94700000D02*
X107890000Y-96550000D01*
X109090000Y-94700000D02*
X109090000Y-96550000D01*
X109090000Y-96550000D02*
X107890000Y-96550000D01*
%TO.C,D12*%
X107890000Y-75300000D02*
X107890000Y-77150000D01*
X109090000Y-75300000D02*
X109090000Y-77150000D01*
X109090000Y-77150000D02*
X107890000Y-77150000D01*
%TO.C,D11*%
X107890000Y-56500000D02*
X107890000Y-58350000D01*
X109090000Y-56500000D02*
X109090000Y-58350000D01*
X109090000Y-58350000D02*
X107890000Y-58350000D01*
%TO.C,D10*%
X98300000Y-132434000D02*
X98300000Y-134284000D01*
X99500000Y-132434000D02*
X99500000Y-134284000D01*
X99500000Y-134284000D02*
X98300000Y-134284000D01*
%TO.C,D9*%
X88790000Y-113500000D02*
X88790000Y-115350000D01*
X89990000Y-113500000D02*
X89990000Y-115350000D01*
X89990000Y-115350000D02*
X88790000Y-115350000D01*
%TO.C,D8*%
X88790000Y-94700000D02*
X88790000Y-96550000D01*
X89990000Y-94700000D02*
X89990000Y-96550000D01*
X89990000Y-96550000D02*
X88790000Y-96550000D01*
%TO.C,D7*%
X88790000Y-75300000D02*
X88790000Y-77150000D01*
X89990000Y-75300000D02*
X89990000Y-77150000D01*
X89990000Y-77150000D02*
X88790000Y-77150000D01*
%TO.C,D6*%
X88790000Y-56500000D02*
X88790000Y-58350000D01*
X89990000Y-56500000D02*
X89990000Y-58350000D01*
X89990000Y-58350000D02*
X88790000Y-58350000D01*
%TO.C,D5*%
X69590000Y-132600000D02*
X69590000Y-134450000D01*
X70790000Y-132600000D02*
X70790000Y-134450000D01*
X70790000Y-134450000D02*
X69590000Y-134450000D01*
%TO.C,D4*%
X69690000Y-113500000D02*
X69690000Y-115350000D01*
X70890000Y-113500000D02*
X70890000Y-115350000D01*
X70890000Y-115350000D02*
X69690000Y-115350000D01*
%TO.C,D3*%
X69690000Y-94700000D02*
X69690000Y-96550000D01*
X70890000Y-94700000D02*
X70890000Y-96550000D01*
X70890000Y-96550000D02*
X69690000Y-96550000D01*
%TO.C,D2*%
X69730000Y-75220000D02*
X69730000Y-77070000D01*
X70930000Y-75220000D02*
X70930000Y-77070000D01*
X70930000Y-77070000D02*
X69730000Y-77070000D01*
%TO.C,D1*%
X69690000Y-56500000D02*
X69690000Y-58350000D01*
X70890000Y-56500000D02*
X70890000Y-58350000D01*
X70890000Y-58350000D02*
X69690000Y-58350000D01*
%TO.C,C7*%
X129438748Y-44365000D02*
X129961252Y-44365000D01*
X129438748Y-45835000D02*
X129961252Y-45835000D01*
%TO.C,C6*%
X129438748Y-35565000D02*
X129961252Y-35565000D01*
X129438748Y-37035000D02*
X129961252Y-37035000D01*
%TO.C,C5*%
X129438748Y-42165000D02*
X129961252Y-42165000D01*
X129438748Y-43635000D02*
X129961252Y-43635000D01*
%TO.C,C4*%
X129438748Y-39965000D02*
X129961252Y-39965000D01*
X129438748Y-41435000D02*
X129961252Y-41435000D01*
%TO.C,C3*%
X98238748Y-47665000D02*
X98761252Y-47665000D01*
X98238748Y-49135000D02*
X98761252Y-49135000D01*
%TO.C,C2*%
X94565000Y-45761252D02*
X94565000Y-45238748D01*
X96035000Y-45761252D02*
X96035000Y-45238748D01*
%TD*%
M02*
