%TF.GenerationSoftware,KiCad,Pcbnew,(5.99.0-9544-g366189b864)*%
%TF.CreationDate,2021-04-16T00:10:41-04:00*%
%TF.ProjectId,kipad,6b697061-642e-46b6-9963-61645f706362,A*%
%TF.SameCoordinates,Original*%
%TF.FileFunction,Soldermask,Top*%
%TF.FilePolarity,Negative*%
%FSLAX46Y46*%
G04 Gerber Fmt 4.6, Leading zero omitted, Abs format (unit mm)*
G04 Created by KiCad (PCBNEW (5.99.0-9544-g366189b864)) date 2021-04-16 00:10:41*
%MOMM*%
%LPD*%
G01*
G04 APERTURE LIST*
G04 Aperture macros list*
%AMRoundRect*
0 Rectangle with rounded corners*
0 $1 Rounding radius*
0 $2 $3 $4 $5 $6 $7 $8 $9 X,Y pos of 4 corners*
0 Add a 4 corners polygon primitive as box body*
4,1,4,$2,$3,$4,$5,$6,$7,$8,$9,$2,$3,0*
0 Add four circle primitives for the rounded corners*
1,1,$1+$1,$2,$3*
1,1,$1+$1,$4,$5*
1,1,$1+$1,$6,$7*
1,1,$1+$1,$8,$9*
0 Add four rect primitives between the rounded corners*
20,1,$1+$1,$2,$3,$4,$5,0*
20,1,$1+$1,$4,$5,$6,$7,0*
20,1,$1+$1,$6,$7,$8,$9,0*
20,1,$1+$1,$8,$9,$2,$3,0*%
G04 Aperture macros list end*
%TA.AperFunction,Profile*%
%ADD10C,0.100000*%
%TD*%
%ADD11C,1.700000*%
%ADD12C,4.000000*%
%ADD13C,2.200000*%
%ADD14C,4.400000*%
%ADD15RoundRect,0.250000X0.262500X0.450000X-0.262500X0.450000X-0.262500X-0.450000X0.262500X-0.450000X0*%
%ADD16C,3.050000*%
%ADD17C,0.650000*%
%ADD18O,0.950000X0.650000*%
%ADD19O,0.800000X1.400000*%
%ADD20RoundRect,0.250000X-0.375000X-0.625000X0.375000X-0.625000X0.375000X0.625000X-0.375000X0.625000X0*%
G04 APERTURE END LIST*
D10*
X86800000Y-30600000D02*
X139000000Y-30614214D01*
X86300000Y-30900000D02*
X86800000Y-30600000D01*
X75500000Y-30900000D02*
X86300000Y-30900000D01*
X75000000Y-30600000D02*
X75500000Y-30900000D01*
X65000000Y-30614214D02*
X75000000Y-30600000D01*
X139000000Y-146000000D02*
X65000000Y-146000000D01*
X141000000Y-32614214D02*
X141000000Y-144000000D01*
X63000000Y-144000000D02*
X63000000Y-32614214D01*
X63000000Y-144000000D02*
G75*
G03*
X65000000Y-146000000I2000000J0D01*
G01*
X141000000Y-144000000D02*
G75*
G02*
X139000000Y-146000000I-2000000J0D01*
G01*
X139000000Y-30614214D02*
G75*
G02*
X141000000Y-32614214I0J-2000000D01*
G01*
X63000000Y-32614214D02*
G75*
G02*
X65000000Y-30614214I2000000J0D01*
G01*
D11*
%TO.C,KEY_E1*%
X116570000Y-111326000D03*
X106410000Y-111326000D03*
D12*
X111490000Y-111326000D03*
D13*
X107680000Y-108786000D03*
X114030000Y-106246000D03*
%TD*%
D14*
%TO.C,H4*%
X66000000Y-143000000D03*
%TD*%
%TO.C,H3*%
X138000000Y-143000000D03*
%TD*%
%TO.C,H2*%
X138000000Y-33600000D03*
%TD*%
%TO.C,H1*%
X66000000Y-33600000D03*
%TD*%
D15*
%TO.C,R10*%
X125290000Y-40600000D03*
X127115000Y-40600000D03*
%TD*%
%TO.C,R9*%
X106165000Y-40600000D03*
X107990000Y-40600000D03*
%TD*%
%TO.C,R8*%
X87077500Y-40600000D03*
X88902500Y-40600000D03*
%TD*%
%TO.C,R7*%
X67965000Y-40600000D03*
X69790000Y-40600000D03*
%TD*%
%TO.C,R5*%
X82300000Y-42000000D03*
X84125000Y-42000000D03*
%TD*%
%TO.C,R4*%
X77387500Y-42000000D03*
X79212500Y-42000000D03*
%TD*%
D11*
%TO.C,KEY_SP1*%
X135580000Y-130426000D03*
X125420000Y-130426000D03*
D12*
X130500000Y-130426000D03*
D13*
X126690000Y-127886000D03*
X133040000Y-125346000D03*
%TD*%
D11*
%TO.C,KEY_F1*%
X135680000Y-111326000D03*
X125520000Y-111326000D03*
D12*
X130600000Y-111326000D03*
D13*
X126790000Y-108786000D03*
X133140000Y-106246000D03*
%TD*%
D11*
%TO.C,KEY_ESC1*%
X78270000Y-130426000D03*
X68110000Y-130426000D03*
D12*
X73190000Y-130426000D03*
D13*
X69380000Y-127886000D03*
X75730000Y-125346000D03*
%TD*%
D16*
%TO.C,KEY_ENT1*%
X113800000Y-123440000D03*
X90000000Y-123440000D03*
D12*
X90000000Y-138680000D03*
X113800000Y-138680000D03*
D11*
X106980000Y-130440000D03*
X96820000Y-130440000D03*
D12*
X101900000Y-130440000D03*
D13*
X98090000Y-127900000D03*
X104440000Y-125360000D03*
%TD*%
D11*
%TO.C,KEY_D1*%
X97470000Y-111326000D03*
X87310000Y-111326000D03*
D12*
X92390000Y-111326000D03*
D13*
X88580000Y-108786000D03*
X94930000Y-106246000D03*
%TD*%
D11*
%TO.C,KEY_C1*%
X78370000Y-111326000D03*
X68210000Y-111326000D03*
D12*
X73290000Y-111326000D03*
D13*
X69480000Y-108786000D03*
X75830000Y-106246000D03*
%TD*%
D11*
%TO.C,KEY_B1*%
X135680000Y-92226000D03*
X125520000Y-92226000D03*
D12*
X130600000Y-92226000D03*
D13*
X126790000Y-89686000D03*
X133140000Y-87146000D03*
%TD*%
D11*
%TO.C,KEY_A1*%
X116570000Y-92226000D03*
X106410000Y-92226000D03*
D12*
X111490000Y-92226000D03*
D13*
X107680000Y-89686000D03*
X114030000Y-87146000D03*
%TD*%
D11*
%TO.C,KEY_9*%
X97470000Y-92226000D03*
X87310000Y-92226000D03*
D12*
X92390000Y-92226000D03*
D13*
X88580000Y-89686000D03*
X94930000Y-87146000D03*
%TD*%
D11*
%TO.C,KEY_8*%
X78370000Y-92226000D03*
X68210000Y-92226000D03*
D12*
X73290000Y-92226000D03*
D13*
X69480000Y-89686000D03*
X75830000Y-87146000D03*
%TD*%
D11*
%TO.C,KEY_7*%
X135640000Y-73206000D03*
X125480000Y-73206000D03*
D12*
X130560000Y-73206000D03*
D13*
X126750000Y-70666000D03*
X133100000Y-68126000D03*
%TD*%
D11*
%TO.C,KEY_6*%
X116570000Y-73126000D03*
X106410000Y-73126000D03*
D12*
X111490000Y-73126000D03*
D13*
X107680000Y-70586000D03*
X114030000Y-68046000D03*
%TD*%
D11*
%TO.C,KEY_5*%
X97470000Y-73126000D03*
X87310000Y-73126000D03*
D12*
X92390000Y-73126000D03*
D13*
X88580000Y-70586000D03*
X94930000Y-68046000D03*
%TD*%
D11*
%TO.C,KEY_4*%
X78370000Y-73126000D03*
X68210000Y-73126000D03*
D12*
X73290000Y-73126000D03*
D13*
X69480000Y-70586000D03*
X75830000Y-68046000D03*
%TD*%
D11*
%TO.C,KEY_3*%
X135680000Y-54026000D03*
X125520000Y-54026000D03*
D12*
X130600000Y-54026000D03*
D13*
X126790000Y-51486000D03*
X133140000Y-48946000D03*
%TD*%
D11*
%TO.C,KEY_2*%
X116570000Y-54026000D03*
X106410000Y-54026000D03*
D12*
X111490000Y-54026000D03*
D13*
X107680000Y-51486000D03*
X114030000Y-48946000D03*
%TD*%
D11*
%TO.C,KEY_1*%
X97470000Y-54026000D03*
X87310000Y-54026000D03*
D12*
X92390000Y-54026000D03*
D13*
X88580000Y-51486000D03*
X94930000Y-48946000D03*
%TD*%
D11*
%TO.C,KEY_0*%
X78370000Y-54026000D03*
X68210000Y-54026000D03*
D12*
X73290000Y-54026000D03*
D13*
X69480000Y-51486000D03*
X75830000Y-48946000D03*
%TD*%
D17*
%TO.C,J1*%
X77300000Y-40860000D03*
D18*
X84500000Y-40860000D03*
D19*
X76410000Y-33660000D03*
X85390000Y-33660000D03*
X85030000Y-39610000D03*
X76770000Y-39610000D03*
%TD*%
D20*
%TO.C,D23*%
X131990000Y-40600000D03*
X129190000Y-40600000D03*
%TD*%
%TO.C,D22*%
X112890000Y-40600000D03*
X110090000Y-40600000D03*
%TD*%
%TO.C,D21*%
X93777500Y-40600000D03*
X90977500Y-40600000D03*
%TD*%
%TO.C,D20*%
X74690000Y-40600000D03*
X71890000Y-40600000D03*
%TD*%
M02*
