M48
; DRILL file {KiCad (5.99.0-9544-g366189b864)} date 04/16/21 00:11:03
; FORMAT={-:-/ absolute / inch / decimal}
; #@! TF.CreationDate,2021-04-16T00:11:03-04:00
; #@! TF.GenerationSoftware,Kicad,Pcbnew,(5.99.0-9544-g366189b864)
FMAT,2
INCH
T1C0.0079
T2C0.0118
T3C0.0197
T4C0.0591
T5C0.0866
T6C0.0256
T7C0.0669
T8C0.1201
T9C0.1575
%
G90
G05
T1
X3.1555Y-1.6024
X3.2047Y-1.6024
X3.2283Y-1.5157
X3.2402Y-1.5382
X3.8858Y-2.0512
X3.9488Y-1.9803
X4.0276Y-1.9764
T2
X3.6102Y-1.7874
X3.7795Y-1.6299
X3.8937Y-1.622
X3.9291Y-1.622
X3.9646Y-1.622
X4.0157Y-1.3031
X4.0472Y-1.6299
X4.063Y-1.3071
X4.0984Y-4.5236
X4.1378Y-1.3346
X4.1378Y-3.7835
X4.1575Y-1.8504
X4.1685Y-3.0165
X4.1693Y-1.689
X4.1772Y-2.2795
X4.1969Y-1.8504
X4.2441Y-1.8504
X4.2677Y-1.4567
X4.2953Y-1.8504
X4.2992Y-1.3819
X4.3465Y-1.8504
X4.3583Y-1.7283
X4.3819Y-1.6732
X4.5039Y-1.8504
X4.6102Y-5.2756
X4.6181Y-1.4331
X4.622Y-1.6969
X4.7992Y-1.8858
X4.9134Y-1.3701
X4.9567Y-1.8858
X5.0Y-1.3071
T4
X2.7315Y-5.0349
X2.7354Y-2.027
X2.7354Y-2.779
X2.7354Y-3.5309
X2.7354Y-4.2829
X2.9815Y-4.9349
X2.9854Y-1.927
X2.9854Y-2.679
X2.9854Y-3.4309
X2.9854Y-4.1829
X3.4874Y-2.027
X3.4874Y-2.779
X3.4874Y-3.5309
X3.4874Y-4.2829
X3.7374Y-1.927
X3.7374Y-2.679
X3.7374Y-3.4309
X3.7374Y-4.1829
X3.8618Y-5.0354
X4.1118Y-4.9354
X4.2394Y-2.027
X4.2394Y-2.779
X4.2394Y-3.5309
X4.2394Y-4.2829
X4.4894Y-1.927
X4.4894Y-2.679
X4.4894Y-3.4309
X4.4894Y-4.1829
X4.9878Y-5.0349
X4.9902Y-2.7821
X4.9917Y-2.027
X4.9917Y-3.5309
X4.9917Y-4.2829
X5.2378Y-4.9349
X5.2402Y-2.6821
X5.2417Y-1.927
X5.2417Y-3.4309
X5.2417Y-4.1829
T5
X2.5984Y-1.3228
X2.5984Y-5.6299
X5.4331Y-1.3228
X5.4331Y-5.6299
T6
X3.0433Y-1.6087
T7
X2.6815Y-5.1349
X2.6854Y-2.127
X2.6854Y-2.879
X2.6854Y-3.6309
X2.6854Y-4.3829
X3.0815Y-5.1349
X3.0854Y-2.127
X3.0854Y-2.879
X3.0854Y-3.6309
X3.0854Y-4.3829
X3.4374Y-2.127
X3.4374Y-2.879
X3.4374Y-3.6309
X3.4374Y-4.3829
X3.8118Y-5.1354
X3.8374Y-2.127
X3.8374Y-2.879
X3.8374Y-3.6309
X3.8374Y-4.3829
X4.1894Y-2.127
X4.1894Y-2.879
X4.1894Y-3.6309
X4.1894Y-4.3829
X4.2118Y-5.1354
X4.5894Y-2.127
X4.5894Y-2.879
X4.5894Y-3.6309
X4.5894Y-4.3829
X4.9378Y-5.1349
X4.9402Y-2.8821
X4.9417Y-2.127
X4.9417Y-3.6309
X4.9417Y-4.3829
X5.3378Y-5.1349
X5.3402Y-2.8821
X5.3417Y-2.127
X5.3417Y-3.6309
X5.3417Y-4.3829
T8
X3.5433Y-4.8598
X4.4803Y-4.8598
T9
X2.8815Y-5.1349
X2.8854Y-2.127
X2.8854Y-2.879
X2.8854Y-3.6309
X2.8854Y-4.3829
X3.5433Y-5.4598
X3.6374Y-2.127
X3.6374Y-2.879
X3.6374Y-3.6309
X3.6374Y-4.3829
X4.0118Y-5.1354
X4.3894Y-2.127
X4.3894Y-2.879
X4.3894Y-3.6309
X4.3894Y-4.3829
X4.4803Y-5.4598
X5.1378Y-5.1349
X5.1402Y-2.8821
X5.1417Y-2.127
X5.1417Y-3.6309
X5.1417Y-4.3829
T3
G00X3.0083Y-1.3134
M15
G01X3.0083Y-1.337
M16
G05
G00X3.0224Y-1.5476
M15
G01X3.0224Y-1.5713
M16
G05
G00X3.3476Y-1.5476
M15
G01X3.3476Y-1.5713
M16
G05
G00X3.3618Y-1.3134
M15
G01X3.3618Y-1.337
M16
G05
T6
G00X3.3209Y-1.6087
M15
G01X3.3327Y-1.6087
M16
G05
T0
M30
